%TF.GenerationSoftware,KiCad,Pcbnew,7.0.10-7.0.10~ubuntu22.04.1*%
%TF.CreationDate,2024-01-23T13:21:10+00:00*%
%TF.ProjectId,wifi_temp_sensor,77696669-5f74-4656-9d70-5f73656e736f,rev?*%
%TF.SameCoordinates,Original*%
%TF.FileFunction,Legend,Top*%
%TF.FilePolarity,Positive*%
%FSLAX46Y46*%
G04 Gerber Fmt 4.6, Leading zero omitted, Abs format (unit mm)*
G04 Created by KiCad (PCBNEW 7.0.10-7.0.10~ubuntu22.04.1) date 2024-01-23 13:21:10*
%MOMM*%
%LPD*%
G01*
G04 APERTURE LIST*
%ADD10C,0.150000*%
%ADD11C,0.250000*%
%ADD12C,0.120000*%
G04 APERTURE END LIST*
D10*
X212090000Y-68580000D02*
X212090000Y-59690000D01*
X186690000Y-55880000D02*
X186690000Y-62865000D01*
X212090000Y-59690000D02*
X212090000Y-55880000D01*
X212090000Y-55880000D02*
X186690000Y-55880000D01*
X205105000Y-52705000D02*
X205105000Y-38735000D01*
X205105000Y-27305000D02*
X191135000Y-27305000D01*
X186690000Y-33020000D02*
X186690000Y-52705000D01*
X190500000Y-68580000D02*
X212090000Y-68580000D01*
X186690000Y-52705000D02*
X205105000Y-52705000D01*
X205105000Y-27305000D02*
X205105000Y-38735000D01*
D11*
X209904949Y-36012000D02*
X210047806Y-36059619D01*
X210047806Y-36059619D02*
X210285901Y-36059619D01*
X210285901Y-36059619D02*
X210381139Y-36012000D01*
X210381139Y-36012000D02*
X210428758Y-35964380D01*
X210428758Y-35964380D02*
X210476377Y-35869142D01*
X210476377Y-35869142D02*
X210476377Y-35773904D01*
X210476377Y-35773904D02*
X210428758Y-35678666D01*
X210428758Y-35678666D02*
X210381139Y-35631047D01*
X210381139Y-35631047D02*
X210285901Y-35583428D01*
X210285901Y-35583428D02*
X210095425Y-35535809D01*
X210095425Y-35535809D02*
X210000187Y-35488190D01*
X210000187Y-35488190D02*
X209952568Y-35440571D01*
X209952568Y-35440571D02*
X209904949Y-35345333D01*
X209904949Y-35345333D02*
X209904949Y-35250095D01*
X209904949Y-35250095D02*
X209952568Y-35154857D01*
X209952568Y-35154857D02*
X210000187Y-35107238D01*
X210000187Y-35107238D02*
X210095425Y-35059619D01*
X210095425Y-35059619D02*
X210333520Y-35059619D01*
X210333520Y-35059619D02*
X210476377Y-35107238D01*
X210904949Y-36059619D02*
X210904949Y-35059619D01*
X210904949Y-35059619D02*
X211143044Y-35059619D01*
X211143044Y-35059619D02*
X211285901Y-35107238D01*
X211285901Y-35107238D02*
X211381139Y-35202476D01*
X211381139Y-35202476D02*
X211428758Y-35297714D01*
X211428758Y-35297714D02*
X211476377Y-35488190D01*
X211476377Y-35488190D02*
X211476377Y-35631047D01*
X211476377Y-35631047D02*
X211428758Y-35821523D01*
X211428758Y-35821523D02*
X211381139Y-35916761D01*
X211381139Y-35916761D02*
X211285901Y-36012000D01*
X211285901Y-36012000D02*
X211143044Y-36059619D01*
X211143044Y-36059619D02*
X210904949Y-36059619D01*
X211857330Y-35773904D02*
X212333520Y-35773904D01*
X211762092Y-36059619D02*
X212095425Y-35059619D01*
X212095425Y-35059619D02*
X212428758Y-36059619D01*
X202919949Y-63952000D02*
X203062806Y-63999619D01*
X203062806Y-63999619D02*
X203300901Y-63999619D01*
X203300901Y-63999619D02*
X203396139Y-63952000D01*
X203396139Y-63952000D02*
X203443758Y-63904380D01*
X203443758Y-63904380D02*
X203491377Y-63809142D01*
X203491377Y-63809142D02*
X203491377Y-63713904D01*
X203491377Y-63713904D02*
X203443758Y-63618666D01*
X203443758Y-63618666D02*
X203396139Y-63571047D01*
X203396139Y-63571047D02*
X203300901Y-63523428D01*
X203300901Y-63523428D02*
X203110425Y-63475809D01*
X203110425Y-63475809D02*
X203015187Y-63428190D01*
X203015187Y-63428190D02*
X202967568Y-63380571D01*
X202967568Y-63380571D02*
X202919949Y-63285333D01*
X202919949Y-63285333D02*
X202919949Y-63190095D01*
X202919949Y-63190095D02*
X202967568Y-63094857D01*
X202967568Y-63094857D02*
X203015187Y-63047238D01*
X203015187Y-63047238D02*
X203110425Y-62999619D01*
X203110425Y-62999619D02*
X203348520Y-62999619D01*
X203348520Y-62999619D02*
X203491377Y-63047238D01*
X203919949Y-63999619D02*
X203919949Y-62999619D01*
X203919949Y-62999619D02*
X204158044Y-62999619D01*
X204158044Y-62999619D02*
X204300901Y-63047238D01*
X204300901Y-63047238D02*
X204396139Y-63142476D01*
X204396139Y-63142476D02*
X204443758Y-63237714D01*
X204443758Y-63237714D02*
X204491377Y-63428190D01*
X204491377Y-63428190D02*
X204491377Y-63571047D01*
X204491377Y-63571047D02*
X204443758Y-63761523D01*
X204443758Y-63761523D02*
X204396139Y-63856761D01*
X204396139Y-63856761D02*
X204300901Y-63952000D01*
X204300901Y-63952000D02*
X204158044Y-63999619D01*
X204158044Y-63999619D02*
X203919949Y-63999619D01*
X204872330Y-63713904D02*
X205348520Y-63713904D01*
X204777092Y-63999619D02*
X205110425Y-62999619D01*
X205110425Y-62999619D02*
X205443758Y-63999619D01*
X197839949Y-38552000D02*
X197982806Y-38599619D01*
X197982806Y-38599619D02*
X198220901Y-38599619D01*
X198220901Y-38599619D02*
X198316139Y-38552000D01*
X198316139Y-38552000D02*
X198363758Y-38504380D01*
X198363758Y-38504380D02*
X198411377Y-38409142D01*
X198411377Y-38409142D02*
X198411377Y-38313904D01*
X198411377Y-38313904D02*
X198363758Y-38218666D01*
X198363758Y-38218666D02*
X198316139Y-38171047D01*
X198316139Y-38171047D02*
X198220901Y-38123428D01*
X198220901Y-38123428D02*
X198030425Y-38075809D01*
X198030425Y-38075809D02*
X197935187Y-38028190D01*
X197935187Y-38028190D02*
X197887568Y-37980571D01*
X197887568Y-37980571D02*
X197839949Y-37885333D01*
X197839949Y-37885333D02*
X197839949Y-37790095D01*
X197839949Y-37790095D02*
X197887568Y-37694857D01*
X197887568Y-37694857D02*
X197935187Y-37647238D01*
X197935187Y-37647238D02*
X198030425Y-37599619D01*
X198030425Y-37599619D02*
X198268520Y-37599619D01*
X198268520Y-37599619D02*
X198411377Y-37647238D01*
X199411377Y-38504380D02*
X199363758Y-38552000D01*
X199363758Y-38552000D02*
X199220901Y-38599619D01*
X199220901Y-38599619D02*
X199125663Y-38599619D01*
X199125663Y-38599619D02*
X198982806Y-38552000D01*
X198982806Y-38552000D02*
X198887568Y-38456761D01*
X198887568Y-38456761D02*
X198839949Y-38361523D01*
X198839949Y-38361523D02*
X198792330Y-38171047D01*
X198792330Y-38171047D02*
X198792330Y-38028190D01*
X198792330Y-38028190D02*
X198839949Y-37837714D01*
X198839949Y-37837714D02*
X198887568Y-37742476D01*
X198887568Y-37742476D02*
X198982806Y-37647238D01*
X198982806Y-37647238D02*
X199125663Y-37599619D01*
X199125663Y-37599619D02*
X199220901Y-37599619D01*
X199220901Y-37599619D02*
X199363758Y-37647238D01*
X199363758Y-37647238D02*
X199411377Y-37694857D01*
X200316139Y-38599619D02*
X199839949Y-38599619D01*
X199839949Y-38599619D02*
X199839949Y-37599619D01*
X197776377Y-40187238D02*
X197681139Y-40139619D01*
X197681139Y-40139619D02*
X197538282Y-40139619D01*
X197538282Y-40139619D02*
X197395425Y-40187238D01*
X197395425Y-40187238D02*
X197300187Y-40282476D01*
X197300187Y-40282476D02*
X197252568Y-40377714D01*
X197252568Y-40377714D02*
X197204949Y-40568190D01*
X197204949Y-40568190D02*
X197204949Y-40711047D01*
X197204949Y-40711047D02*
X197252568Y-40901523D01*
X197252568Y-40901523D02*
X197300187Y-40996761D01*
X197300187Y-40996761D02*
X197395425Y-41092000D01*
X197395425Y-41092000D02*
X197538282Y-41139619D01*
X197538282Y-41139619D02*
X197633520Y-41139619D01*
X197633520Y-41139619D02*
X197776377Y-41092000D01*
X197776377Y-41092000D02*
X197823996Y-41044380D01*
X197823996Y-41044380D02*
X197823996Y-40711047D01*
X197823996Y-40711047D02*
X197633520Y-40711047D01*
X198252568Y-41139619D02*
X198252568Y-40139619D01*
X198252568Y-40139619D02*
X198823996Y-41139619D01*
X198823996Y-41139619D02*
X198823996Y-40139619D01*
X199300187Y-41139619D02*
X199300187Y-40139619D01*
X199300187Y-40139619D02*
X199538282Y-40139619D01*
X199538282Y-40139619D02*
X199681139Y-40187238D01*
X199681139Y-40187238D02*
X199776377Y-40282476D01*
X199776377Y-40282476D02*
X199823996Y-40377714D01*
X199823996Y-40377714D02*
X199871615Y-40568190D01*
X199871615Y-40568190D02*
X199871615Y-40711047D01*
X199871615Y-40711047D02*
X199823996Y-40901523D01*
X199823996Y-40901523D02*
X199776377Y-40996761D01*
X199776377Y-40996761D02*
X199681139Y-41092000D01*
X199681139Y-41092000D02*
X199538282Y-41139619D01*
X199538282Y-41139619D02*
X199300187Y-41139619D01*
X202919949Y-61412000D02*
X203062806Y-61459619D01*
X203062806Y-61459619D02*
X203300901Y-61459619D01*
X203300901Y-61459619D02*
X203396139Y-61412000D01*
X203396139Y-61412000D02*
X203443758Y-61364380D01*
X203443758Y-61364380D02*
X203491377Y-61269142D01*
X203491377Y-61269142D02*
X203491377Y-61173904D01*
X203491377Y-61173904D02*
X203443758Y-61078666D01*
X203443758Y-61078666D02*
X203396139Y-61031047D01*
X203396139Y-61031047D02*
X203300901Y-60983428D01*
X203300901Y-60983428D02*
X203110425Y-60935809D01*
X203110425Y-60935809D02*
X203015187Y-60888190D01*
X203015187Y-60888190D02*
X202967568Y-60840571D01*
X202967568Y-60840571D02*
X202919949Y-60745333D01*
X202919949Y-60745333D02*
X202919949Y-60650095D01*
X202919949Y-60650095D02*
X202967568Y-60554857D01*
X202967568Y-60554857D02*
X203015187Y-60507238D01*
X203015187Y-60507238D02*
X203110425Y-60459619D01*
X203110425Y-60459619D02*
X203348520Y-60459619D01*
X203348520Y-60459619D02*
X203491377Y-60507238D01*
X204491377Y-61364380D02*
X204443758Y-61412000D01*
X204443758Y-61412000D02*
X204300901Y-61459619D01*
X204300901Y-61459619D02*
X204205663Y-61459619D01*
X204205663Y-61459619D02*
X204062806Y-61412000D01*
X204062806Y-61412000D02*
X203967568Y-61316761D01*
X203967568Y-61316761D02*
X203919949Y-61221523D01*
X203919949Y-61221523D02*
X203872330Y-61031047D01*
X203872330Y-61031047D02*
X203872330Y-60888190D01*
X203872330Y-60888190D02*
X203919949Y-60697714D01*
X203919949Y-60697714D02*
X203967568Y-60602476D01*
X203967568Y-60602476D02*
X204062806Y-60507238D01*
X204062806Y-60507238D02*
X204205663Y-60459619D01*
X204205663Y-60459619D02*
X204300901Y-60459619D01*
X204300901Y-60459619D02*
X204443758Y-60507238D01*
X204443758Y-60507238D02*
X204491377Y-60554857D01*
X205396139Y-61459619D02*
X204919949Y-61459619D01*
X204919949Y-61459619D02*
X204919949Y-60459619D01*
X197157330Y-42679619D02*
X197776377Y-42679619D01*
X197776377Y-42679619D02*
X197443044Y-43060571D01*
X197443044Y-43060571D02*
X197585901Y-43060571D01*
X197585901Y-43060571D02*
X197681139Y-43108190D01*
X197681139Y-43108190D02*
X197728758Y-43155809D01*
X197728758Y-43155809D02*
X197776377Y-43251047D01*
X197776377Y-43251047D02*
X197776377Y-43489142D01*
X197776377Y-43489142D02*
X197728758Y-43584380D01*
X197728758Y-43584380D02*
X197681139Y-43632000D01*
X197681139Y-43632000D02*
X197585901Y-43679619D01*
X197585901Y-43679619D02*
X197300187Y-43679619D01*
X197300187Y-43679619D02*
X197204949Y-43632000D01*
X197204949Y-43632000D02*
X197157330Y-43584380D01*
X198204949Y-43584380D02*
X198252568Y-43632000D01*
X198252568Y-43632000D02*
X198204949Y-43679619D01*
X198204949Y-43679619D02*
X198157330Y-43632000D01*
X198157330Y-43632000D02*
X198204949Y-43584380D01*
X198204949Y-43584380D02*
X198204949Y-43679619D01*
X198585901Y-42679619D02*
X199204948Y-42679619D01*
X199204948Y-42679619D02*
X198871615Y-43060571D01*
X198871615Y-43060571D02*
X199014472Y-43060571D01*
X199014472Y-43060571D02*
X199109710Y-43108190D01*
X199109710Y-43108190D02*
X199157329Y-43155809D01*
X199157329Y-43155809D02*
X199204948Y-43251047D01*
X199204948Y-43251047D02*
X199204948Y-43489142D01*
X199204948Y-43489142D02*
X199157329Y-43584380D01*
X199157329Y-43584380D02*
X199109710Y-43632000D01*
X199109710Y-43632000D02*
X199014472Y-43679619D01*
X199014472Y-43679619D02*
X198728758Y-43679619D01*
X198728758Y-43679619D02*
X198633520Y-43632000D01*
X198633520Y-43632000D02*
X198585901Y-43584380D01*
X199490663Y-42679619D02*
X199823996Y-43679619D01*
X199823996Y-43679619D02*
X200157329Y-42679619D01*
X210476377Y-42727238D02*
X210381139Y-42679619D01*
X210381139Y-42679619D02*
X210238282Y-42679619D01*
X210238282Y-42679619D02*
X210095425Y-42727238D01*
X210095425Y-42727238D02*
X210000187Y-42822476D01*
X210000187Y-42822476D02*
X209952568Y-42917714D01*
X209952568Y-42917714D02*
X209904949Y-43108190D01*
X209904949Y-43108190D02*
X209904949Y-43251047D01*
X209904949Y-43251047D02*
X209952568Y-43441523D01*
X209952568Y-43441523D02*
X210000187Y-43536761D01*
X210000187Y-43536761D02*
X210095425Y-43632000D01*
X210095425Y-43632000D02*
X210238282Y-43679619D01*
X210238282Y-43679619D02*
X210333520Y-43679619D01*
X210333520Y-43679619D02*
X210476377Y-43632000D01*
X210476377Y-43632000D02*
X210523996Y-43584380D01*
X210523996Y-43584380D02*
X210523996Y-43251047D01*
X210523996Y-43251047D02*
X210333520Y-43251047D01*
X210952568Y-43679619D02*
X210952568Y-42679619D01*
X210952568Y-42679619D02*
X211523996Y-43679619D01*
X211523996Y-43679619D02*
X211523996Y-42679619D01*
X212000187Y-43679619D02*
X212000187Y-42679619D01*
X212000187Y-42679619D02*
X212238282Y-42679619D01*
X212238282Y-42679619D02*
X212381139Y-42727238D01*
X212381139Y-42727238D02*
X212476377Y-42822476D01*
X212476377Y-42822476D02*
X212523996Y-42917714D01*
X212523996Y-42917714D02*
X212571615Y-43108190D01*
X212571615Y-43108190D02*
X212571615Y-43251047D01*
X212571615Y-43251047D02*
X212523996Y-43441523D01*
X212523996Y-43441523D02*
X212476377Y-43536761D01*
X212476377Y-43536761D02*
X212381139Y-43632000D01*
X212381139Y-43632000D02*
X212238282Y-43679619D01*
X212238282Y-43679619D02*
X212000187Y-43679619D01*
X209904949Y-38552000D02*
X210047806Y-38599619D01*
X210047806Y-38599619D02*
X210285901Y-38599619D01*
X210285901Y-38599619D02*
X210381139Y-38552000D01*
X210381139Y-38552000D02*
X210428758Y-38504380D01*
X210428758Y-38504380D02*
X210476377Y-38409142D01*
X210476377Y-38409142D02*
X210476377Y-38313904D01*
X210476377Y-38313904D02*
X210428758Y-38218666D01*
X210428758Y-38218666D02*
X210381139Y-38171047D01*
X210381139Y-38171047D02*
X210285901Y-38123428D01*
X210285901Y-38123428D02*
X210095425Y-38075809D01*
X210095425Y-38075809D02*
X210000187Y-38028190D01*
X210000187Y-38028190D02*
X209952568Y-37980571D01*
X209952568Y-37980571D02*
X209904949Y-37885333D01*
X209904949Y-37885333D02*
X209904949Y-37790095D01*
X209904949Y-37790095D02*
X209952568Y-37694857D01*
X209952568Y-37694857D02*
X210000187Y-37647238D01*
X210000187Y-37647238D02*
X210095425Y-37599619D01*
X210095425Y-37599619D02*
X210333520Y-37599619D01*
X210333520Y-37599619D02*
X210476377Y-37647238D01*
X211476377Y-38504380D02*
X211428758Y-38552000D01*
X211428758Y-38552000D02*
X211285901Y-38599619D01*
X211285901Y-38599619D02*
X211190663Y-38599619D01*
X211190663Y-38599619D02*
X211047806Y-38552000D01*
X211047806Y-38552000D02*
X210952568Y-38456761D01*
X210952568Y-38456761D02*
X210904949Y-38361523D01*
X210904949Y-38361523D02*
X210857330Y-38171047D01*
X210857330Y-38171047D02*
X210857330Y-38028190D01*
X210857330Y-38028190D02*
X210904949Y-37837714D01*
X210904949Y-37837714D02*
X210952568Y-37742476D01*
X210952568Y-37742476D02*
X211047806Y-37647238D01*
X211047806Y-37647238D02*
X211190663Y-37599619D01*
X211190663Y-37599619D02*
X211285901Y-37599619D01*
X211285901Y-37599619D02*
X211428758Y-37647238D01*
X211428758Y-37647238D02*
X211476377Y-37694857D01*
X212381139Y-38599619D02*
X211904949Y-38599619D01*
X211904949Y-38599619D02*
X211904949Y-37599619D01*
X197839949Y-36012000D02*
X197982806Y-36059619D01*
X197982806Y-36059619D02*
X198220901Y-36059619D01*
X198220901Y-36059619D02*
X198316139Y-36012000D01*
X198316139Y-36012000D02*
X198363758Y-35964380D01*
X198363758Y-35964380D02*
X198411377Y-35869142D01*
X198411377Y-35869142D02*
X198411377Y-35773904D01*
X198411377Y-35773904D02*
X198363758Y-35678666D01*
X198363758Y-35678666D02*
X198316139Y-35631047D01*
X198316139Y-35631047D02*
X198220901Y-35583428D01*
X198220901Y-35583428D02*
X198030425Y-35535809D01*
X198030425Y-35535809D02*
X197935187Y-35488190D01*
X197935187Y-35488190D02*
X197887568Y-35440571D01*
X197887568Y-35440571D02*
X197839949Y-35345333D01*
X197839949Y-35345333D02*
X197839949Y-35250095D01*
X197839949Y-35250095D02*
X197887568Y-35154857D01*
X197887568Y-35154857D02*
X197935187Y-35107238D01*
X197935187Y-35107238D02*
X198030425Y-35059619D01*
X198030425Y-35059619D02*
X198268520Y-35059619D01*
X198268520Y-35059619D02*
X198411377Y-35107238D01*
X198839949Y-36059619D02*
X198839949Y-35059619D01*
X198839949Y-35059619D02*
X199078044Y-35059619D01*
X199078044Y-35059619D02*
X199220901Y-35107238D01*
X199220901Y-35107238D02*
X199316139Y-35202476D01*
X199316139Y-35202476D02*
X199363758Y-35297714D01*
X199363758Y-35297714D02*
X199411377Y-35488190D01*
X199411377Y-35488190D02*
X199411377Y-35631047D01*
X199411377Y-35631047D02*
X199363758Y-35821523D01*
X199363758Y-35821523D02*
X199316139Y-35916761D01*
X199316139Y-35916761D02*
X199220901Y-36012000D01*
X199220901Y-36012000D02*
X199078044Y-36059619D01*
X199078044Y-36059619D02*
X198839949Y-36059619D01*
X199792330Y-35773904D02*
X200268520Y-35773904D01*
X199697092Y-36059619D02*
X200030425Y-35059619D01*
X200030425Y-35059619D02*
X200363758Y-36059619D01*
X209857330Y-40139619D02*
X210476377Y-40139619D01*
X210476377Y-40139619D02*
X210143044Y-40520571D01*
X210143044Y-40520571D02*
X210285901Y-40520571D01*
X210285901Y-40520571D02*
X210381139Y-40568190D01*
X210381139Y-40568190D02*
X210428758Y-40615809D01*
X210428758Y-40615809D02*
X210476377Y-40711047D01*
X210476377Y-40711047D02*
X210476377Y-40949142D01*
X210476377Y-40949142D02*
X210428758Y-41044380D01*
X210428758Y-41044380D02*
X210381139Y-41092000D01*
X210381139Y-41092000D02*
X210285901Y-41139619D01*
X210285901Y-41139619D02*
X210000187Y-41139619D01*
X210000187Y-41139619D02*
X209904949Y-41092000D01*
X209904949Y-41092000D02*
X209857330Y-41044380D01*
X210904949Y-41044380D02*
X210952568Y-41092000D01*
X210952568Y-41092000D02*
X210904949Y-41139619D01*
X210904949Y-41139619D02*
X210857330Y-41092000D01*
X210857330Y-41092000D02*
X210904949Y-41044380D01*
X210904949Y-41044380D02*
X210904949Y-41139619D01*
X211285901Y-40139619D02*
X211904948Y-40139619D01*
X211904948Y-40139619D02*
X211571615Y-40520571D01*
X211571615Y-40520571D02*
X211714472Y-40520571D01*
X211714472Y-40520571D02*
X211809710Y-40568190D01*
X211809710Y-40568190D02*
X211857329Y-40615809D01*
X211857329Y-40615809D02*
X211904948Y-40711047D01*
X211904948Y-40711047D02*
X211904948Y-40949142D01*
X211904948Y-40949142D02*
X211857329Y-41044380D01*
X211857329Y-41044380D02*
X211809710Y-41092000D01*
X211809710Y-41092000D02*
X211714472Y-41139619D01*
X211714472Y-41139619D02*
X211428758Y-41139619D01*
X211428758Y-41139619D02*
X211333520Y-41092000D01*
X211333520Y-41092000D02*
X211285901Y-41044380D01*
X212190663Y-40139619D02*
X212523996Y-41139619D01*
X212523996Y-41139619D02*
X212857329Y-40139619D01*
D10*
X216259580Y-57316666D02*
X216307200Y-57364285D01*
X216307200Y-57364285D02*
X216354819Y-57507142D01*
X216354819Y-57507142D02*
X216354819Y-57602380D01*
X216354819Y-57602380D02*
X216307200Y-57745237D01*
X216307200Y-57745237D02*
X216211961Y-57840475D01*
X216211961Y-57840475D02*
X216116723Y-57888094D01*
X216116723Y-57888094D02*
X215926247Y-57935713D01*
X215926247Y-57935713D02*
X215783390Y-57935713D01*
X215783390Y-57935713D02*
X215592914Y-57888094D01*
X215592914Y-57888094D02*
X215497676Y-57840475D01*
X215497676Y-57840475D02*
X215402438Y-57745237D01*
X215402438Y-57745237D02*
X215354819Y-57602380D01*
X215354819Y-57602380D02*
X215354819Y-57507142D01*
X215354819Y-57507142D02*
X215402438Y-57364285D01*
X215402438Y-57364285D02*
X215450057Y-57316666D01*
X215354819Y-56411904D02*
X215354819Y-56888094D01*
X215354819Y-56888094D02*
X215831009Y-56935713D01*
X215831009Y-56935713D02*
X215783390Y-56888094D01*
X215783390Y-56888094D02*
X215735771Y-56792856D01*
X215735771Y-56792856D02*
X215735771Y-56554761D01*
X215735771Y-56554761D02*
X215783390Y-56459523D01*
X215783390Y-56459523D02*
X215831009Y-56411904D01*
X215831009Y-56411904D02*
X215926247Y-56364285D01*
X215926247Y-56364285D02*
X216164342Y-56364285D01*
X216164342Y-56364285D02*
X216259580Y-56411904D01*
X216259580Y-56411904D02*
X216307200Y-56459523D01*
X216307200Y-56459523D02*
X216354819Y-56554761D01*
X216354819Y-56554761D02*
X216354819Y-56792856D01*
X216354819Y-56792856D02*
X216307200Y-56888094D01*
X216307200Y-56888094D02*
X216259580Y-56935713D01*
X200439580Y-48426666D02*
X200487200Y-48474285D01*
X200487200Y-48474285D02*
X200534819Y-48617142D01*
X200534819Y-48617142D02*
X200534819Y-48712380D01*
X200534819Y-48712380D02*
X200487200Y-48855237D01*
X200487200Y-48855237D02*
X200391961Y-48950475D01*
X200391961Y-48950475D02*
X200296723Y-48998094D01*
X200296723Y-48998094D02*
X200106247Y-49045713D01*
X200106247Y-49045713D02*
X199963390Y-49045713D01*
X199963390Y-49045713D02*
X199772914Y-48998094D01*
X199772914Y-48998094D02*
X199677676Y-48950475D01*
X199677676Y-48950475D02*
X199582438Y-48855237D01*
X199582438Y-48855237D02*
X199534819Y-48712380D01*
X199534819Y-48712380D02*
X199534819Y-48617142D01*
X199534819Y-48617142D02*
X199582438Y-48474285D01*
X199582438Y-48474285D02*
X199630057Y-48426666D01*
X199868152Y-47569523D02*
X200534819Y-47569523D01*
X199487200Y-47807618D02*
X200201485Y-48045713D01*
X200201485Y-48045713D02*
X200201485Y-47426666D01*
X204771666Y-65484819D02*
X204771666Y-66199104D01*
X204771666Y-66199104D02*
X204724047Y-66341961D01*
X204724047Y-66341961D02*
X204628809Y-66437200D01*
X204628809Y-66437200D02*
X204485952Y-66484819D01*
X204485952Y-66484819D02*
X204390714Y-66484819D01*
X205200238Y-65580057D02*
X205247857Y-65532438D01*
X205247857Y-65532438D02*
X205343095Y-65484819D01*
X205343095Y-65484819D02*
X205581190Y-65484819D01*
X205581190Y-65484819D02*
X205676428Y-65532438D01*
X205676428Y-65532438D02*
X205724047Y-65580057D01*
X205724047Y-65580057D02*
X205771666Y-65675295D01*
X205771666Y-65675295D02*
X205771666Y-65770533D01*
X205771666Y-65770533D02*
X205724047Y-65913390D01*
X205724047Y-65913390D02*
X205152619Y-66484819D01*
X205152619Y-66484819D02*
X205771666Y-66484819D01*
X194409762Y-62161009D02*
X194743095Y-62161009D01*
X194885952Y-62684819D02*
X194409762Y-62684819D01*
X194409762Y-62684819D02*
X194409762Y-61684819D01*
X194409762Y-61684819D02*
X194885952Y-61684819D01*
X195266905Y-62637200D02*
X195409762Y-62684819D01*
X195409762Y-62684819D02*
X195647857Y-62684819D01*
X195647857Y-62684819D02*
X195743095Y-62637200D01*
X195743095Y-62637200D02*
X195790714Y-62589580D01*
X195790714Y-62589580D02*
X195838333Y-62494342D01*
X195838333Y-62494342D02*
X195838333Y-62399104D01*
X195838333Y-62399104D02*
X195790714Y-62303866D01*
X195790714Y-62303866D02*
X195743095Y-62256247D01*
X195743095Y-62256247D02*
X195647857Y-62208628D01*
X195647857Y-62208628D02*
X195457381Y-62161009D01*
X195457381Y-62161009D02*
X195362143Y-62113390D01*
X195362143Y-62113390D02*
X195314524Y-62065771D01*
X195314524Y-62065771D02*
X195266905Y-61970533D01*
X195266905Y-61970533D02*
X195266905Y-61875295D01*
X195266905Y-61875295D02*
X195314524Y-61780057D01*
X195314524Y-61780057D02*
X195362143Y-61732438D01*
X195362143Y-61732438D02*
X195457381Y-61684819D01*
X195457381Y-61684819D02*
X195695476Y-61684819D01*
X195695476Y-61684819D02*
X195838333Y-61732438D01*
X196266905Y-62684819D02*
X196266905Y-61684819D01*
X196266905Y-61684819D02*
X196647857Y-61684819D01*
X196647857Y-61684819D02*
X196743095Y-61732438D01*
X196743095Y-61732438D02*
X196790714Y-61780057D01*
X196790714Y-61780057D02*
X196838333Y-61875295D01*
X196838333Y-61875295D02*
X196838333Y-62018152D01*
X196838333Y-62018152D02*
X196790714Y-62113390D01*
X196790714Y-62113390D02*
X196743095Y-62161009D01*
X196743095Y-62161009D02*
X196647857Y-62208628D01*
X196647857Y-62208628D02*
X196266905Y-62208628D01*
X197409762Y-62113390D02*
X197314524Y-62065771D01*
X197314524Y-62065771D02*
X197266905Y-62018152D01*
X197266905Y-62018152D02*
X197219286Y-61922914D01*
X197219286Y-61922914D02*
X197219286Y-61875295D01*
X197219286Y-61875295D02*
X197266905Y-61780057D01*
X197266905Y-61780057D02*
X197314524Y-61732438D01*
X197314524Y-61732438D02*
X197409762Y-61684819D01*
X197409762Y-61684819D02*
X197600238Y-61684819D01*
X197600238Y-61684819D02*
X197695476Y-61732438D01*
X197695476Y-61732438D02*
X197743095Y-61780057D01*
X197743095Y-61780057D02*
X197790714Y-61875295D01*
X197790714Y-61875295D02*
X197790714Y-61922914D01*
X197790714Y-61922914D02*
X197743095Y-62018152D01*
X197743095Y-62018152D02*
X197695476Y-62065771D01*
X197695476Y-62065771D02*
X197600238Y-62113390D01*
X197600238Y-62113390D02*
X197409762Y-62113390D01*
X197409762Y-62113390D02*
X197314524Y-62161009D01*
X197314524Y-62161009D02*
X197266905Y-62208628D01*
X197266905Y-62208628D02*
X197219286Y-62303866D01*
X197219286Y-62303866D02*
X197219286Y-62494342D01*
X197219286Y-62494342D02*
X197266905Y-62589580D01*
X197266905Y-62589580D02*
X197314524Y-62637200D01*
X197314524Y-62637200D02*
X197409762Y-62684819D01*
X197409762Y-62684819D02*
X197600238Y-62684819D01*
X197600238Y-62684819D02*
X197695476Y-62637200D01*
X197695476Y-62637200D02*
X197743095Y-62589580D01*
X197743095Y-62589580D02*
X197790714Y-62494342D01*
X197790714Y-62494342D02*
X197790714Y-62303866D01*
X197790714Y-62303866D02*
X197743095Y-62208628D01*
X197743095Y-62208628D02*
X197695476Y-62161009D01*
X197695476Y-62161009D02*
X197600238Y-62113390D01*
X198171667Y-61780057D02*
X198219286Y-61732438D01*
X198219286Y-61732438D02*
X198314524Y-61684819D01*
X198314524Y-61684819D02*
X198552619Y-61684819D01*
X198552619Y-61684819D02*
X198647857Y-61732438D01*
X198647857Y-61732438D02*
X198695476Y-61780057D01*
X198695476Y-61780057D02*
X198743095Y-61875295D01*
X198743095Y-61875295D02*
X198743095Y-61970533D01*
X198743095Y-61970533D02*
X198695476Y-62113390D01*
X198695476Y-62113390D02*
X198124048Y-62684819D01*
X198124048Y-62684819D02*
X198743095Y-62684819D01*
X199600238Y-61684819D02*
X199409762Y-61684819D01*
X199409762Y-61684819D02*
X199314524Y-61732438D01*
X199314524Y-61732438D02*
X199266905Y-61780057D01*
X199266905Y-61780057D02*
X199171667Y-61922914D01*
X199171667Y-61922914D02*
X199124048Y-62113390D01*
X199124048Y-62113390D02*
X199124048Y-62494342D01*
X199124048Y-62494342D02*
X199171667Y-62589580D01*
X199171667Y-62589580D02*
X199219286Y-62637200D01*
X199219286Y-62637200D02*
X199314524Y-62684819D01*
X199314524Y-62684819D02*
X199505000Y-62684819D01*
X199505000Y-62684819D02*
X199600238Y-62637200D01*
X199600238Y-62637200D02*
X199647857Y-62589580D01*
X199647857Y-62589580D02*
X199695476Y-62494342D01*
X199695476Y-62494342D02*
X199695476Y-62256247D01*
X199695476Y-62256247D02*
X199647857Y-62161009D01*
X199647857Y-62161009D02*
X199600238Y-62113390D01*
X199600238Y-62113390D02*
X199505000Y-62065771D01*
X199505000Y-62065771D02*
X199314524Y-62065771D01*
X199314524Y-62065771D02*
X199219286Y-62113390D01*
X199219286Y-62113390D02*
X199171667Y-62161009D01*
X199171667Y-62161009D02*
X199124048Y-62256247D01*
X200552619Y-61684819D02*
X200362143Y-61684819D01*
X200362143Y-61684819D02*
X200266905Y-61732438D01*
X200266905Y-61732438D02*
X200219286Y-61780057D01*
X200219286Y-61780057D02*
X200124048Y-61922914D01*
X200124048Y-61922914D02*
X200076429Y-62113390D01*
X200076429Y-62113390D02*
X200076429Y-62494342D01*
X200076429Y-62494342D02*
X200124048Y-62589580D01*
X200124048Y-62589580D02*
X200171667Y-62637200D01*
X200171667Y-62637200D02*
X200266905Y-62684819D01*
X200266905Y-62684819D02*
X200457381Y-62684819D01*
X200457381Y-62684819D02*
X200552619Y-62637200D01*
X200552619Y-62637200D02*
X200600238Y-62589580D01*
X200600238Y-62589580D02*
X200647857Y-62494342D01*
X200647857Y-62494342D02*
X200647857Y-62256247D01*
X200647857Y-62256247D02*
X200600238Y-62161009D01*
X200600238Y-62161009D02*
X200552619Y-62113390D01*
X200552619Y-62113390D02*
X200457381Y-62065771D01*
X200457381Y-62065771D02*
X200266905Y-62065771D01*
X200266905Y-62065771D02*
X200171667Y-62113390D01*
X200171667Y-62113390D02*
X200124048Y-62161009D01*
X200124048Y-62161009D02*
X200076429Y-62256247D01*
X210486666Y-44539819D02*
X210486666Y-45254104D01*
X210486666Y-45254104D02*
X210439047Y-45396961D01*
X210439047Y-45396961D02*
X210343809Y-45492200D01*
X210343809Y-45492200D02*
X210200952Y-45539819D01*
X210200952Y-45539819D02*
X210105714Y-45539819D01*
X211439047Y-44539819D02*
X210962857Y-44539819D01*
X210962857Y-44539819D02*
X210915238Y-45016009D01*
X210915238Y-45016009D02*
X210962857Y-44968390D01*
X210962857Y-44968390D02*
X211058095Y-44920771D01*
X211058095Y-44920771D02*
X211296190Y-44920771D01*
X211296190Y-44920771D02*
X211391428Y-44968390D01*
X211391428Y-44968390D02*
X211439047Y-45016009D01*
X211439047Y-45016009D02*
X211486666Y-45111247D01*
X211486666Y-45111247D02*
X211486666Y-45349342D01*
X211486666Y-45349342D02*
X211439047Y-45444580D01*
X211439047Y-45444580D02*
X211391428Y-45492200D01*
X211391428Y-45492200D02*
X211296190Y-45539819D01*
X211296190Y-45539819D02*
X211058095Y-45539819D01*
X211058095Y-45539819D02*
X210962857Y-45492200D01*
X210962857Y-45492200D02*
X210915238Y-45444580D01*
X205827619Y-33244819D02*
X205827619Y-32244819D01*
X205827619Y-32244819D02*
X206065714Y-32244819D01*
X206065714Y-32244819D02*
X206208571Y-32292438D01*
X206208571Y-32292438D02*
X206303809Y-32387676D01*
X206303809Y-32387676D02*
X206351428Y-32482914D01*
X206351428Y-32482914D02*
X206399047Y-32673390D01*
X206399047Y-32673390D02*
X206399047Y-32816247D01*
X206399047Y-32816247D02*
X206351428Y-33006723D01*
X206351428Y-33006723D02*
X206303809Y-33101961D01*
X206303809Y-33101961D02*
X206208571Y-33197200D01*
X206208571Y-33197200D02*
X206065714Y-33244819D01*
X206065714Y-33244819D02*
X205827619Y-33244819D01*
X206827619Y-33244819D02*
X206827619Y-32578152D01*
X206827619Y-32244819D02*
X206780000Y-32292438D01*
X206780000Y-32292438D02*
X206827619Y-32340057D01*
X206827619Y-32340057D02*
X206875238Y-32292438D01*
X206875238Y-32292438D02*
X206827619Y-32244819D01*
X206827619Y-32244819D02*
X206827619Y-32340057D01*
X207256190Y-33197200D02*
X207351428Y-33244819D01*
X207351428Y-33244819D02*
X207541904Y-33244819D01*
X207541904Y-33244819D02*
X207637142Y-33197200D01*
X207637142Y-33197200D02*
X207684761Y-33101961D01*
X207684761Y-33101961D02*
X207684761Y-33054342D01*
X207684761Y-33054342D02*
X207637142Y-32959104D01*
X207637142Y-32959104D02*
X207541904Y-32911485D01*
X207541904Y-32911485D02*
X207399047Y-32911485D01*
X207399047Y-32911485D02*
X207303809Y-32863866D01*
X207303809Y-32863866D02*
X207256190Y-32768628D01*
X207256190Y-32768628D02*
X207256190Y-32721009D01*
X207256190Y-32721009D02*
X207303809Y-32625771D01*
X207303809Y-32625771D02*
X207399047Y-32578152D01*
X207399047Y-32578152D02*
X207541904Y-32578152D01*
X207541904Y-32578152D02*
X207637142Y-32625771D01*
X208113333Y-32578152D02*
X208113333Y-33578152D01*
X208113333Y-32625771D02*
X208208571Y-32578152D01*
X208208571Y-32578152D02*
X208399047Y-32578152D01*
X208399047Y-32578152D02*
X208494285Y-32625771D01*
X208494285Y-32625771D02*
X208541904Y-32673390D01*
X208541904Y-32673390D02*
X208589523Y-32768628D01*
X208589523Y-32768628D02*
X208589523Y-33054342D01*
X208589523Y-33054342D02*
X208541904Y-33149580D01*
X208541904Y-33149580D02*
X208494285Y-33197200D01*
X208494285Y-33197200D02*
X208399047Y-33244819D01*
X208399047Y-33244819D02*
X208208571Y-33244819D01*
X208208571Y-33244819D02*
X208113333Y-33197200D01*
X209160952Y-33244819D02*
X209065714Y-33197200D01*
X209065714Y-33197200D02*
X209018095Y-33101961D01*
X209018095Y-33101961D02*
X209018095Y-32244819D01*
X209970476Y-33244819D02*
X209970476Y-32721009D01*
X209970476Y-32721009D02*
X209922857Y-32625771D01*
X209922857Y-32625771D02*
X209827619Y-32578152D01*
X209827619Y-32578152D02*
X209637143Y-32578152D01*
X209637143Y-32578152D02*
X209541905Y-32625771D01*
X209970476Y-33197200D02*
X209875238Y-33244819D01*
X209875238Y-33244819D02*
X209637143Y-33244819D01*
X209637143Y-33244819D02*
X209541905Y-33197200D01*
X209541905Y-33197200D02*
X209494286Y-33101961D01*
X209494286Y-33101961D02*
X209494286Y-33006723D01*
X209494286Y-33006723D02*
X209541905Y-32911485D01*
X209541905Y-32911485D02*
X209637143Y-32863866D01*
X209637143Y-32863866D02*
X209875238Y-32863866D01*
X209875238Y-32863866D02*
X209970476Y-32816247D01*
X210351429Y-32578152D02*
X210589524Y-33244819D01*
X210827619Y-32578152D02*
X210589524Y-33244819D01*
X210589524Y-33244819D02*
X210494286Y-33482914D01*
X210494286Y-33482914D02*
X210446667Y-33530533D01*
X210446667Y-33530533D02*
X210351429Y-33578152D01*
X215773095Y-48674819D02*
X215773095Y-49484342D01*
X215773095Y-49484342D02*
X215820714Y-49579580D01*
X215820714Y-49579580D02*
X215868333Y-49627200D01*
X215868333Y-49627200D02*
X215963571Y-49674819D01*
X215963571Y-49674819D02*
X216154047Y-49674819D01*
X216154047Y-49674819D02*
X216249285Y-49627200D01*
X216249285Y-49627200D02*
X216296904Y-49579580D01*
X216296904Y-49579580D02*
X216344523Y-49484342D01*
X216344523Y-49484342D02*
X216344523Y-48674819D01*
X216773095Y-48770057D02*
X216820714Y-48722438D01*
X216820714Y-48722438D02*
X216915952Y-48674819D01*
X216915952Y-48674819D02*
X217154047Y-48674819D01*
X217154047Y-48674819D02*
X217249285Y-48722438D01*
X217249285Y-48722438D02*
X217296904Y-48770057D01*
X217296904Y-48770057D02*
X217344523Y-48865295D01*
X217344523Y-48865295D02*
X217344523Y-48960533D01*
X217344523Y-48960533D02*
X217296904Y-49103390D01*
X217296904Y-49103390D02*
X216725476Y-49674819D01*
X216725476Y-49674819D02*
X217344523Y-49674819D01*
X224218332Y-32207800D02*
X224075475Y-32160180D01*
X224075475Y-32160180D02*
X223837380Y-32160180D01*
X223837380Y-32160180D02*
X223742142Y-32207800D01*
X223742142Y-32207800D02*
X223694523Y-32255419D01*
X223694523Y-32255419D02*
X223646904Y-32350657D01*
X223646904Y-32350657D02*
X223646904Y-32445895D01*
X223646904Y-32445895D02*
X223694523Y-32541133D01*
X223694523Y-32541133D02*
X223742142Y-32588752D01*
X223742142Y-32588752D02*
X223837380Y-32636371D01*
X223837380Y-32636371D02*
X224027856Y-32683990D01*
X224027856Y-32683990D02*
X224123094Y-32731609D01*
X224123094Y-32731609D02*
X224170713Y-32779228D01*
X224170713Y-32779228D02*
X224218332Y-32874466D01*
X224218332Y-32874466D02*
X224218332Y-32969704D01*
X224218332Y-32969704D02*
X224170713Y-33064942D01*
X224170713Y-33064942D02*
X224123094Y-33112561D01*
X224123094Y-33112561D02*
X224027856Y-33160180D01*
X224027856Y-33160180D02*
X223789761Y-33160180D01*
X223789761Y-33160180D02*
X223646904Y-33112561D01*
X223313570Y-33160180D02*
X223075475Y-32160180D01*
X223075475Y-32160180D02*
X222884999Y-32874466D01*
X222884999Y-32874466D02*
X222694523Y-32160180D01*
X222694523Y-32160180D02*
X222456428Y-33160180D01*
X221551666Y-32160180D02*
X222123094Y-32160180D01*
X221837380Y-32160180D02*
X221837380Y-33160180D01*
X221837380Y-33160180D02*
X221932618Y-33017323D01*
X221932618Y-33017323D02*
X222027856Y-32922085D01*
X222027856Y-32922085D02*
X222123094Y-32874466D01*
X220169580Y-42281666D02*
X220217200Y-42329285D01*
X220217200Y-42329285D02*
X220264819Y-42472142D01*
X220264819Y-42472142D02*
X220264819Y-42567380D01*
X220264819Y-42567380D02*
X220217200Y-42710237D01*
X220217200Y-42710237D02*
X220121961Y-42805475D01*
X220121961Y-42805475D02*
X220026723Y-42853094D01*
X220026723Y-42853094D02*
X219836247Y-42900713D01*
X219836247Y-42900713D02*
X219693390Y-42900713D01*
X219693390Y-42900713D02*
X219502914Y-42853094D01*
X219502914Y-42853094D02*
X219407676Y-42805475D01*
X219407676Y-42805475D02*
X219312438Y-42710237D01*
X219312438Y-42710237D02*
X219264819Y-42567380D01*
X219264819Y-42567380D02*
X219264819Y-42472142D01*
X219264819Y-42472142D02*
X219312438Y-42329285D01*
X219312438Y-42329285D02*
X219360057Y-42281666D01*
X220264819Y-41329285D02*
X220264819Y-41900713D01*
X220264819Y-41614999D02*
X219264819Y-41614999D01*
X219264819Y-41614999D02*
X219407676Y-41710237D01*
X219407676Y-41710237D02*
X219502914Y-41805475D01*
X219502914Y-41805475D02*
X219550533Y-41900713D01*
X210489580Y-48426666D02*
X210537200Y-48474285D01*
X210537200Y-48474285D02*
X210584819Y-48617142D01*
X210584819Y-48617142D02*
X210584819Y-48712380D01*
X210584819Y-48712380D02*
X210537200Y-48855237D01*
X210537200Y-48855237D02*
X210441961Y-48950475D01*
X210441961Y-48950475D02*
X210346723Y-48998094D01*
X210346723Y-48998094D02*
X210156247Y-49045713D01*
X210156247Y-49045713D02*
X210013390Y-49045713D01*
X210013390Y-49045713D02*
X209822914Y-48998094D01*
X209822914Y-48998094D02*
X209727676Y-48950475D01*
X209727676Y-48950475D02*
X209632438Y-48855237D01*
X209632438Y-48855237D02*
X209584819Y-48712380D01*
X209584819Y-48712380D02*
X209584819Y-48617142D01*
X209584819Y-48617142D02*
X209632438Y-48474285D01*
X209632438Y-48474285D02*
X209680057Y-48426666D01*
X209584819Y-48093332D02*
X209584819Y-47474285D01*
X209584819Y-47474285D02*
X209965771Y-47807618D01*
X209965771Y-47807618D02*
X209965771Y-47664761D01*
X209965771Y-47664761D02*
X210013390Y-47569523D01*
X210013390Y-47569523D02*
X210061009Y-47521904D01*
X210061009Y-47521904D02*
X210156247Y-47474285D01*
X210156247Y-47474285D02*
X210394342Y-47474285D01*
X210394342Y-47474285D02*
X210489580Y-47521904D01*
X210489580Y-47521904D02*
X210537200Y-47569523D01*
X210537200Y-47569523D02*
X210584819Y-47664761D01*
X210584819Y-47664761D02*
X210584819Y-47950475D01*
X210584819Y-47950475D02*
X210537200Y-48045713D01*
X210537200Y-48045713D02*
X210489580Y-48093332D01*
X199056666Y-44539819D02*
X199056666Y-45254104D01*
X199056666Y-45254104D02*
X199009047Y-45396961D01*
X199009047Y-45396961D02*
X198913809Y-45492200D01*
X198913809Y-45492200D02*
X198770952Y-45539819D01*
X198770952Y-45539819D02*
X198675714Y-45539819D01*
X199437619Y-44539819D02*
X200056666Y-44539819D01*
X200056666Y-44539819D02*
X199723333Y-44920771D01*
X199723333Y-44920771D02*
X199866190Y-44920771D01*
X199866190Y-44920771D02*
X199961428Y-44968390D01*
X199961428Y-44968390D02*
X200009047Y-45016009D01*
X200009047Y-45016009D02*
X200056666Y-45111247D01*
X200056666Y-45111247D02*
X200056666Y-45349342D01*
X200056666Y-45349342D02*
X200009047Y-45444580D01*
X200009047Y-45444580D02*
X199961428Y-45492200D01*
X199961428Y-45492200D02*
X199866190Y-45539819D01*
X199866190Y-45539819D02*
X199580476Y-45539819D01*
X199580476Y-45539819D02*
X199485238Y-45492200D01*
X199485238Y-45492200D02*
X199437619Y-45444580D01*
X193127857Y-28029819D02*
X193699285Y-28029819D01*
X193413571Y-29029819D02*
X193413571Y-28029819D01*
X194413571Y-28982200D02*
X194318333Y-29029819D01*
X194318333Y-29029819D02*
X194127857Y-29029819D01*
X194127857Y-29029819D02*
X194032619Y-28982200D01*
X194032619Y-28982200D02*
X193985000Y-28886961D01*
X193985000Y-28886961D02*
X193985000Y-28506009D01*
X193985000Y-28506009D02*
X194032619Y-28410771D01*
X194032619Y-28410771D02*
X194127857Y-28363152D01*
X194127857Y-28363152D02*
X194318333Y-28363152D01*
X194318333Y-28363152D02*
X194413571Y-28410771D01*
X194413571Y-28410771D02*
X194461190Y-28506009D01*
X194461190Y-28506009D02*
X194461190Y-28601247D01*
X194461190Y-28601247D02*
X193985000Y-28696485D01*
X194889762Y-29029819D02*
X194889762Y-28363152D01*
X194889762Y-28458390D02*
X194937381Y-28410771D01*
X194937381Y-28410771D02*
X195032619Y-28363152D01*
X195032619Y-28363152D02*
X195175476Y-28363152D01*
X195175476Y-28363152D02*
X195270714Y-28410771D01*
X195270714Y-28410771D02*
X195318333Y-28506009D01*
X195318333Y-28506009D02*
X195318333Y-29029819D01*
X195318333Y-28506009D02*
X195365952Y-28410771D01*
X195365952Y-28410771D02*
X195461190Y-28363152D01*
X195461190Y-28363152D02*
X195604047Y-28363152D01*
X195604047Y-28363152D02*
X195699286Y-28410771D01*
X195699286Y-28410771D02*
X195746905Y-28506009D01*
X195746905Y-28506009D02*
X195746905Y-29029819D01*
X196223095Y-28363152D02*
X196223095Y-29363152D01*
X196223095Y-28410771D02*
X196318333Y-28363152D01*
X196318333Y-28363152D02*
X196508809Y-28363152D01*
X196508809Y-28363152D02*
X196604047Y-28410771D01*
X196604047Y-28410771D02*
X196651666Y-28458390D01*
X196651666Y-28458390D02*
X196699285Y-28553628D01*
X196699285Y-28553628D02*
X196699285Y-28839342D01*
X196699285Y-28839342D02*
X196651666Y-28934580D01*
X196651666Y-28934580D02*
X196604047Y-28982200D01*
X196604047Y-28982200D02*
X196508809Y-29029819D01*
X196508809Y-29029819D02*
X196318333Y-29029819D01*
X196318333Y-29029819D02*
X196223095Y-28982200D01*
X197080238Y-28982200D02*
X197223095Y-29029819D01*
X197223095Y-29029819D02*
X197461190Y-29029819D01*
X197461190Y-29029819D02*
X197556428Y-28982200D01*
X197556428Y-28982200D02*
X197604047Y-28934580D01*
X197604047Y-28934580D02*
X197651666Y-28839342D01*
X197651666Y-28839342D02*
X197651666Y-28744104D01*
X197651666Y-28744104D02*
X197604047Y-28648866D01*
X197604047Y-28648866D02*
X197556428Y-28601247D01*
X197556428Y-28601247D02*
X197461190Y-28553628D01*
X197461190Y-28553628D02*
X197270714Y-28506009D01*
X197270714Y-28506009D02*
X197175476Y-28458390D01*
X197175476Y-28458390D02*
X197127857Y-28410771D01*
X197127857Y-28410771D02*
X197080238Y-28315533D01*
X197080238Y-28315533D02*
X197080238Y-28220295D01*
X197080238Y-28220295D02*
X197127857Y-28125057D01*
X197127857Y-28125057D02*
X197175476Y-28077438D01*
X197175476Y-28077438D02*
X197270714Y-28029819D01*
X197270714Y-28029819D02*
X197508809Y-28029819D01*
X197508809Y-28029819D02*
X197651666Y-28077438D01*
X198461190Y-28982200D02*
X198365952Y-29029819D01*
X198365952Y-29029819D02*
X198175476Y-29029819D01*
X198175476Y-29029819D02*
X198080238Y-28982200D01*
X198080238Y-28982200D02*
X198032619Y-28886961D01*
X198032619Y-28886961D02*
X198032619Y-28506009D01*
X198032619Y-28506009D02*
X198080238Y-28410771D01*
X198080238Y-28410771D02*
X198175476Y-28363152D01*
X198175476Y-28363152D02*
X198365952Y-28363152D01*
X198365952Y-28363152D02*
X198461190Y-28410771D01*
X198461190Y-28410771D02*
X198508809Y-28506009D01*
X198508809Y-28506009D02*
X198508809Y-28601247D01*
X198508809Y-28601247D02*
X198032619Y-28696485D01*
X198937381Y-28363152D02*
X198937381Y-29029819D01*
X198937381Y-28458390D02*
X198985000Y-28410771D01*
X198985000Y-28410771D02*
X199080238Y-28363152D01*
X199080238Y-28363152D02*
X199223095Y-28363152D01*
X199223095Y-28363152D02*
X199318333Y-28410771D01*
X199318333Y-28410771D02*
X199365952Y-28506009D01*
X199365952Y-28506009D02*
X199365952Y-29029819D01*
X199794524Y-28982200D02*
X199889762Y-29029819D01*
X199889762Y-29029819D02*
X200080238Y-29029819D01*
X200080238Y-29029819D02*
X200175476Y-28982200D01*
X200175476Y-28982200D02*
X200223095Y-28886961D01*
X200223095Y-28886961D02*
X200223095Y-28839342D01*
X200223095Y-28839342D02*
X200175476Y-28744104D01*
X200175476Y-28744104D02*
X200080238Y-28696485D01*
X200080238Y-28696485D02*
X199937381Y-28696485D01*
X199937381Y-28696485D02*
X199842143Y-28648866D01*
X199842143Y-28648866D02*
X199794524Y-28553628D01*
X199794524Y-28553628D02*
X199794524Y-28506009D01*
X199794524Y-28506009D02*
X199842143Y-28410771D01*
X199842143Y-28410771D02*
X199937381Y-28363152D01*
X199937381Y-28363152D02*
X200080238Y-28363152D01*
X200080238Y-28363152D02*
X200175476Y-28410771D01*
X200794524Y-29029819D02*
X200699286Y-28982200D01*
X200699286Y-28982200D02*
X200651667Y-28934580D01*
X200651667Y-28934580D02*
X200604048Y-28839342D01*
X200604048Y-28839342D02*
X200604048Y-28553628D01*
X200604048Y-28553628D02*
X200651667Y-28458390D01*
X200651667Y-28458390D02*
X200699286Y-28410771D01*
X200699286Y-28410771D02*
X200794524Y-28363152D01*
X200794524Y-28363152D02*
X200937381Y-28363152D01*
X200937381Y-28363152D02*
X201032619Y-28410771D01*
X201032619Y-28410771D02*
X201080238Y-28458390D01*
X201080238Y-28458390D02*
X201127857Y-28553628D01*
X201127857Y-28553628D02*
X201127857Y-28839342D01*
X201127857Y-28839342D02*
X201080238Y-28934580D01*
X201080238Y-28934580D02*
X201032619Y-28982200D01*
X201032619Y-28982200D02*
X200937381Y-29029819D01*
X200937381Y-29029819D02*
X200794524Y-29029819D01*
X201556429Y-29029819D02*
X201556429Y-28363152D01*
X201556429Y-28553628D02*
X201604048Y-28458390D01*
X201604048Y-28458390D02*
X201651667Y-28410771D01*
X201651667Y-28410771D02*
X201746905Y-28363152D01*
X201746905Y-28363152D02*
X201842143Y-28363152D01*
X227482319Y-38703333D02*
X228196604Y-38703333D01*
X228196604Y-38703333D02*
X228339461Y-38750952D01*
X228339461Y-38750952D02*
X228434700Y-38846190D01*
X228434700Y-38846190D02*
X228482319Y-38989047D01*
X228482319Y-38989047D02*
X228482319Y-39084285D01*
X228482319Y-37703333D02*
X228482319Y-38274761D01*
X228482319Y-37989047D02*
X227482319Y-37989047D01*
X227482319Y-37989047D02*
X227625176Y-38084285D01*
X227625176Y-38084285D02*
X227720414Y-38179523D01*
X227720414Y-38179523D02*
X227768033Y-38274761D01*
X223869580Y-47766666D02*
X223917200Y-47814285D01*
X223917200Y-47814285D02*
X223964819Y-47957142D01*
X223964819Y-47957142D02*
X223964819Y-48052380D01*
X223964819Y-48052380D02*
X223917200Y-48195237D01*
X223917200Y-48195237D02*
X223821961Y-48290475D01*
X223821961Y-48290475D02*
X223726723Y-48338094D01*
X223726723Y-48338094D02*
X223536247Y-48385713D01*
X223536247Y-48385713D02*
X223393390Y-48385713D01*
X223393390Y-48385713D02*
X223202914Y-48338094D01*
X223202914Y-48338094D02*
X223107676Y-48290475D01*
X223107676Y-48290475D02*
X223012438Y-48195237D01*
X223012438Y-48195237D02*
X222964819Y-48052380D01*
X222964819Y-48052380D02*
X222964819Y-47957142D01*
X222964819Y-47957142D02*
X223012438Y-47814285D01*
X223012438Y-47814285D02*
X223060057Y-47766666D01*
X223060057Y-47385713D02*
X223012438Y-47338094D01*
X223012438Y-47338094D02*
X222964819Y-47242856D01*
X222964819Y-47242856D02*
X222964819Y-47004761D01*
X222964819Y-47004761D02*
X223012438Y-46909523D01*
X223012438Y-46909523D02*
X223060057Y-46861904D01*
X223060057Y-46861904D02*
X223155295Y-46814285D01*
X223155295Y-46814285D02*
X223250533Y-46814285D01*
X223250533Y-46814285D02*
X223393390Y-46861904D01*
X223393390Y-46861904D02*
X223964819Y-47433332D01*
X223964819Y-47433332D02*
X223964819Y-46814285D01*
X218916666Y-55157319D02*
X218916666Y-55871604D01*
X218916666Y-55871604D02*
X218869047Y-56014461D01*
X218869047Y-56014461D02*
X218773809Y-56109700D01*
X218773809Y-56109700D02*
X218630952Y-56157319D01*
X218630952Y-56157319D02*
X218535714Y-56157319D01*
X219821428Y-55490652D02*
X219821428Y-56157319D01*
X219583333Y-55109700D02*
X219345238Y-55823985D01*
X219345238Y-55823985D02*
X219964285Y-55823985D01*
X217023809Y-69907319D02*
X217023809Y-68907319D01*
X217023809Y-68907319D02*
X217404761Y-68907319D01*
X217404761Y-68907319D02*
X217499999Y-68954938D01*
X217499999Y-68954938D02*
X217547618Y-69002557D01*
X217547618Y-69002557D02*
X217595237Y-69097795D01*
X217595237Y-69097795D02*
X217595237Y-69240652D01*
X217595237Y-69240652D02*
X217547618Y-69335890D01*
X217547618Y-69335890D02*
X217499999Y-69383509D01*
X217499999Y-69383509D02*
X217404761Y-69431128D01*
X217404761Y-69431128D02*
X217023809Y-69431128D01*
X218023809Y-69907319D02*
X218023809Y-69240652D01*
X218023809Y-69431128D02*
X218071428Y-69335890D01*
X218071428Y-69335890D02*
X218119047Y-69288271D01*
X218119047Y-69288271D02*
X218214285Y-69240652D01*
X218214285Y-69240652D02*
X218309523Y-69240652D01*
X218785714Y-69907319D02*
X218690476Y-69859700D01*
X218690476Y-69859700D02*
X218642857Y-69812080D01*
X218642857Y-69812080D02*
X218595238Y-69716842D01*
X218595238Y-69716842D02*
X218595238Y-69431128D01*
X218595238Y-69431128D02*
X218642857Y-69335890D01*
X218642857Y-69335890D02*
X218690476Y-69288271D01*
X218690476Y-69288271D02*
X218785714Y-69240652D01*
X218785714Y-69240652D02*
X218928571Y-69240652D01*
X218928571Y-69240652D02*
X219023809Y-69288271D01*
X219023809Y-69288271D02*
X219071428Y-69335890D01*
X219071428Y-69335890D02*
X219119047Y-69431128D01*
X219119047Y-69431128D02*
X219119047Y-69716842D01*
X219119047Y-69716842D02*
X219071428Y-69812080D01*
X219071428Y-69812080D02*
X219023809Y-69859700D01*
X219023809Y-69859700D02*
X218928571Y-69907319D01*
X218928571Y-69907319D02*
X218785714Y-69907319D01*
X219976190Y-69240652D02*
X219976190Y-70050176D01*
X219976190Y-70050176D02*
X219928571Y-70145414D01*
X219928571Y-70145414D02*
X219880952Y-70193033D01*
X219880952Y-70193033D02*
X219785714Y-70240652D01*
X219785714Y-70240652D02*
X219642857Y-70240652D01*
X219642857Y-70240652D02*
X219547619Y-70193033D01*
X219976190Y-69859700D02*
X219880952Y-69907319D01*
X219880952Y-69907319D02*
X219690476Y-69907319D01*
X219690476Y-69907319D02*
X219595238Y-69859700D01*
X219595238Y-69859700D02*
X219547619Y-69812080D01*
X219547619Y-69812080D02*
X219500000Y-69716842D01*
X219500000Y-69716842D02*
X219500000Y-69431128D01*
X219500000Y-69431128D02*
X219547619Y-69335890D01*
X219547619Y-69335890D02*
X219595238Y-69288271D01*
X219595238Y-69288271D02*
X219690476Y-69240652D01*
X219690476Y-69240652D02*
X219880952Y-69240652D01*
X219880952Y-69240652D02*
X219976190Y-69288271D01*
D12*
%TO.C,C5*%
X213085000Y-57861252D02*
X213085000Y-56438748D01*
X214905000Y-57861252D02*
X214905000Y-56438748D01*
%TO.C,C4*%
X201020000Y-48971252D02*
X201020000Y-47548748D01*
X202840000Y-48971252D02*
X202840000Y-47548748D01*
%TO.C,J2*%
X211515000Y-67360000D02*
X211515000Y-57080000D01*
X211515000Y-67360000D02*
X208915000Y-67360000D01*
X211515000Y-57080000D02*
X206315000Y-57080000D01*
X208915000Y-67360000D02*
X208915000Y-64760000D01*
X208915000Y-64760000D02*
X206315000Y-64760000D01*
X207645000Y-67360000D02*
X206315000Y-67360000D01*
X206315000Y-67360000D02*
X206315000Y-66030000D01*
X206315000Y-64760000D02*
X206315000Y-57080000D01*
%TO.C,J5*%
X209610000Y-41910000D02*
X209610000Y-34230000D01*
X209610000Y-41910000D02*
X206950000Y-41910000D01*
X209610000Y-34230000D02*
X206950000Y-34230000D01*
X208280000Y-44510000D02*
X206950000Y-44510000D01*
X206950000Y-44510000D02*
X206950000Y-43180000D01*
X206950000Y-41910000D02*
X206950000Y-34230000D01*
%TO.C,U2*%
X219035000Y-47850000D02*
X217895000Y-47850000D01*
X217895000Y-48080000D02*
X217895000Y-47850000D01*
X217895000Y-48080000D02*
X215175000Y-48080000D01*
X217895000Y-43360000D02*
X217895000Y-43590000D01*
X215175000Y-48080000D02*
X215175000Y-46770000D01*
X215175000Y-44670000D02*
X215175000Y-43360000D01*
X215175000Y-43360000D02*
X217895000Y-43360000D01*
%TO.C,C1*%
X220750000Y-42826252D02*
X220750000Y-41403748D01*
X222570000Y-42826252D02*
X222570000Y-41403748D01*
%TO.C,C3*%
X209190000Y-47548748D02*
X209190000Y-48971252D01*
X207370000Y-47548748D02*
X207370000Y-48971252D01*
%TO.C,J3*%
X203260000Y-41910000D02*
X203260000Y-34230000D01*
X203260000Y-41910000D02*
X200600000Y-41910000D01*
X203260000Y-34230000D02*
X200600000Y-34230000D01*
X201930000Y-44510000D02*
X200600000Y-44510000D01*
X200600000Y-44510000D02*
X200600000Y-43180000D01*
X200600000Y-41910000D02*
X200600000Y-34230000D01*
%TO.C,J1*%
X229377500Y-42270000D02*
X229377500Y-41820000D01*
X231227500Y-42270000D02*
X229377500Y-42270000D01*
X233777500Y-42270000D02*
X233527500Y-42270000D01*
X228827500Y-40070000D02*
X229277500Y-40070000D01*
X228827500Y-40070000D02*
X228827500Y-39620000D01*
X229377500Y-34470000D02*
X229377500Y-34920000D01*
X231227500Y-34470000D02*
X229377500Y-34470000D01*
X233777500Y-34470000D02*
X233527500Y-34470000D01*
%TO.C,C2*%
X222570000Y-46888748D02*
X222570000Y-48311252D01*
X220750000Y-46888748D02*
X220750000Y-48311252D01*
%TD*%
M02*
