%TF.GenerationSoftware,KiCad,Pcbnew,7.0.10-7.0.10~ubuntu22.04.1*%
%TF.CreationDate,2024-01-23T13:21:06+00:00*%
%TF.ProjectId,wifi_temp_sensor,77696669-5f74-4656-9d70-5f73656e736f,rev?*%
%TF.SameCoordinates,Original*%
%TF.FileFunction,Drillmap*%
%TF.FilePolarity,Positive*%
%FSLAX45Y45*%
G04 Gerber Fmt 4.5, Leading zero omitted, Abs format (unit mm)*
G04 Created by KiCad (PCBNEW 7.0.10-7.0.10~ubuntu22.04.1) date 2024-01-23 13:21:06*
%MOMM*%
%LPD*%
G01*
G04 APERTURE LIST*
%ADD10C,0.100000*%
%ADD11C,0.200000*%
%ADD12C,0.130000*%
G04 APERTURE END LIST*
D10*
X23431500Y-4794250D02*
X23431500Y-2476500D01*
X19023000Y-4918000D02*
G75*
G03*
X18763000Y-4918000I-130000J0D01*
G01*
X18763000Y-4918000D02*
G75*
G03*
X19023000Y-4918000I130000J0D01*
G01*
X18862500Y-6667500D02*
G75*
G03*
X18602500Y-6667500I-130000J0D01*
G01*
X18602500Y-6667500D02*
G75*
G03*
X18862500Y-6667500I130000J0D01*
G01*
X18351500Y-7048500D02*
X23431500Y-7048500D01*
X23258000Y-2857500D02*
G75*
G03*
X22998000Y-2857500I-130000J0D01*
G01*
X22998000Y-2857500D02*
G75*
G03*
X23258000Y-2857500I130000J0D01*
G01*
X18862500Y-2857500D02*
G75*
G03*
X18602500Y-2857500I-130000J0D01*
G01*
X18602500Y-2857500D02*
G75*
G03*
X18862500Y-2857500I130000J0D01*
G01*
X23431500Y-7048500D02*
X23431500Y-4794250D01*
X23431500Y-2476500D02*
X18351500Y-2476500D01*
X23258000Y-5107500D02*
G75*
G03*
X22998000Y-5107500I-130000J0D01*
G01*
X22998000Y-5107500D02*
G75*
G03*
X23258000Y-5107500I130000J0D01*
G01*
X18351500Y-2476500D02*
X18351500Y-7048500D01*
D11*
D10*
X19855500Y-4869500D02*
X19895500Y-4909500D01*
X19895500Y-4869500D02*
X19855500Y-4909500D01*
X19855500Y-4996500D02*
X19895500Y-5036500D01*
X19895500Y-4996500D02*
X19855500Y-5036500D01*
X20554000Y-4869500D02*
X20594000Y-4909500D01*
X20594000Y-4869500D02*
X20554000Y-4909500D01*
X20554000Y-4996500D02*
X20594000Y-5036500D01*
X20594000Y-4996500D02*
X20554000Y-5036500D01*
X21252500Y-6330000D02*
X21292500Y-6370000D01*
X21292500Y-6330000D02*
X21252500Y-6370000D01*
X21316000Y-5377500D02*
X21356000Y-5417500D01*
X21356000Y-5377500D02*
X21316000Y-5417500D01*
X21379500Y-6012500D02*
X21419500Y-6052500D01*
X21419500Y-6012500D02*
X21379500Y-6052500D01*
X21443000Y-5377500D02*
X21483000Y-5417500D01*
X21483000Y-5377500D02*
X21443000Y-5417500D01*
X21760500Y-4869500D02*
X21800500Y-4909500D01*
X21800500Y-4869500D02*
X21760500Y-4909500D01*
X21887500Y-4869500D02*
X21927500Y-4909500D01*
X21927500Y-4869500D02*
X21887500Y-4909500D01*
X22078000Y-3854000D02*
X22118000Y-3894000D01*
X22118000Y-3854000D02*
X22078000Y-3894000D01*
X22078000Y-5060000D02*
X22118000Y-5100000D01*
X22118000Y-5060000D02*
X22078000Y-5100000D01*
X22205000Y-3854000D02*
X22245000Y-3894000D01*
X22245000Y-3854000D02*
X22205000Y-3894000D01*
X22205000Y-5060000D02*
X22245000Y-5100000D01*
X22245000Y-5060000D02*
X22205000Y-5100000D01*
X22586000Y-3563000D02*
X22626000Y-3603000D01*
X22626000Y-3563000D02*
X22586000Y-3603000D01*
X22586000Y-3690000D02*
X22626000Y-3730000D01*
X22626000Y-3690000D02*
X22586000Y-3730000D01*
X22713000Y-3563000D02*
X22753000Y-3603000D01*
X22753000Y-3563000D02*
X22713000Y-3603000D01*
X22713000Y-3690000D02*
X22753000Y-3730000D01*
X22753000Y-3690000D02*
X22713000Y-3730000D01*
X23267750Y-3487000D02*
G75*
G03*
X23207750Y-3487000I-30000J0D01*
G01*
X23207750Y-3487000D02*
G75*
G03*
X23267750Y-3487000I30000J0D01*
G01*
X23202750Y-3517000D02*
X23272750Y-3517000D01*
X23272750Y-3517000D02*
G75*
G03*
X23272750Y-3457000I0J30000D01*
G01*
X23272750Y-3457000D02*
X23202750Y-3457000D01*
X23202750Y-3457000D02*
G75*
G03*
X23202750Y-3517000I0J-30000D01*
G01*
X23267750Y-4187000D02*
G75*
G03*
X23207750Y-4187000I-30000J0D01*
G01*
X23207750Y-4187000D02*
G75*
G03*
X23267750Y-4187000I30000J0D01*
G01*
X23272750Y-4157000D02*
X23202750Y-4157000D01*
X23202750Y-4157000D02*
G75*
G03*
X23202750Y-4217000I0J-30000D01*
G01*
X23202750Y-4217000D02*
X23272750Y-4217000D01*
X23272750Y-4217000D02*
G75*
G03*
X23272750Y-4157000I0J30000D01*
G01*
X22967750Y-3544500D02*
X22967750Y-3629500D01*
X22925250Y-3587000D02*
X23010250Y-3587000D01*
X22967750Y-4044500D02*
X22967750Y-4129500D01*
X22925250Y-4087000D02*
X23010250Y-4087000D01*
X20228356Y-3591356D02*
X20228356Y-3520644D01*
X20157644Y-3520644D01*
X20157644Y-3591356D01*
X20228356Y-3591356D01*
X20228356Y-3845356D02*
X20228356Y-3774644D01*
X20157644Y-3774644D01*
X20157644Y-3845356D01*
X20228356Y-3845356D01*
X20228356Y-4099356D02*
X20228356Y-4028644D01*
X20157644Y-4028644D01*
X20157644Y-4099356D01*
X20228356Y-4099356D01*
X20228356Y-4353356D02*
X20228356Y-4282644D01*
X20157644Y-4282644D01*
X20157644Y-4353356D01*
X20228356Y-4353356D01*
X20799856Y-5876356D02*
X20799856Y-5805644D01*
X20729144Y-5805644D01*
X20729144Y-5876356D01*
X20799856Y-5876356D01*
X20799856Y-6130356D02*
X20799856Y-6059644D01*
X20729144Y-6059644D01*
X20729144Y-6130356D01*
X20799856Y-6130356D01*
X20799856Y-6384356D02*
X20799856Y-6313644D01*
X20729144Y-6313644D01*
X20729144Y-6384356D01*
X20799856Y-6384356D01*
X20799856Y-6638356D02*
X20799856Y-6567644D01*
X20729144Y-6567644D01*
X20729144Y-6638356D01*
X20799856Y-6638356D01*
X20863356Y-3591356D02*
X20863356Y-3520644D01*
X20792644Y-3520644D01*
X20792644Y-3591356D01*
X20863356Y-3591356D01*
X20863356Y-3845356D02*
X20863356Y-3774644D01*
X20792644Y-3774644D01*
X20792644Y-3845356D01*
X20863356Y-3845356D01*
X20863356Y-4099356D02*
X20863356Y-4028644D01*
X20792644Y-4028644D01*
X20792644Y-4099356D01*
X20863356Y-4099356D01*
X20863356Y-4353356D02*
X20863356Y-4282644D01*
X20792644Y-4282644D01*
X20792644Y-4353356D01*
X20863356Y-4353356D01*
X21053856Y-5876356D02*
X21053856Y-5805644D01*
X20983144Y-5805644D01*
X20983144Y-5876356D01*
X21053856Y-5876356D01*
X21053856Y-6130356D02*
X21053856Y-6059644D01*
X20983144Y-6059644D01*
X20983144Y-6130356D01*
X21053856Y-6130356D01*
X21053856Y-6384356D02*
X21053856Y-6313644D01*
X20983144Y-6313644D01*
X20983144Y-6384356D01*
X21053856Y-6384356D01*
X21053856Y-6638356D02*
X21053856Y-6567644D01*
X20983144Y-6567644D01*
X20983144Y-6638356D01*
X21053856Y-6638356D01*
X22098856Y-2689856D02*
X22098856Y-2619144D01*
X22028144Y-2619144D01*
X22028144Y-2689856D01*
X22098856Y-2689856D01*
X22260356Y-5623356D02*
X22260356Y-5552644D01*
X22189644Y-5552644D01*
X22189644Y-5623356D01*
X22260356Y-5623356D01*
X22260356Y-5877356D02*
X22260356Y-5806644D01*
X22189644Y-5806644D01*
X22189644Y-5877356D01*
X22260356Y-5877356D01*
X22260356Y-6131356D02*
X22260356Y-6060644D01*
X22189644Y-6060644D01*
X22189644Y-6131356D01*
X22260356Y-6131356D01*
X22260356Y-6385356D02*
X22260356Y-6314644D01*
X22189644Y-6314644D01*
X22189644Y-6385356D01*
X22260356Y-6385356D01*
X22260356Y-6639356D02*
X22260356Y-6568644D01*
X22189644Y-6568644D01*
X22189644Y-6639356D01*
X22260356Y-6639356D01*
X22260356Y-6893356D02*
X22260356Y-6822644D01*
X22189644Y-6822644D01*
X22189644Y-6893356D01*
X22260356Y-6893356D01*
X22548856Y-2689856D02*
X22548856Y-2619144D01*
X22478144Y-2619144D01*
X22478144Y-2689856D01*
X22548856Y-2689856D01*
D12*
X21938500Y-2969500D02*
X22003500Y-2904500D01*
X21938500Y-2839500D01*
X21873500Y-2904500D01*
X21938500Y-2969500D01*
X22638500Y-2969500D02*
X22703500Y-2904500D01*
X22638500Y-2839500D01*
X22573500Y-2904500D01*
X22638500Y-2969500D01*
D11*
X18607277Y-7364984D02*
X18607277Y-7164984D01*
X18607277Y-7164984D02*
X18654896Y-7164984D01*
X18654896Y-7164984D02*
X18683467Y-7174508D01*
X18683467Y-7174508D02*
X18702515Y-7193555D01*
X18702515Y-7193555D02*
X18712039Y-7212603D01*
X18712039Y-7212603D02*
X18721563Y-7250698D01*
X18721563Y-7250698D02*
X18721563Y-7279269D01*
X18721563Y-7279269D02*
X18712039Y-7317365D01*
X18712039Y-7317365D02*
X18702515Y-7336412D01*
X18702515Y-7336412D02*
X18683467Y-7355460D01*
X18683467Y-7355460D02*
X18654896Y-7364984D01*
X18654896Y-7364984D02*
X18607277Y-7364984D01*
X18807277Y-7364984D02*
X18807277Y-7231650D01*
X18807277Y-7269746D02*
X18816801Y-7250698D01*
X18816801Y-7250698D02*
X18826324Y-7241174D01*
X18826324Y-7241174D02*
X18845372Y-7231650D01*
X18845372Y-7231650D02*
X18864420Y-7231650D01*
X18931086Y-7364984D02*
X18931086Y-7231650D01*
X18931086Y-7164984D02*
X18921563Y-7174508D01*
X18921563Y-7174508D02*
X18931086Y-7184031D01*
X18931086Y-7184031D02*
X18940610Y-7174508D01*
X18940610Y-7174508D02*
X18931086Y-7164984D01*
X18931086Y-7164984D02*
X18931086Y-7184031D01*
X19054896Y-7364984D02*
X19035848Y-7355460D01*
X19035848Y-7355460D02*
X19026324Y-7336412D01*
X19026324Y-7336412D02*
X19026324Y-7164984D01*
X19159658Y-7364984D02*
X19140610Y-7355460D01*
X19140610Y-7355460D02*
X19131086Y-7336412D01*
X19131086Y-7336412D02*
X19131086Y-7164984D01*
X19388229Y-7364984D02*
X19388229Y-7164984D01*
X19388229Y-7164984D02*
X19454896Y-7307841D01*
X19454896Y-7307841D02*
X19521563Y-7164984D01*
X19521563Y-7164984D02*
X19521563Y-7364984D01*
X19702515Y-7364984D02*
X19702515Y-7260222D01*
X19702515Y-7260222D02*
X19692991Y-7241174D01*
X19692991Y-7241174D02*
X19673944Y-7231650D01*
X19673944Y-7231650D02*
X19635848Y-7231650D01*
X19635848Y-7231650D02*
X19616801Y-7241174D01*
X19702515Y-7355460D02*
X19683467Y-7364984D01*
X19683467Y-7364984D02*
X19635848Y-7364984D01*
X19635848Y-7364984D02*
X19616801Y-7355460D01*
X19616801Y-7355460D02*
X19607277Y-7336412D01*
X19607277Y-7336412D02*
X19607277Y-7317365D01*
X19607277Y-7317365D02*
X19616801Y-7298317D01*
X19616801Y-7298317D02*
X19635848Y-7288793D01*
X19635848Y-7288793D02*
X19683467Y-7288793D01*
X19683467Y-7288793D02*
X19702515Y-7279269D01*
X19797753Y-7231650D02*
X19797753Y-7431650D01*
X19797753Y-7241174D02*
X19816801Y-7231650D01*
X19816801Y-7231650D02*
X19854896Y-7231650D01*
X19854896Y-7231650D02*
X19873944Y-7241174D01*
X19873944Y-7241174D02*
X19883467Y-7250698D01*
X19883467Y-7250698D02*
X19892991Y-7269746D01*
X19892991Y-7269746D02*
X19892991Y-7326888D01*
X19892991Y-7326888D02*
X19883467Y-7345936D01*
X19883467Y-7345936D02*
X19873944Y-7355460D01*
X19873944Y-7355460D02*
X19854896Y-7364984D01*
X19854896Y-7364984D02*
X19816801Y-7364984D01*
X19816801Y-7364984D02*
X19797753Y-7355460D01*
X19978705Y-7345936D02*
X19988229Y-7355460D01*
X19988229Y-7355460D02*
X19978705Y-7364984D01*
X19978705Y-7364984D02*
X19969182Y-7355460D01*
X19969182Y-7355460D02*
X19978705Y-7345936D01*
X19978705Y-7345936D02*
X19978705Y-7364984D01*
X19978705Y-7241174D02*
X19988229Y-7250698D01*
X19988229Y-7250698D02*
X19978705Y-7260222D01*
X19978705Y-7260222D02*
X19969182Y-7250698D01*
X19969182Y-7250698D02*
X19978705Y-7241174D01*
X19978705Y-7241174D02*
X19978705Y-7260222D01*
D10*
X18306500Y-7673500D02*
X18346500Y-7713500D01*
X18346500Y-7673500D02*
X18306500Y-7713500D01*
D11*
X18645372Y-7584984D02*
X18664420Y-7584984D01*
X18664420Y-7584984D02*
X18683467Y-7594508D01*
X18683467Y-7594508D02*
X18692991Y-7604031D01*
X18692991Y-7604031D02*
X18702515Y-7623079D01*
X18702515Y-7623079D02*
X18712039Y-7661174D01*
X18712039Y-7661174D02*
X18712039Y-7708793D01*
X18712039Y-7708793D02*
X18702515Y-7746888D01*
X18702515Y-7746888D02*
X18692991Y-7765936D01*
X18692991Y-7765936D02*
X18683467Y-7775460D01*
X18683467Y-7775460D02*
X18664420Y-7784984D01*
X18664420Y-7784984D02*
X18645372Y-7784984D01*
X18645372Y-7784984D02*
X18626324Y-7775460D01*
X18626324Y-7775460D02*
X18616801Y-7765936D01*
X18616801Y-7765936D02*
X18607277Y-7746888D01*
X18607277Y-7746888D02*
X18597753Y-7708793D01*
X18597753Y-7708793D02*
X18597753Y-7661174D01*
X18597753Y-7661174D02*
X18607277Y-7623079D01*
X18607277Y-7623079D02*
X18616801Y-7604031D01*
X18616801Y-7604031D02*
X18626324Y-7594508D01*
X18626324Y-7594508D02*
X18645372Y-7584984D01*
X18797753Y-7765936D02*
X18807277Y-7775460D01*
X18807277Y-7775460D02*
X18797753Y-7784984D01*
X18797753Y-7784984D02*
X18788229Y-7775460D01*
X18788229Y-7775460D02*
X18797753Y-7765936D01*
X18797753Y-7765936D02*
X18797753Y-7784984D01*
X18978705Y-7651650D02*
X18978705Y-7784984D01*
X18931086Y-7575460D02*
X18883467Y-7718317D01*
X18883467Y-7718317D02*
X19007277Y-7718317D01*
X19121563Y-7584984D02*
X19140610Y-7584984D01*
X19140610Y-7584984D02*
X19159658Y-7594508D01*
X19159658Y-7594508D02*
X19169182Y-7604031D01*
X19169182Y-7604031D02*
X19178705Y-7623079D01*
X19178705Y-7623079D02*
X19188229Y-7661174D01*
X19188229Y-7661174D02*
X19188229Y-7708793D01*
X19188229Y-7708793D02*
X19178705Y-7746888D01*
X19178705Y-7746888D02*
X19169182Y-7765936D01*
X19169182Y-7765936D02*
X19159658Y-7775460D01*
X19159658Y-7775460D02*
X19140610Y-7784984D01*
X19140610Y-7784984D02*
X19121563Y-7784984D01*
X19121563Y-7784984D02*
X19102515Y-7775460D01*
X19102515Y-7775460D02*
X19092991Y-7765936D01*
X19092991Y-7765936D02*
X19083467Y-7746888D01*
X19083467Y-7746888D02*
X19073944Y-7708793D01*
X19073944Y-7708793D02*
X19073944Y-7661174D01*
X19073944Y-7661174D02*
X19083467Y-7623079D01*
X19083467Y-7623079D02*
X19092991Y-7604031D01*
X19092991Y-7604031D02*
X19102515Y-7594508D01*
X19102515Y-7594508D02*
X19121563Y-7584984D01*
X19312039Y-7584984D02*
X19331086Y-7584984D01*
X19331086Y-7584984D02*
X19350134Y-7594508D01*
X19350134Y-7594508D02*
X19359658Y-7604031D01*
X19359658Y-7604031D02*
X19369182Y-7623079D01*
X19369182Y-7623079D02*
X19378705Y-7661174D01*
X19378705Y-7661174D02*
X19378705Y-7708793D01*
X19378705Y-7708793D02*
X19369182Y-7746888D01*
X19369182Y-7746888D02*
X19359658Y-7765936D01*
X19359658Y-7765936D02*
X19350134Y-7775460D01*
X19350134Y-7775460D02*
X19331086Y-7784984D01*
X19331086Y-7784984D02*
X19312039Y-7784984D01*
X19312039Y-7784984D02*
X19292991Y-7775460D01*
X19292991Y-7775460D02*
X19283467Y-7765936D01*
X19283467Y-7765936D02*
X19273944Y-7746888D01*
X19273944Y-7746888D02*
X19264420Y-7708793D01*
X19264420Y-7708793D02*
X19264420Y-7661174D01*
X19264420Y-7661174D02*
X19273944Y-7623079D01*
X19273944Y-7623079D02*
X19283467Y-7604031D01*
X19283467Y-7604031D02*
X19292991Y-7594508D01*
X19292991Y-7594508D02*
X19312039Y-7584984D01*
X19464420Y-7784984D02*
X19464420Y-7651650D01*
X19464420Y-7670698D02*
X19473944Y-7661174D01*
X19473944Y-7661174D02*
X19492991Y-7651650D01*
X19492991Y-7651650D02*
X19521563Y-7651650D01*
X19521563Y-7651650D02*
X19540610Y-7661174D01*
X19540610Y-7661174D02*
X19550134Y-7680222D01*
X19550134Y-7680222D02*
X19550134Y-7784984D01*
X19550134Y-7680222D02*
X19559658Y-7661174D01*
X19559658Y-7661174D02*
X19578705Y-7651650D01*
X19578705Y-7651650D02*
X19607277Y-7651650D01*
X19607277Y-7651650D02*
X19626325Y-7661174D01*
X19626325Y-7661174D02*
X19635848Y-7680222D01*
X19635848Y-7680222D02*
X19635848Y-7784984D01*
X19731086Y-7784984D02*
X19731086Y-7651650D01*
X19731086Y-7670698D02*
X19740610Y-7661174D01*
X19740610Y-7661174D02*
X19759658Y-7651650D01*
X19759658Y-7651650D02*
X19788229Y-7651650D01*
X19788229Y-7651650D02*
X19807277Y-7661174D01*
X19807277Y-7661174D02*
X19816801Y-7680222D01*
X19816801Y-7680222D02*
X19816801Y-7784984D01*
X19816801Y-7680222D02*
X19826325Y-7661174D01*
X19826325Y-7661174D02*
X19845372Y-7651650D01*
X19845372Y-7651650D02*
X19873944Y-7651650D01*
X19873944Y-7651650D02*
X19892991Y-7661174D01*
X19892991Y-7661174D02*
X19902515Y-7680222D01*
X19902515Y-7680222D02*
X19902515Y-7784984D01*
X20292991Y-7575460D02*
X20121563Y-7832603D01*
X20550134Y-7584984D02*
X20569182Y-7584984D01*
X20569182Y-7584984D02*
X20588229Y-7594508D01*
X20588229Y-7594508D02*
X20597753Y-7604031D01*
X20597753Y-7604031D02*
X20607277Y-7623079D01*
X20607277Y-7623079D02*
X20616801Y-7661174D01*
X20616801Y-7661174D02*
X20616801Y-7708793D01*
X20616801Y-7708793D02*
X20607277Y-7746888D01*
X20607277Y-7746888D02*
X20597753Y-7765936D01*
X20597753Y-7765936D02*
X20588229Y-7775460D01*
X20588229Y-7775460D02*
X20569182Y-7784984D01*
X20569182Y-7784984D02*
X20550134Y-7784984D01*
X20550134Y-7784984D02*
X20531087Y-7775460D01*
X20531087Y-7775460D02*
X20521563Y-7765936D01*
X20521563Y-7765936D02*
X20512039Y-7746888D01*
X20512039Y-7746888D02*
X20502515Y-7708793D01*
X20502515Y-7708793D02*
X20502515Y-7661174D01*
X20502515Y-7661174D02*
X20512039Y-7623079D01*
X20512039Y-7623079D02*
X20521563Y-7604031D01*
X20521563Y-7604031D02*
X20531087Y-7594508D01*
X20531087Y-7594508D02*
X20550134Y-7584984D01*
X20702515Y-7765936D02*
X20712039Y-7775460D01*
X20712039Y-7775460D02*
X20702515Y-7784984D01*
X20702515Y-7784984D02*
X20692991Y-7775460D01*
X20692991Y-7775460D02*
X20702515Y-7765936D01*
X20702515Y-7765936D02*
X20702515Y-7784984D01*
X20835848Y-7584984D02*
X20854896Y-7584984D01*
X20854896Y-7584984D02*
X20873944Y-7594508D01*
X20873944Y-7594508D02*
X20883468Y-7604031D01*
X20883468Y-7604031D02*
X20892991Y-7623079D01*
X20892991Y-7623079D02*
X20902515Y-7661174D01*
X20902515Y-7661174D02*
X20902515Y-7708793D01*
X20902515Y-7708793D02*
X20892991Y-7746888D01*
X20892991Y-7746888D02*
X20883468Y-7765936D01*
X20883468Y-7765936D02*
X20873944Y-7775460D01*
X20873944Y-7775460D02*
X20854896Y-7784984D01*
X20854896Y-7784984D02*
X20835848Y-7784984D01*
X20835848Y-7784984D02*
X20816801Y-7775460D01*
X20816801Y-7775460D02*
X20807277Y-7765936D01*
X20807277Y-7765936D02*
X20797753Y-7746888D01*
X20797753Y-7746888D02*
X20788229Y-7708793D01*
X20788229Y-7708793D02*
X20788229Y-7661174D01*
X20788229Y-7661174D02*
X20797753Y-7623079D01*
X20797753Y-7623079D02*
X20807277Y-7604031D01*
X20807277Y-7604031D02*
X20816801Y-7594508D01*
X20816801Y-7594508D02*
X20835848Y-7584984D01*
X21092991Y-7784984D02*
X20978706Y-7784984D01*
X21035848Y-7784984D02*
X21035848Y-7584984D01*
X21035848Y-7584984D02*
X21016801Y-7613555D01*
X21016801Y-7613555D02*
X20997753Y-7632603D01*
X20997753Y-7632603D02*
X20978706Y-7642127D01*
X21273944Y-7584984D02*
X21178706Y-7584984D01*
X21178706Y-7584984D02*
X21169182Y-7680222D01*
X21169182Y-7680222D02*
X21178706Y-7670698D01*
X21178706Y-7670698D02*
X21197753Y-7661174D01*
X21197753Y-7661174D02*
X21245372Y-7661174D01*
X21245372Y-7661174D02*
X21264420Y-7670698D01*
X21264420Y-7670698D02*
X21273944Y-7680222D01*
X21273944Y-7680222D02*
X21283468Y-7699269D01*
X21283468Y-7699269D02*
X21283468Y-7746888D01*
X21283468Y-7746888D02*
X21273944Y-7765936D01*
X21273944Y-7765936D02*
X21264420Y-7775460D01*
X21264420Y-7775460D02*
X21245372Y-7784984D01*
X21245372Y-7784984D02*
X21197753Y-7784984D01*
X21197753Y-7784984D02*
X21178706Y-7775460D01*
X21178706Y-7775460D02*
X21169182Y-7765936D01*
X21350134Y-7584984D02*
X21483468Y-7584984D01*
X21483468Y-7584984D02*
X21397753Y-7784984D01*
X21550134Y-7584984D02*
X21550134Y-7623079D01*
X21626325Y-7584984D02*
X21626325Y-7623079D01*
X21921563Y-7861174D02*
X21912039Y-7851650D01*
X21912039Y-7851650D02*
X21892991Y-7823079D01*
X21892991Y-7823079D02*
X21883468Y-7804031D01*
X21883468Y-7804031D02*
X21873944Y-7775460D01*
X21873944Y-7775460D02*
X21864420Y-7727841D01*
X21864420Y-7727841D02*
X21864420Y-7689746D01*
X21864420Y-7689746D02*
X21873944Y-7642127D01*
X21873944Y-7642127D02*
X21883468Y-7613555D01*
X21883468Y-7613555D02*
X21892991Y-7594508D01*
X21892991Y-7594508D02*
X21912039Y-7565936D01*
X21912039Y-7565936D02*
X21921563Y-7556412D01*
X22102515Y-7784984D02*
X21988230Y-7784984D01*
X22045372Y-7784984D02*
X22045372Y-7584984D01*
X22045372Y-7584984D02*
X22026325Y-7613555D01*
X22026325Y-7613555D02*
X22007277Y-7632603D01*
X22007277Y-7632603D02*
X21988230Y-7642127D01*
X22216801Y-7670698D02*
X22197753Y-7661174D01*
X22197753Y-7661174D02*
X22188230Y-7651650D01*
X22188230Y-7651650D02*
X22178706Y-7632603D01*
X22178706Y-7632603D02*
X22178706Y-7623079D01*
X22178706Y-7623079D02*
X22188230Y-7604031D01*
X22188230Y-7604031D02*
X22197753Y-7594508D01*
X22197753Y-7594508D02*
X22216801Y-7584984D01*
X22216801Y-7584984D02*
X22254896Y-7584984D01*
X22254896Y-7584984D02*
X22273944Y-7594508D01*
X22273944Y-7594508D02*
X22283468Y-7604031D01*
X22283468Y-7604031D02*
X22292991Y-7623079D01*
X22292991Y-7623079D02*
X22292991Y-7632603D01*
X22292991Y-7632603D02*
X22283468Y-7651650D01*
X22283468Y-7651650D02*
X22273944Y-7661174D01*
X22273944Y-7661174D02*
X22254896Y-7670698D01*
X22254896Y-7670698D02*
X22216801Y-7670698D01*
X22216801Y-7670698D02*
X22197753Y-7680222D01*
X22197753Y-7680222D02*
X22188230Y-7689746D01*
X22188230Y-7689746D02*
X22178706Y-7708793D01*
X22178706Y-7708793D02*
X22178706Y-7746888D01*
X22178706Y-7746888D02*
X22188230Y-7765936D01*
X22188230Y-7765936D02*
X22197753Y-7775460D01*
X22197753Y-7775460D02*
X22216801Y-7784984D01*
X22216801Y-7784984D02*
X22254896Y-7784984D01*
X22254896Y-7784984D02*
X22273944Y-7775460D01*
X22273944Y-7775460D02*
X22283468Y-7765936D01*
X22283468Y-7765936D02*
X22292991Y-7746888D01*
X22292991Y-7746888D02*
X22292991Y-7708793D01*
X22292991Y-7708793D02*
X22283468Y-7689746D01*
X22283468Y-7689746D02*
X22273944Y-7680222D01*
X22273944Y-7680222D02*
X22254896Y-7670698D01*
X22531087Y-7784984D02*
X22531087Y-7584984D01*
X22616801Y-7784984D02*
X22616801Y-7680222D01*
X22616801Y-7680222D02*
X22607277Y-7661174D01*
X22607277Y-7661174D02*
X22588230Y-7651650D01*
X22588230Y-7651650D02*
X22559658Y-7651650D01*
X22559658Y-7651650D02*
X22540610Y-7661174D01*
X22540610Y-7661174D02*
X22531087Y-7670698D01*
X22740610Y-7784984D02*
X22721563Y-7775460D01*
X22721563Y-7775460D02*
X22712039Y-7765936D01*
X22712039Y-7765936D02*
X22702515Y-7746888D01*
X22702515Y-7746888D02*
X22702515Y-7689746D01*
X22702515Y-7689746D02*
X22712039Y-7670698D01*
X22712039Y-7670698D02*
X22721563Y-7661174D01*
X22721563Y-7661174D02*
X22740610Y-7651650D01*
X22740610Y-7651650D02*
X22769182Y-7651650D01*
X22769182Y-7651650D02*
X22788230Y-7661174D01*
X22788230Y-7661174D02*
X22797753Y-7670698D01*
X22797753Y-7670698D02*
X22807277Y-7689746D01*
X22807277Y-7689746D02*
X22807277Y-7746888D01*
X22807277Y-7746888D02*
X22797753Y-7765936D01*
X22797753Y-7765936D02*
X22788230Y-7775460D01*
X22788230Y-7775460D02*
X22769182Y-7784984D01*
X22769182Y-7784984D02*
X22740610Y-7784984D01*
X22921563Y-7784984D02*
X22902515Y-7775460D01*
X22902515Y-7775460D02*
X22892991Y-7756412D01*
X22892991Y-7756412D02*
X22892991Y-7584984D01*
X23073944Y-7775460D02*
X23054896Y-7784984D01*
X23054896Y-7784984D02*
X23016801Y-7784984D01*
X23016801Y-7784984D02*
X22997753Y-7775460D01*
X22997753Y-7775460D02*
X22988230Y-7756412D01*
X22988230Y-7756412D02*
X22988230Y-7680222D01*
X22988230Y-7680222D02*
X22997753Y-7661174D01*
X22997753Y-7661174D02*
X23016801Y-7651650D01*
X23016801Y-7651650D02*
X23054896Y-7651650D01*
X23054896Y-7651650D02*
X23073944Y-7661174D01*
X23073944Y-7661174D02*
X23083468Y-7680222D01*
X23083468Y-7680222D02*
X23083468Y-7699269D01*
X23083468Y-7699269D02*
X22988230Y-7718317D01*
X23159658Y-7775460D02*
X23178706Y-7784984D01*
X23178706Y-7784984D02*
X23216801Y-7784984D01*
X23216801Y-7784984D02*
X23235849Y-7775460D01*
X23235849Y-7775460D02*
X23245372Y-7756412D01*
X23245372Y-7756412D02*
X23245372Y-7746888D01*
X23245372Y-7746888D02*
X23235849Y-7727841D01*
X23235849Y-7727841D02*
X23216801Y-7718317D01*
X23216801Y-7718317D02*
X23188230Y-7718317D01*
X23188230Y-7718317D02*
X23169182Y-7708793D01*
X23169182Y-7708793D02*
X23159658Y-7689746D01*
X23159658Y-7689746D02*
X23159658Y-7680222D01*
X23159658Y-7680222D02*
X23169182Y-7661174D01*
X23169182Y-7661174D02*
X23188230Y-7651650D01*
X23188230Y-7651650D02*
X23216801Y-7651650D01*
X23216801Y-7651650D02*
X23235849Y-7661174D01*
X23312039Y-7861174D02*
X23321563Y-7851650D01*
X23321563Y-7851650D02*
X23340611Y-7823079D01*
X23340611Y-7823079D02*
X23350134Y-7804031D01*
X23350134Y-7804031D02*
X23359658Y-7775460D01*
X23359658Y-7775460D02*
X23369182Y-7727841D01*
X23369182Y-7727841D02*
X23369182Y-7689746D01*
X23369182Y-7689746D02*
X23359658Y-7642127D01*
X23359658Y-7642127D02*
X23350134Y-7613555D01*
X23350134Y-7613555D02*
X23340611Y-7594508D01*
X23340611Y-7594508D02*
X23321563Y-7565936D01*
X23321563Y-7565936D02*
X23312039Y-7556412D01*
D10*
X18346500Y-7957500D02*
G75*
G03*
X18286500Y-7957500I-30000J0D01*
G01*
X18286500Y-7957500D02*
G75*
G03*
X18346500Y-7957500I30000J0D01*
G01*
D11*
X18645372Y-7848984D02*
X18664420Y-7848984D01*
X18664420Y-7848984D02*
X18683467Y-7858508D01*
X18683467Y-7858508D02*
X18692991Y-7868031D01*
X18692991Y-7868031D02*
X18702515Y-7887079D01*
X18702515Y-7887079D02*
X18712039Y-7925174D01*
X18712039Y-7925174D02*
X18712039Y-7972793D01*
X18712039Y-7972793D02*
X18702515Y-8010888D01*
X18702515Y-8010888D02*
X18692991Y-8029936D01*
X18692991Y-8029936D02*
X18683467Y-8039460D01*
X18683467Y-8039460D02*
X18664420Y-8048984D01*
X18664420Y-8048984D02*
X18645372Y-8048984D01*
X18645372Y-8048984D02*
X18626324Y-8039460D01*
X18626324Y-8039460D02*
X18616801Y-8029936D01*
X18616801Y-8029936D02*
X18607277Y-8010888D01*
X18607277Y-8010888D02*
X18597753Y-7972793D01*
X18597753Y-7972793D02*
X18597753Y-7925174D01*
X18597753Y-7925174D02*
X18607277Y-7887079D01*
X18607277Y-7887079D02*
X18616801Y-7868031D01*
X18616801Y-7868031D02*
X18626324Y-7858508D01*
X18626324Y-7858508D02*
X18645372Y-7848984D01*
X18797753Y-8029936D02*
X18807277Y-8039460D01*
X18807277Y-8039460D02*
X18797753Y-8048984D01*
X18797753Y-8048984D02*
X18788229Y-8039460D01*
X18788229Y-8039460D02*
X18797753Y-8029936D01*
X18797753Y-8029936D02*
X18797753Y-8048984D01*
X18978705Y-7848984D02*
X18940610Y-7848984D01*
X18940610Y-7848984D02*
X18921563Y-7858508D01*
X18921563Y-7858508D02*
X18912039Y-7868031D01*
X18912039Y-7868031D02*
X18892991Y-7896603D01*
X18892991Y-7896603D02*
X18883467Y-7934698D01*
X18883467Y-7934698D02*
X18883467Y-8010888D01*
X18883467Y-8010888D02*
X18892991Y-8029936D01*
X18892991Y-8029936D02*
X18902515Y-8039460D01*
X18902515Y-8039460D02*
X18921563Y-8048984D01*
X18921563Y-8048984D02*
X18959658Y-8048984D01*
X18959658Y-8048984D02*
X18978705Y-8039460D01*
X18978705Y-8039460D02*
X18988229Y-8029936D01*
X18988229Y-8029936D02*
X18997753Y-8010888D01*
X18997753Y-8010888D02*
X18997753Y-7963269D01*
X18997753Y-7963269D02*
X18988229Y-7944222D01*
X18988229Y-7944222D02*
X18978705Y-7934698D01*
X18978705Y-7934698D02*
X18959658Y-7925174D01*
X18959658Y-7925174D02*
X18921563Y-7925174D01*
X18921563Y-7925174D02*
X18902515Y-7934698D01*
X18902515Y-7934698D02*
X18892991Y-7944222D01*
X18892991Y-7944222D02*
X18883467Y-7963269D01*
X19121563Y-7848984D02*
X19140610Y-7848984D01*
X19140610Y-7848984D02*
X19159658Y-7858508D01*
X19159658Y-7858508D02*
X19169182Y-7868031D01*
X19169182Y-7868031D02*
X19178705Y-7887079D01*
X19178705Y-7887079D02*
X19188229Y-7925174D01*
X19188229Y-7925174D02*
X19188229Y-7972793D01*
X19188229Y-7972793D02*
X19178705Y-8010888D01*
X19178705Y-8010888D02*
X19169182Y-8029936D01*
X19169182Y-8029936D02*
X19159658Y-8039460D01*
X19159658Y-8039460D02*
X19140610Y-8048984D01*
X19140610Y-8048984D02*
X19121563Y-8048984D01*
X19121563Y-8048984D02*
X19102515Y-8039460D01*
X19102515Y-8039460D02*
X19092991Y-8029936D01*
X19092991Y-8029936D02*
X19083467Y-8010888D01*
X19083467Y-8010888D02*
X19073944Y-7972793D01*
X19073944Y-7972793D02*
X19073944Y-7925174D01*
X19073944Y-7925174D02*
X19083467Y-7887079D01*
X19083467Y-7887079D02*
X19092991Y-7868031D01*
X19092991Y-7868031D02*
X19102515Y-7858508D01*
X19102515Y-7858508D02*
X19121563Y-7848984D01*
X19312039Y-7848984D02*
X19331086Y-7848984D01*
X19331086Y-7848984D02*
X19350134Y-7858508D01*
X19350134Y-7858508D02*
X19359658Y-7868031D01*
X19359658Y-7868031D02*
X19369182Y-7887079D01*
X19369182Y-7887079D02*
X19378705Y-7925174D01*
X19378705Y-7925174D02*
X19378705Y-7972793D01*
X19378705Y-7972793D02*
X19369182Y-8010888D01*
X19369182Y-8010888D02*
X19359658Y-8029936D01*
X19359658Y-8029936D02*
X19350134Y-8039460D01*
X19350134Y-8039460D02*
X19331086Y-8048984D01*
X19331086Y-8048984D02*
X19312039Y-8048984D01*
X19312039Y-8048984D02*
X19292991Y-8039460D01*
X19292991Y-8039460D02*
X19283467Y-8029936D01*
X19283467Y-8029936D02*
X19273944Y-8010888D01*
X19273944Y-8010888D02*
X19264420Y-7972793D01*
X19264420Y-7972793D02*
X19264420Y-7925174D01*
X19264420Y-7925174D02*
X19273944Y-7887079D01*
X19273944Y-7887079D02*
X19283467Y-7868031D01*
X19283467Y-7868031D02*
X19292991Y-7858508D01*
X19292991Y-7858508D02*
X19312039Y-7848984D01*
X19464420Y-8048984D02*
X19464420Y-7915650D01*
X19464420Y-7934698D02*
X19473944Y-7925174D01*
X19473944Y-7925174D02*
X19492991Y-7915650D01*
X19492991Y-7915650D02*
X19521563Y-7915650D01*
X19521563Y-7915650D02*
X19540610Y-7925174D01*
X19540610Y-7925174D02*
X19550134Y-7944222D01*
X19550134Y-7944222D02*
X19550134Y-8048984D01*
X19550134Y-7944222D02*
X19559658Y-7925174D01*
X19559658Y-7925174D02*
X19578705Y-7915650D01*
X19578705Y-7915650D02*
X19607277Y-7915650D01*
X19607277Y-7915650D02*
X19626325Y-7925174D01*
X19626325Y-7925174D02*
X19635848Y-7944222D01*
X19635848Y-7944222D02*
X19635848Y-8048984D01*
X19731086Y-8048984D02*
X19731086Y-7915650D01*
X19731086Y-7934698D02*
X19740610Y-7925174D01*
X19740610Y-7925174D02*
X19759658Y-7915650D01*
X19759658Y-7915650D02*
X19788229Y-7915650D01*
X19788229Y-7915650D02*
X19807277Y-7925174D01*
X19807277Y-7925174D02*
X19816801Y-7944222D01*
X19816801Y-7944222D02*
X19816801Y-8048984D01*
X19816801Y-7944222D02*
X19826325Y-7925174D01*
X19826325Y-7925174D02*
X19845372Y-7915650D01*
X19845372Y-7915650D02*
X19873944Y-7915650D01*
X19873944Y-7915650D02*
X19892991Y-7925174D01*
X19892991Y-7925174D02*
X19902515Y-7944222D01*
X19902515Y-7944222D02*
X19902515Y-8048984D01*
X20292991Y-7839460D02*
X20121563Y-8096603D01*
X20550134Y-7848984D02*
X20569182Y-7848984D01*
X20569182Y-7848984D02*
X20588229Y-7858508D01*
X20588229Y-7858508D02*
X20597753Y-7868031D01*
X20597753Y-7868031D02*
X20607277Y-7887079D01*
X20607277Y-7887079D02*
X20616801Y-7925174D01*
X20616801Y-7925174D02*
X20616801Y-7972793D01*
X20616801Y-7972793D02*
X20607277Y-8010888D01*
X20607277Y-8010888D02*
X20597753Y-8029936D01*
X20597753Y-8029936D02*
X20588229Y-8039460D01*
X20588229Y-8039460D02*
X20569182Y-8048984D01*
X20569182Y-8048984D02*
X20550134Y-8048984D01*
X20550134Y-8048984D02*
X20531087Y-8039460D01*
X20531087Y-8039460D02*
X20521563Y-8029936D01*
X20521563Y-8029936D02*
X20512039Y-8010888D01*
X20512039Y-8010888D02*
X20502515Y-7972793D01*
X20502515Y-7972793D02*
X20502515Y-7925174D01*
X20502515Y-7925174D02*
X20512039Y-7887079D01*
X20512039Y-7887079D02*
X20521563Y-7868031D01*
X20521563Y-7868031D02*
X20531087Y-7858508D01*
X20531087Y-7858508D02*
X20550134Y-7848984D01*
X20702515Y-8029936D02*
X20712039Y-8039460D01*
X20712039Y-8039460D02*
X20702515Y-8048984D01*
X20702515Y-8048984D02*
X20692991Y-8039460D01*
X20692991Y-8039460D02*
X20702515Y-8029936D01*
X20702515Y-8029936D02*
X20702515Y-8048984D01*
X20835848Y-7848984D02*
X20854896Y-7848984D01*
X20854896Y-7848984D02*
X20873944Y-7858508D01*
X20873944Y-7858508D02*
X20883468Y-7868031D01*
X20883468Y-7868031D02*
X20892991Y-7887079D01*
X20892991Y-7887079D02*
X20902515Y-7925174D01*
X20902515Y-7925174D02*
X20902515Y-7972793D01*
X20902515Y-7972793D02*
X20892991Y-8010888D01*
X20892991Y-8010888D02*
X20883468Y-8029936D01*
X20883468Y-8029936D02*
X20873944Y-8039460D01*
X20873944Y-8039460D02*
X20854896Y-8048984D01*
X20854896Y-8048984D02*
X20835848Y-8048984D01*
X20835848Y-8048984D02*
X20816801Y-8039460D01*
X20816801Y-8039460D02*
X20807277Y-8029936D01*
X20807277Y-8029936D02*
X20797753Y-8010888D01*
X20797753Y-8010888D02*
X20788229Y-7972793D01*
X20788229Y-7972793D02*
X20788229Y-7925174D01*
X20788229Y-7925174D02*
X20797753Y-7887079D01*
X20797753Y-7887079D02*
X20807277Y-7868031D01*
X20807277Y-7868031D02*
X20816801Y-7858508D01*
X20816801Y-7858508D02*
X20835848Y-7848984D01*
X20978706Y-7868031D02*
X20988229Y-7858508D01*
X20988229Y-7858508D02*
X21007277Y-7848984D01*
X21007277Y-7848984D02*
X21054896Y-7848984D01*
X21054896Y-7848984D02*
X21073944Y-7858508D01*
X21073944Y-7858508D02*
X21083468Y-7868031D01*
X21083468Y-7868031D02*
X21092991Y-7887079D01*
X21092991Y-7887079D02*
X21092991Y-7906127D01*
X21092991Y-7906127D02*
X21083468Y-7934698D01*
X21083468Y-7934698D02*
X20969182Y-8048984D01*
X20969182Y-8048984D02*
X21092991Y-8048984D01*
X21159658Y-7848984D02*
X21283468Y-7848984D01*
X21283468Y-7848984D02*
X21216801Y-7925174D01*
X21216801Y-7925174D02*
X21245372Y-7925174D01*
X21245372Y-7925174D02*
X21264420Y-7934698D01*
X21264420Y-7934698D02*
X21273944Y-7944222D01*
X21273944Y-7944222D02*
X21283468Y-7963269D01*
X21283468Y-7963269D02*
X21283468Y-8010888D01*
X21283468Y-8010888D02*
X21273944Y-8029936D01*
X21273944Y-8029936D02*
X21264420Y-8039460D01*
X21264420Y-8039460D02*
X21245372Y-8048984D01*
X21245372Y-8048984D02*
X21188229Y-8048984D01*
X21188229Y-8048984D02*
X21169182Y-8039460D01*
X21169182Y-8039460D02*
X21159658Y-8029936D01*
X21454896Y-7848984D02*
X21416801Y-7848984D01*
X21416801Y-7848984D02*
X21397753Y-7858508D01*
X21397753Y-7858508D02*
X21388229Y-7868031D01*
X21388229Y-7868031D02*
X21369182Y-7896603D01*
X21369182Y-7896603D02*
X21359658Y-7934698D01*
X21359658Y-7934698D02*
X21359658Y-8010888D01*
X21359658Y-8010888D02*
X21369182Y-8029936D01*
X21369182Y-8029936D02*
X21378706Y-8039460D01*
X21378706Y-8039460D02*
X21397753Y-8048984D01*
X21397753Y-8048984D02*
X21435849Y-8048984D01*
X21435849Y-8048984D02*
X21454896Y-8039460D01*
X21454896Y-8039460D02*
X21464420Y-8029936D01*
X21464420Y-8029936D02*
X21473944Y-8010888D01*
X21473944Y-8010888D02*
X21473944Y-7963269D01*
X21473944Y-7963269D02*
X21464420Y-7944222D01*
X21464420Y-7944222D02*
X21454896Y-7934698D01*
X21454896Y-7934698D02*
X21435849Y-7925174D01*
X21435849Y-7925174D02*
X21397753Y-7925174D01*
X21397753Y-7925174D02*
X21378706Y-7934698D01*
X21378706Y-7934698D02*
X21369182Y-7944222D01*
X21369182Y-7944222D02*
X21359658Y-7963269D01*
X21550134Y-7848984D02*
X21550134Y-7887079D01*
X21626325Y-7848984D02*
X21626325Y-7887079D01*
X21921563Y-8125174D02*
X21912039Y-8115650D01*
X21912039Y-8115650D02*
X21892991Y-8087079D01*
X21892991Y-8087079D02*
X21883468Y-8068031D01*
X21883468Y-8068031D02*
X21873944Y-8039460D01*
X21873944Y-8039460D02*
X21864420Y-7991841D01*
X21864420Y-7991841D02*
X21864420Y-7953746D01*
X21864420Y-7953746D02*
X21873944Y-7906127D01*
X21873944Y-7906127D02*
X21883468Y-7877555D01*
X21883468Y-7877555D02*
X21892991Y-7858508D01*
X21892991Y-7858508D02*
X21912039Y-7829936D01*
X21912039Y-7829936D02*
X21921563Y-7820412D01*
X22035849Y-7848984D02*
X22054896Y-7848984D01*
X22054896Y-7848984D02*
X22073944Y-7858508D01*
X22073944Y-7858508D02*
X22083468Y-7868031D01*
X22083468Y-7868031D02*
X22092991Y-7887079D01*
X22092991Y-7887079D02*
X22102515Y-7925174D01*
X22102515Y-7925174D02*
X22102515Y-7972793D01*
X22102515Y-7972793D02*
X22092991Y-8010888D01*
X22092991Y-8010888D02*
X22083468Y-8029936D01*
X22083468Y-8029936D02*
X22073944Y-8039460D01*
X22073944Y-8039460D02*
X22054896Y-8048984D01*
X22054896Y-8048984D02*
X22035849Y-8048984D01*
X22035849Y-8048984D02*
X22016801Y-8039460D01*
X22016801Y-8039460D02*
X22007277Y-8029936D01*
X22007277Y-8029936D02*
X21997753Y-8010888D01*
X21997753Y-8010888D02*
X21988230Y-7972793D01*
X21988230Y-7972793D02*
X21988230Y-7925174D01*
X21988230Y-7925174D02*
X21997753Y-7887079D01*
X21997753Y-7887079D02*
X22007277Y-7868031D01*
X22007277Y-7868031D02*
X22016801Y-7858508D01*
X22016801Y-7858508D02*
X22035849Y-7848984D01*
X22340611Y-8048984D02*
X22340611Y-7848984D01*
X22426325Y-8048984D02*
X22426325Y-7944222D01*
X22426325Y-7944222D02*
X22416801Y-7925174D01*
X22416801Y-7925174D02*
X22397753Y-7915650D01*
X22397753Y-7915650D02*
X22369182Y-7915650D01*
X22369182Y-7915650D02*
X22350134Y-7925174D01*
X22350134Y-7925174D02*
X22340611Y-7934698D01*
X22550134Y-8048984D02*
X22531087Y-8039460D01*
X22531087Y-8039460D02*
X22521563Y-8029936D01*
X22521563Y-8029936D02*
X22512039Y-8010888D01*
X22512039Y-8010888D02*
X22512039Y-7953746D01*
X22512039Y-7953746D02*
X22521563Y-7934698D01*
X22521563Y-7934698D02*
X22531087Y-7925174D01*
X22531087Y-7925174D02*
X22550134Y-7915650D01*
X22550134Y-7915650D02*
X22578706Y-7915650D01*
X22578706Y-7915650D02*
X22597753Y-7925174D01*
X22597753Y-7925174D02*
X22607277Y-7934698D01*
X22607277Y-7934698D02*
X22616801Y-7953746D01*
X22616801Y-7953746D02*
X22616801Y-8010888D01*
X22616801Y-8010888D02*
X22607277Y-8029936D01*
X22607277Y-8029936D02*
X22597753Y-8039460D01*
X22597753Y-8039460D02*
X22578706Y-8048984D01*
X22578706Y-8048984D02*
X22550134Y-8048984D01*
X22731087Y-8048984D02*
X22712039Y-8039460D01*
X22712039Y-8039460D02*
X22702515Y-8020412D01*
X22702515Y-8020412D02*
X22702515Y-7848984D01*
X22883468Y-8039460D02*
X22864420Y-8048984D01*
X22864420Y-8048984D02*
X22826325Y-8048984D01*
X22826325Y-8048984D02*
X22807277Y-8039460D01*
X22807277Y-8039460D02*
X22797753Y-8020412D01*
X22797753Y-8020412D02*
X22797753Y-7944222D01*
X22797753Y-7944222D02*
X22807277Y-7925174D01*
X22807277Y-7925174D02*
X22826325Y-7915650D01*
X22826325Y-7915650D02*
X22864420Y-7915650D01*
X22864420Y-7915650D02*
X22883468Y-7925174D01*
X22883468Y-7925174D02*
X22892991Y-7944222D01*
X22892991Y-7944222D02*
X22892991Y-7963269D01*
X22892991Y-7963269D02*
X22797753Y-7982317D01*
X22969182Y-8039460D02*
X22988230Y-8048984D01*
X22988230Y-8048984D02*
X23026325Y-8048984D01*
X23026325Y-8048984D02*
X23045372Y-8039460D01*
X23045372Y-8039460D02*
X23054896Y-8020412D01*
X23054896Y-8020412D02*
X23054896Y-8010888D01*
X23054896Y-8010888D02*
X23045372Y-7991841D01*
X23045372Y-7991841D02*
X23026325Y-7982317D01*
X23026325Y-7982317D02*
X22997753Y-7982317D01*
X22997753Y-7982317D02*
X22978706Y-7972793D01*
X22978706Y-7972793D02*
X22969182Y-7953746D01*
X22969182Y-7953746D02*
X22969182Y-7944222D01*
X22969182Y-7944222D02*
X22978706Y-7925174D01*
X22978706Y-7925174D02*
X22997753Y-7915650D01*
X22997753Y-7915650D02*
X23026325Y-7915650D01*
X23026325Y-7915650D02*
X23045372Y-7925174D01*
X23292992Y-7972793D02*
X23445373Y-7972793D01*
X23369182Y-8048984D02*
X23369182Y-7896603D01*
X23683468Y-7868031D02*
X23692992Y-7858508D01*
X23692992Y-7858508D02*
X23712039Y-7848984D01*
X23712039Y-7848984D02*
X23759658Y-7848984D01*
X23759658Y-7848984D02*
X23778706Y-7858508D01*
X23778706Y-7858508D02*
X23788230Y-7868031D01*
X23788230Y-7868031D02*
X23797753Y-7887079D01*
X23797753Y-7887079D02*
X23797753Y-7906127D01*
X23797753Y-7906127D02*
X23788230Y-7934698D01*
X23788230Y-7934698D02*
X23673944Y-8048984D01*
X23673944Y-8048984D02*
X23797753Y-8048984D01*
X24026325Y-8039460D02*
X24045373Y-8048984D01*
X24045373Y-8048984D02*
X24083468Y-8048984D01*
X24083468Y-8048984D02*
X24102515Y-8039460D01*
X24102515Y-8039460D02*
X24112039Y-8020412D01*
X24112039Y-8020412D02*
X24112039Y-8010888D01*
X24112039Y-8010888D02*
X24102515Y-7991841D01*
X24102515Y-7991841D02*
X24083468Y-7982317D01*
X24083468Y-7982317D02*
X24054896Y-7982317D01*
X24054896Y-7982317D02*
X24035849Y-7972793D01*
X24035849Y-7972793D02*
X24026325Y-7953746D01*
X24026325Y-7953746D02*
X24026325Y-7944222D01*
X24026325Y-7944222D02*
X24035849Y-7925174D01*
X24035849Y-7925174D02*
X24054896Y-7915650D01*
X24054896Y-7915650D02*
X24083468Y-7915650D01*
X24083468Y-7915650D02*
X24102515Y-7925174D01*
X24226325Y-8048984D02*
X24207277Y-8039460D01*
X24207277Y-8039460D02*
X24197754Y-8020412D01*
X24197754Y-8020412D02*
X24197754Y-7848984D01*
X24331087Y-8048984D02*
X24312039Y-8039460D01*
X24312039Y-8039460D02*
X24302515Y-8029936D01*
X24302515Y-8029936D02*
X24292992Y-8010888D01*
X24292992Y-8010888D02*
X24292992Y-7953746D01*
X24292992Y-7953746D02*
X24302515Y-7934698D01*
X24302515Y-7934698D02*
X24312039Y-7925174D01*
X24312039Y-7925174D02*
X24331087Y-7915650D01*
X24331087Y-7915650D02*
X24359658Y-7915650D01*
X24359658Y-7915650D02*
X24378706Y-7925174D01*
X24378706Y-7925174D02*
X24388230Y-7934698D01*
X24388230Y-7934698D02*
X24397754Y-7953746D01*
X24397754Y-7953746D02*
X24397754Y-8010888D01*
X24397754Y-8010888D02*
X24388230Y-8029936D01*
X24388230Y-8029936D02*
X24378706Y-8039460D01*
X24378706Y-8039460D02*
X24359658Y-8048984D01*
X24359658Y-8048984D02*
X24331087Y-8048984D01*
X24454896Y-7915650D02*
X24531087Y-7915650D01*
X24483468Y-7848984D02*
X24483468Y-8020412D01*
X24483468Y-8020412D02*
X24492992Y-8039460D01*
X24492992Y-8039460D02*
X24512039Y-8048984D01*
X24512039Y-8048984D02*
X24531087Y-8048984D01*
X24588230Y-8039460D02*
X24607277Y-8048984D01*
X24607277Y-8048984D02*
X24645373Y-8048984D01*
X24645373Y-8048984D02*
X24664420Y-8039460D01*
X24664420Y-8039460D02*
X24673944Y-8020412D01*
X24673944Y-8020412D02*
X24673944Y-8010888D01*
X24673944Y-8010888D02*
X24664420Y-7991841D01*
X24664420Y-7991841D02*
X24645373Y-7982317D01*
X24645373Y-7982317D02*
X24616801Y-7982317D01*
X24616801Y-7982317D02*
X24597754Y-7972793D01*
X24597754Y-7972793D02*
X24588230Y-7953746D01*
X24588230Y-7953746D02*
X24588230Y-7944222D01*
X24588230Y-7944222D02*
X24597754Y-7925174D01*
X24597754Y-7925174D02*
X24616801Y-7915650D01*
X24616801Y-7915650D02*
X24645373Y-7915650D01*
X24645373Y-7915650D02*
X24664420Y-7925174D01*
X24740611Y-8125174D02*
X24750135Y-8115650D01*
X24750135Y-8115650D02*
X24769182Y-8087079D01*
X24769182Y-8087079D02*
X24778706Y-8068031D01*
X24778706Y-8068031D02*
X24788230Y-8039460D01*
X24788230Y-8039460D02*
X24797754Y-7991841D01*
X24797754Y-7991841D02*
X24797754Y-7953746D01*
X24797754Y-7953746D02*
X24788230Y-7906127D01*
X24788230Y-7906127D02*
X24778706Y-7877555D01*
X24778706Y-7877555D02*
X24769182Y-7858508D01*
X24769182Y-7858508D02*
X24750135Y-7829936D01*
X24750135Y-7829936D02*
X24740611Y-7820412D01*
D10*
X18304000Y-8179000D02*
X18304000Y-8264000D01*
X18261500Y-8221500D02*
X18346500Y-8221500D01*
D11*
X18645372Y-8112984D02*
X18664420Y-8112984D01*
X18664420Y-8112984D02*
X18683467Y-8122508D01*
X18683467Y-8122508D02*
X18692991Y-8132031D01*
X18692991Y-8132031D02*
X18702515Y-8151079D01*
X18702515Y-8151079D02*
X18712039Y-8189174D01*
X18712039Y-8189174D02*
X18712039Y-8236793D01*
X18712039Y-8236793D02*
X18702515Y-8274888D01*
X18702515Y-8274888D02*
X18692991Y-8293936D01*
X18692991Y-8293936D02*
X18683467Y-8303460D01*
X18683467Y-8303460D02*
X18664420Y-8312984D01*
X18664420Y-8312984D02*
X18645372Y-8312984D01*
X18645372Y-8312984D02*
X18626324Y-8303460D01*
X18626324Y-8303460D02*
X18616801Y-8293936D01*
X18616801Y-8293936D02*
X18607277Y-8274888D01*
X18607277Y-8274888D02*
X18597753Y-8236793D01*
X18597753Y-8236793D02*
X18597753Y-8189174D01*
X18597753Y-8189174D02*
X18607277Y-8151079D01*
X18607277Y-8151079D02*
X18616801Y-8132031D01*
X18616801Y-8132031D02*
X18626324Y-8122508D01*
X18626324Y-8122508D02*
X18645372Y-8112984D01*
X18797753Y-8293936D02*
X18807277Y-8303460D01*
X18807277Y-8303460D02*
X18797753Y-8312984D01*
X18797753Y-8312984D02*
X18788229Y-8303460D01*
X18788229Y-8303460D02*
X18797753Y-8293936D01*
X18797753Y-8293936D02*
X18797753Y-8312984D01*
X18921563Y-8198698D02*
X18902515Y-8189174D01*
X18902515Y-8189174D02*
X18892991Y-8179650D01*
X18892991Y-8179650D02*
X18883467Y-8160603D01*
X18883467Y-8160603D02*
X18883467Y-8151079D01*
X18883467Y-8151079D02*
X18892991Y-8132031D01*
X18892991Y-8132031D02*
X18902515Y-8122508D01*
X18902515Y-8122508D02*
X18921563Y-8112984D01*
X18921563Y-8112984D02*
X18959658Y-8112984D01*
X18959658Y-8112984D02*
X18978705Y-8122508D01*
X18978705Y-8122508D02*
X18988229Y-8132031D01*
X18988229Y-8132031D02*
X18997753Y-8151079D01*
X18997753Y-8151079D02*
X18997753Y-8160603D01*
X18997753Y-8160603D02*
X18988229Y-8179650D01*
X18988229Y-8179650D02*
X18978705Y-8189174D01*
X18978705Y-8189174D02*
X18959658Y-8198698D01*
X18959658Y-8198698D02*
X18921563Y-8198698D01*
X18921563Y-8198698D02*
X18902515Y-8208222D01*
X18902515Y-8208222D02*
X18892991Y-8217746D01*
X18892991Y-8217746D02*
X18883467Y-8236793D01*
X18883467Y-8236793D02*
X18883467Y-8274888D01*
X18883467Y-8274888D02*
X18892991Y-8293936D01*
X18892991Y-8293936D02*
X18902515Y-8303460D01*
X18902515Y-8303460D02*
X18921563Y-8312984D01*
X18921563Y-8312984D02*
X18959658Y-8312984D01*
X18959658Y-8312984D02*
X18978705Y-8303460D01*
X18978705Y-8303460D02*
X18988229Y-8293936D01*
X18988229Y-8293936D02*
X18997753Y-8274888D01*
X18997753Y-8274888D02*
X18997753Y-8236793D01*
X18997753Y-8236793D02*
X18988229Y-8217746D01*
X18988229Y-8217746D02*
X18978705Y-8208222D01*
X18978705Y-8208222D02*
X18959658Y-8198698D01*
X19178705Y-8112984D02*
X19083467Y-8112984D01*
X19083467Y-8112984D02*
X19073944Y-8208222D01*
X19073944Y-8208222D02*
X19083467Y-8198698D01*
X19083467Y-8198698D02*
X19102515Y-8189174D01*
X19102515Y-8189174D02*
X19150134Y-8189174D01*
X19150134Y-8189174D02*
X19169182Y-8198698D01*
X19169182Y-8198698D02*
X19178705Y-8208222D01*
X19178705Y-8208222D02*
X19188229Y-8227269D01*
X19188229Y-8227269D02*
X19188229Y-8274888D01*
X19188229Y-8274888D02*
X19178705Y-8293936D01*
X19178705Y-8293936D02*
X19169182Y-8303460D01*
X19169182Y-8303460D02*
X19150134Y-8312984D01*
X19150134Y-8312984D02*
X19102515Y-8312984D01*
X19102515Y-8312984D02*
X19083467Y-8303460D01*
X19083467Y-8303460D02*
X19073944Y-8293936D01*
X19312039Y-8112984D02*
X19331086Y-8112984D01*
X19331086Y-8112984D02*
X19350134Y-8122508D01*
X19350134Y-8122508D02*
X19359658Y-8132031D01*
X19359658Y-8132031D02*
X19369182Y-8151079D01*
X19369182Y-8151079D02*
X19378705Y-8189174D01*
X19378705Y-8189174D02*
X19378705Y-8236793D01*
X19378705Y-8236793D02*
X19369182Y-8274888D01*
X19369182Y-8274888D02*
X19359658Y-8293936D01*
X19359658Y-8293936D02*
X19350134Y-8303460D01*
X19350134Y-8303460D02*
X19331086Y-8312984D01*
X19331086Y-8312984D02*
X19312039Y-8312984D01*
X19312039Y-8312984D02*
X19292991Y-8303460D01*
X19292991Y-8303460D02*
X19283467Y-8293936D01*
X19283467Y-8293936D02*
X19273944Y-8274888D01*
X19273944Y-8274888D02*
X19264420Y-8236793D01*
X19264420Y-8236793D02*
X19264420Y-8189174D01*
X19264420Y-8189174D02*
X19273944Y-8151079D01*
X19273944Y-8151079D02*
X19283467Y-8132031D01*
X19283467Y-8132031D02*
X19292991Y-8122508D01*
X19292991Y-8122508D02*
X19312039Y-8112984D01*
X19464420Y-8312984D02*
X19464420Y-8179650D01*
X19464420Y-8198698D02*
X19473944Y-8189174D01*
X19473944Y-8189174D02*
X19492991Y-8179650D01*
X19492991Y-8179650D02*
X19521563Y-8179650D01*
X19521563Y-8179650D02*
X19540610Y-8189174D01*
X19540610Y-8189174D02*
X19550134Y-8208222D01*
X19550134Y-8208222D02*
X19550134Y-8312984D01*
X19550134Y-8208222D02*
X19559658Y-8189174D01*
X19559658Y-8189174D02*
X19578705Y-8179650D01*
X19578705Y-8179650D02*
X19607277Y-8179650D01*
X19607277Y-8179650D02*
X19626325Y-8189174D01*
X19626325Y-8189174D02*
X19635848Y-8208222D01*
X19635848Y-8208222D02*
X19635848Y-8312984D01*
X19731086Y-8312984D02*
X19731086Y-8179650D01*
X19731086Y-8198698D02*
X19740610Y-8189174D01*
X19740610Y-8189174D02*
X19759658Y-8179650D01*
X19759658Y-8179650D02*
X19788229Y-8179650D01*
X19788229Y-8179650D02*
X19807277Y-8189174D01*
X19807277Y-8189174D02*
X19816801Y-8208222D01*
X19816801Y-8208222D02*
X19816801Y-8312984D01*
X19816801Y-8208222D02*
X19826325Y-8189174D01*
X19826325Y-8189174D02*
X19845372Y-8179650D01*
X19845372Y-8179650D02*
X19873944Y-8179650D01*
X19873944Y-8179650D02*
X19892991Y-8189174D01*
X19892991Y-8189174D02*
X19902515Y-8208222D01*
X19902515Y-8208222D02*
X19902515Y-8312984D01*
X20292991Y-8103460D02*
X20121563Y-8360603D01*
X20550134Y-8112984D02*
X20569182Y-8112984D01*
X20569182Y-8112984D02*
X20588229Y-8122508D01*
X20588229Y-8122508D02*
X20597753Y-8132031D01*
X20597753Y-8132031D02*
X20607277Y-8151079D01*
X20607277Y-8151079D02*
X20616801Y-8189174D01*
X20616801Y-8189174D02*
X20616801Y-8236793D01*
X20616801Y-8236793D02*
X20607277Y-8274888D01*
X20607277Y-8274888D02*
X20597753Y-8293936D01*
X20597753Y-8293936D02*
X20588229Y-8303460D01*
X20588229Y-8303460D02*
X20569182Y-8312984D01*
X20569182Y-8312984D02*
X20550134Y-8312984D01*
X20550134Y-8312984D02*
X20531087Y-8303460D01*
X20531087Y-8303460D02*
X20521563Y-8293936D01*
X20521563Y-8293936D02*
X20512039Y-8274888D01*
X20512039Y-8274888D02*
X20502515Y-8236793D01*
X20502515Y-8236793D02*
X20502515Y-8189174D01*
X20502515Y-8189174D02*
X20512039Y-8151079D01*
X20512039Y-8151079D02*
X20521563Y-8132031D01*
X20521563Y-8132031D02*
X20531087Y-8122508D01*
X20531087Y-8122508D02*
X20550134Y-8112984D01*
X20702515Y-8293936D02*
X20712039Y-8303460D01*
X20712039Y-8303460D02*
X20702515Y-8312984D01*
X20702515Y-8312984D02*
X20692991Y-8303460D01*
X20692991Y-8303460D02*
X20702515Y-8293936D01*
X20702515Y-8293936D02*
X20702515Y-8312984D01*
X20835848Y-8112984D02*
X20854896Y-8112984D01*
X20854896Y-8112984D02*
X20873944Y-8122508D01*
X20873944Y-8122508D02*
X20883468Y-8132031D01*
X20883468Y-8132031D02*
X20892991Y-8151079D01*
X20892991Y-8151079D02*
X20902515Y-8189174D01*
X20902515Y-8189174D02*
X20902515Y-8236793D01*
X20902515Y-8236793D02*
X20892991Y-8274888D01*
X20892991Y-8274888D02*
X20883468Y-8293936D01*
X20883468Y-8293936D02*
X20873944Y-8303460D01*
X20873944Y-8303460D02*
X20854896Y-8312984D01*
X20854896Y-8312984D02*
X20835848Y-8312984D01*
X20835848Y-8312984D02*
X20816801Y-8303460D01*
X20816801Y-8303460D02*
X20807277Y-8293936D01*
X20807277Y-8293936D02*
X20797753Y-8274888D01*
X20797753Y-8274888D02*
X20788229Y-8236793D01*
X20788229Y-8236793D02*
X20788229Y-8189174D01*
X20788229Y-8189174D02*
X20797753Y-8151079D01*
X20797753Y-8151079D02*
X20807277Y-8132031D01*
X20807277Y-8132031D02*
X20816801Y-8122508D01*
X20816801Y-8122508D02*
X20835848Y-8112984D01*
X20969182Y-8112984D02*
X21092991Y-8112984D01*
X21092991Y-8112984D02*
X21026325Y-8189174D01*
X21026325Y-8189174D02*
X21054896Y-8189174D01*
X21054896Y-8189174D02*
X21073944Y-8198698D01*
X21073944Y-8198698D02*
X21083468Y-8208222D01*
X21083468Y-8208222D02*
X21092991Y-8227269D01*
X21092991Y-8227269D02*
X21092991Y-8274888D01*
X21092991Y-8274888D02*
X21083468Y-8293936D01*
X21083468Y-8293936D02*
X21073944Y-8303460D01*
X21073944Y-8303460D02*
X21054896Y-8312984D01*
X21054896Y-8312984D02*
X20997753Y-8312984D01*
X20997753Y-8312984D02*
X20978706Y-8303460D01*
X20978706Y-8303460D02*
X20969182Y-8293936D01*
X21159658Y-8112984D02*
X21283468Y-8112984D01*
X21283468Y-8112984D02*
X21216801Y-8189174D01*
X21216801Y-8189174D02*
X21245372Y-8189174D01*
X21245372Y-8189174D02*
X21264420Y-8198698D01*
X21264420Y-8198698D02*
X21273944Y-8208222D01*
X21273944Y-8208222D02*
X21283468Y-8227269D01*
X21283468Y-8227269D02*
X21283468Y-8274888D01*
X21283468Y-8274888D02*
X21273944Y-8293936D01*
X21273944Y-8293936D02*
X21264420Y-8303460D01*
X21264420Y-8303460D02*
X21245372Y-8312984D01*
X21245372Y-8312984D02*
X21188229Y-8312984D01*
X21188229Y-8312984D02*
X21169182Y-8303460D01*
X21169182Y-8303460D02*
X21159658Y-8293936D01*
X21464420Y-8112984D02*
X21369182Y-8112984D01*
X21369182Y-8112984D02*
X21359658Y-8208222D01*
X21359658Y-8208222D02*
X21369182Y-8198698D01*
X21369182Y-8198698D02*
X21388229Y-8189174D01*
X21388229Y-8189174D02*
X21435849Y-8189174D01*
X21435849Y-8189174D02*
X21454896Y-8198698D01*
X21454896Y-8198698D02*
X21464420Y-8208222D01*
X21464420Y-8208222D02*
X21473944Y-8227269D01*
X21473944Y-8227269D02*
X21473944Y-8274888D01*
X21473944Y-8274888D02*
X21464420Y-8293936D01*
X21464420Y-8293936D02*
X21454896Y-8303460D01*
X21454896Y-8303460D02*
X21435849Y-8312984D01*
X21435849Y-8312984D02*
X21388229Y-8312984D01*
X21388229Y-8312984D02*
X21369182Y-8303460D01*
X21369182Y-8303460D02*
X21359658Y-8293936D01*
X21550134Y-8112984D02*
X21550134Y-8151079D01*
X21626325Y-8112984D02*
X21626325Y-8151079D01*
X21921563Y-8389174D02*
X21912039Y-8379650D01*
X21912039Y-8379650D02*
X21892991Y-8351079D01*
X21892991Y-8351079D02*
X21883468Y-8332031D01*
X21883468Y-8332031D02*
X21873944Y-8303460D01*
X21873944Y-8303460D02*
X21864420Y-8255841D01*
X21864420Y-8255841D02*
X21864420Y-8217746D01*
X21864420Y-8217746D02*
X21873944Y-8170127D01*
X21873944Y-8170127D02*
X21883468Y-8141555D01*
X21883468Y-8141555D02*
X21892991Y-8122508D01*
X21892991Y-8122508D02*
X21912039Y-8093936D01*
X21912039Y-8093936D02*
X21921563Y-8084412D01*
X21988230Y-8132031D02*
X21997753Y-8122508D01*
X21997753Y-8122508D02*
X22016801Y-8112984D01*
X22016801Y-8112984D02*
X22064420Y-8112984D01*
X22064420Y-8112984D02*
X22083468Y-8122508D01*
X22083468Y-8122508D02*
X22092991Y-8132031D01*
X22092991Y-8132031D02*
X22102515Y-8151079D01*
X22102515Y-8151079D02*
X22102515Y-8170127D01*
X22102515Y-8170127D02*
X22092991Y-8198698D01*
X22092991Y-8198698D02*
X21978706Y-8312984D01*
X21978706Y-8312984D02*
X22102515Y-8312984D01*
X22340611Y-8312984D02*
X22340611Y-8112984D01*
X22426325Y-8312984D02*
X22426325Y-8208222D01*
X22426325Y-8208222D02*
X22416801Y-8189174D01*
X22416801Y-8189174D02*
X22397753Y-8179650D01*
X22397753Y-8179650D02*
X22369182Y-8179650D01*
X22369182Y-8179650D02*
X22350134Y-8189174D01*
X22350134Y-8189174D02*
X22340611Y-8198698D01*
X22550134Y-8312984D02*
X22531087Y-8303460D01*
X22531087Y-8303460D02*
X22521563Y-8293936D01*
X22521563Y-8293936D02*
X22512039Y-8274888D01*
X22512039Y-8274888D02*
X22512039Y-8217746D01*
X22512039Y-8217746D02*
X22521563Y-8198698D01*
X22521563Y-8198698D02*
X22531087Y-8189174D01*
X22531087Y-8189174D02*
X22550134Y-8179650D01*
X22550134Y-8179650D02*
X22578706Y-8179650D01*
X22578706Y-8179650D02*
X22597753Y-8189174D01*
X22597753Y-8189174D02*
X22607277Y-8198698D01*
X22607277Y-8198698D02*
X22616801Y-8217746D01*
X22616801Y-8217746D02*
X22616801Y-8274888D01*
X22616801Y-8274888D02*
X22607277Y-8293936D01*
X22607277Y-8293936D02*
X22597753Y-8303460D01*
X22597753Y-8303460D02*
X22578706Y-8312984D01*
X22578706Y-8312984D02*
X22550134Y-8312984D01*
X22731087Y-8312984D02*
X22712039Y-8303460D01*
X22712039Y-8303460D02*
X22702515Y-8284412D01*
X22702515Y-8284412D02*
X22702515Y-8112984D01*
X22883468Y-8303460D02*
X22864420Y-8312984D01*
X22864420Y-8312984D02*
X22826325Y-8312984D01*
X22826325Y-8312984D02*
X22807277Y-8303460D01*
X22807277Y-8303460D02*
X22797753Y-8284412D01*
X22797753Y-8284412D02*
X22797753Y-8208222D01*
X22797753Y-8208222D02*
X22807277Y-8189174D01*
X22807277Y-8189174D02*
X22826325Y-8179650D01*
X22826325Y-8179650D02*
X22864420Y-8179650D01*
X22864420Y-8179650D02*
X22883468Y-8189174D01*
X22883468Y-8189174D02*
X22892991Y-8208222D01*
X22892991Y-8208222D02*
X22892991Y-8227269D01*
X22892991Y-8227269D02*
X22797753Y-8246317D01*
X22969182Y-8303460D02*
X22988230Y-8312984D01*
X22988230Y-8312984D02*
X23026325Y-8312984D01*
X23026325Y-8312984D02*
X23045372Y-8303460D01*
X23045372Y-8303460D02*
X23054896Y-8284412D01*
X23054896Y-8284412D02*
X23054896Y-8274888D01*
X23054896Y-8274888D02*
X23045372Y-8255841D01*
X23045372Y-8255841D02*
X23026325Y-8246317D01*
X23026325Y-8246317D02*
X22997753Y-8246317D01*
X22997753Y-8246317D02*
X22978706Y-8236793D01*
X22978706Y-8236793D02*
X22969182Y-8217746D01*
X22969182Y-8217746D02*
X22969182Y-8208222D01*
X22969182Y-8208222D02*
X22978706Y-8189174D01*
X22978706Y-8189174D02*
X22997753Y-8179650D01*
X22997753Y-8179650D02*
X23026325Y-8179650D01*
X23026325Y-8179650D02*
X23045372Y-8189174D01*
X23121563Y-8389174D02*
X23131087Y-8379650D01*
X23131087Y-8379650D02*
X23150134Y-8351079D01*
X23150134Y-8351079D02*
X23159658Y-8332031D01*
X23159658Y-8332031D02*
X23169182Y-8303460D01*
X23169182Y-8303460D02*
X23178706Y-8255841D01*
X23178706Y-8255841D02*
X23178706Y-8217746D01*
X23178706Y-8217746D02*
X23169182Y-8170127D01*
X23169182Y-8170127D02*
X23159658Y-8141555D01*
X23159658Y-8141555D02*
X23150134Y-8122508D01*
X23150134Y-8122508D02*
X23131087Y-8093936D01*
X23131087Y-8093936D02*
X23121563Y-8084412D01*
D10*
X18331856Y-8520856D02*
X18331856Y-8450144D01*
X18261144Y-8450144D01*
X18261144Y-8520856D01*
X18331856Y-8520856D01*
D11*
X18712039Y-8576984D02*
X18597753Y-8576984D01*
X18654896Y-8576984D02*
X18654896Y-8376984D01*
X18654896Y-8376984D02*
X18635848Y-8405555D01*
X18635848Y-8405555D02*
X18616801Y-8424603D01*
X18616801Y-8424603D02*
X18597753Y-8434127D01*
X18797753Y-8557936D02*
X18807277Y-8567460D01*
X18807277Y-8567460D02*
X18797753Y-8576984D01*
X18797753Y-8576984D02*
X18788229Y-8567460D01*
X18788229Y-8567460D02*
X18797753Y-8557936D01*
X18797753Y-8557936D02*
X18797753Y-8576984D01*
X18931086Y-8376984D02*
X18950134Y-8376984D01*
X18950134Y-8376984D02*
X18969182Y-8386508D01*
X18969182Y-8386508D02*
X18978705Y-8396031D01*
X18978705Y-8396031D02*
X18988229Y-8415079D01*
X18988229Y-8415079D02*
X18997753Y-8453174D01*
X18997753Y-8453174D02*
X18997753Y-8500793D01*
X18997753Y-8500793D02*
X18988229Y-8538889D01*
X18988229Y-8538889D02*
X18978705Y-8557936D01*
X18978705Y-8557936D02*
X18969182Y-8567460D01*
X18969182Y-8567460D02*
X18950134Y-8576984D01*
X18950134Y-8576984D02*
X18931086Y-8576984D01*
X18931086Y-8576984D02*
X18912039Y-8567460D01*
X18912039Y-8567460D02*
X18902515Y-8557936D01*
X18902515Y-8557936D02*
X18892991Y-8538889D01*
X18892991Y-8538889D02*
X18883467Y-8500793D01*
X18883467Y-8500793D02*
X18883467Y-8453174D01*
X18883467Y-8453174D02*
X18892991Y-8415079D01*
X18892991Y-8415079D02*
X18902515Y-8396031D01*
X18902515Y-8396031D02*
X18912039Y-8386508D01*
X18912039Y-8386508D02*
X18931086Y-8376984D01*
X19121563Y-8376984D02*
X19140610Y-8376984D01*
X19140610Y-8376984D02*
X19159658Y-8386508D01*
X19159658Y-8386508D02*
X19169182Y-8396031D01*
X19169182Y-8396031D02*
X19178705Y-8415079D01*
X19178705Y-8415079D02*
X19188229Y-8453174D01*
X19188229Y-8453174D02*
X19188229Y-8500793D01*
X19188229Y-8500793D02*
X19178705Y-8538889D01*
X19178705Y-8538889D02*
X19169182Y-8557936D01*
X19169182Y-8557936D02*
X19159658Y-8567460D01*
X19159658Y-8567460D02*
X19140610Y-8576984D01*
X19140610Y-8576984D02*
X19121563Y-8576984D01*
X19121563Y-8576984D02*
X19102515Y-8567460D01*
X19102515Y-8567460D02*
X19092991Y-8557936D01*
X19092991Y-8557936D02*
X19083467Y-8538889D01*
X19083467Y-8538889D02*
X19073944Y-8500793D01*
X19073944Y-8500793D02*
X19073944Y-8453174D01*
X19073944Y-8453174D02*
X19083467Y-8415079D01*
X19083467Y-8415079D02*
X19092991Y-8396031D01*
X19092991Y-8396031D02*
X19102515Y-8386508D01*
X19102515Y-8386508D02*
X19121563Y-8376984D01*
X19312039Y-8376984D02*
X19331086Y-8376984D01*
X19331086Y-8376984D02*
X19350134Y-8386508D01*
X19350134Y-8386508D02*
X19359658Y-8396031D01*
X19359658Y-8396031D02*
X19369182Y-8415079D01*
X19369182Y-8415079D02*
X19378705Y-8453174D01*
X19378705Y-8453174D02*
X19378705Y-8500793D01*
X19378705Y-8500793D02*
X19369182Y-8538889D01*
X19369182Y-8538889D02*
X19359658Y-8557936D01*
X19359658Y-8557936D02*
X19350134Y-8567460D01*
X19350134Y-8567460D02*
X19331086Y-8576984D01*
X19331086Y-8576984D02*
X19312039Y-8576984D01*
X19312039Y-8576984D02*
X19292991Y-8567460D01*
X19292991Y-8567460D02*
X19283467Y-8557936D01*
X19283467Y-8557936D02*
X19273944Y-8538889D01*
X19273944Y-8538889D02*
X19264420Y-8500793D01*
X19264420Y-8500793D02*
X19264420Y-8453174D01*
X19264420Y-8453174D02*
X19273944Y-8415079D01*
X19273944Y-8415079D02*
X19283467Y-8396031D01*
X19283467Y-8396031D02*
X19292991Y-8386508D01*
X19292991Y-8386508D02*
X19312039Y-8376984D01*
X19464420Y-8576984D02*
X19464420Y-8443650D01*
X19464420Y-8462698D02*
X19473944Y-8453174D01*
X19473944Y-8453174D02*
X19492991Y-8443650D01*
X19492991Y-8443650D02*
X19521563Y-8443650D01*
X19521563Y-8443650D02*
X19540610Y-8453174D01*
X19540610Y-8453174D02*
X19550134Y-8472222D01*
X19550134Y-8472222D02*
X19550134Y-8576984D01*
X19550134Y-8472222D02*
X19559658Y-8453174D01*
X19559658Y-8453174D02*
X19578705Y-8443650D01*
X19578705Y-8443650D02*
X19607277Y-8443650D01*
X19607277Y-8443650D02*
X19626325Y-8453174D01*
X19626325Y-8453174D02*
X19635848Y-8472222D01*
X19635848Y-8472222D02*
X19635848Y-8576984D01*
X19731086Y-8576984D02*
X19731086Y-8443650D01*
X19731086Y-8462698D02*
X19740610Y-8453174D01*
X19740610Y-8453174D02*
X19759658Y-8443650D01*
X19759658Y-8443650D02*
X19788229Y-8443650D01*
X19788229Y-8443650D02*
X19807277Y-8453174D01*
X19807277Y-8453174D02*
X19816801Y-8472222D01*
X19816801Y-8472222D02*
X19816801Y-8576984D01*
X19816801Y-8472222D02*
X19826325Y-8453174D01*
X19826325Y-8453174D02*
X19845372Y-8443650D01*
X19845372Y-8443650D02*
X19873944Y-8443650D01*
X19873944Y-8443650D02*
X19892991Y-8453174D01*
X19892991Y-8453174D02*
X19902515Y-8472222D01*
X19902515Y-8472222D02*
X19902515Y-8576984D01*
X20292991Y-8367460D02*
X20121563Y-8624603D01*
X20550134Y-8376984D02*
X20569182Y-8376984D01*
X20569182Y-8376984D02*
X20588229Y-8386508D01*
X20588229Y-8386508D02*
X20597753Y-8396031D01*
X20597753Y-8396031D02*
X20607277Y-8415079D01*
X20607277Y-8415079D02*
X20616801Y-8453174D01*
X20616801Y-8453174D02*
X20616801Y-8500793D01*
X20616801Y-8500793D02*
X20607277Y-8538889D01*
X20607277Y-8538889D02*
X20597753Y-8557936D01*
X20597753Y-8557936D02*
X20588229Y-8567460D01*
X20588229Y-8567460D02*
X20569182Y-8576984D01*
X20569182Y-8576984D02*
X20550134Y-8576984D01*
X20550134Y-8576984D02*
X20531087Y-8567460D01*
X20531087Y-8567460D02*
X20521563Y-8557936D01*
X20521563Y-8557936D02*
X20512039Y-8538889D01*
X20512039Y-8538889D02*
X20502515Y-8500793D01*
X20502515Y-8500793D02*
X20502515Y-8453174D01*
X20502515Y-8453174D02*
X20512039Y-8415079D01*
X20512039Y-8415079D02*
X20521563Y-8396031D01*
X20521563Y-8396031D02*
X20531087Y-8386508D01*
X20531087Y-8386508D02*
X20550134Y-8376984D01*
X20702515Y-8557936D02*
X20712039Y-8567460D01*
X20712039Y-8567460D02*
X20702515Y-8576984D01*
X20702515Y-8576984D02*
X20692991Y-8567460D01*
X20692991Y-8567460D02*
X20702515Y-8557936D01*
X20702515Y-8557936D02*
X20702515Y-8576984D01*
X20835848Y-8376984D02*
X20854896Y-8376984D01*
X20854896Y-8376984D02*
X20873944Y-8386508D01*
X20873944Y-8386508D02*
X20883468Y-8396031D01*
X20883468Y-8396031D02*
X20892991Y-8415079D01*
X20892991Y-8415079D02*
X20902515Y-8453174D01*
X20902515Y-8453174D02*
X20902515Y-8500793D01*
X20902515Y-8500793D02*
X20892991Y-8538889D01*
X20892991Y-8538889D02*
X20883468Y-8557936D01*
X20883468Y-8557936D02*
X20873944Y-8567460D01*
X20873944Y-8567460D02*
X20854896Y-8576984D01*
X20854896Y-8576984D02*
X20835848Y-8576984D01*
X20835848Y-8576984D02*
X20816801Y-8567460D01*
X20816801Y-8567460D02*
X20807277Y-8557936D01*
X20807277Y-8557936D02*
X20797753Y-8538889D01*
X20797753Y-8538889D02*
X20788229Y-8500793D01*
X20788229Y-8500793D02*
X20788229Y-8453174D01*
X20788229Y-8453174D02*
X20797753Y-8415079D01*
X20797753Y-8415079D02*
X20807277Y-8396031D01*
X20807277Y-8396031D02*
X20816801Y-8386508D01*
X20816801Y-8386508D02*
X20835848Y-8376984D01*
X20969182Y-8376984D02*
X21092991Y-8376984D01*
X21092991Y-8376984D02*
X21026325Y-8453174D01*
X21026325Y-8453174D02*
X21054896Y-8453174D01*
X21054896Y-8453174D02*
X21073944Y-8462698D01*
X21073944Y-8462698D02*
X21083468Y-8472222D01*
X21083468Y-8472222D02*
X21092991Y-8491270D01*
X21092991Y-8491270D02*
X21092991Y-8538889D01*
X21092991Y-8538889D02*
X21083468Y-8557936D01*
X21083468Y-8557936D02*
X21073944Y-8567460D01*
X21073944Y-8567460D02*
X21054896Y-8576984D01*
X21054896Y-8576984D02*
X20997753Y-8576984D01*
X20997753Y-8576984D02*
X20978706Y-8567460D01*
X20978706Y-8567460D02*
X20969182Y-8557936D01*
X21188229Y-8576984D02*
X21226325Y-8576984D01*
X21226325Y-8576984D02*
X21245372Y-8567460D01*
X21245372Y-8567460D02*
X21254896Y-8557936D01*
X21254896Y-8557936D02*
X21273944Y-8529365D01*
X21273944Y-8529365D02*
X21283468Y-8491270D01*
X21283468Y-8491270D02*
X21283468Y-8415079D01*
X21283468Y-8415079D02*
X21273944Y-8396031D01*
X21273944Y-8396031D02*
X21264420Y-8386508D01*
X21264420Y-8386508D02*
X21245372Y-8376984D01*
X21245372Y-8376984D02*
X21207277Y-8376984D01*
X21207277Y-8376984D02*
X21188229Y-8386508D01*
X21188229Y-8386508D02*
X21178706Y-8396031D01*
X21178706Y-8396031D02*
X21169182Y-8415079D01*
X21169182Y-8415079D02*
X21169182Y-8462698D01*
X21169182Y-8462698D02*
X21178706Y-8481746D01*
X21178706Y-8481746D02*
X21188229Y-8491270D01*
X21188229Y-8491270D02*
X21207277Y-8500793D01*
X21207277Y-8500793D02*
X21245372Y-8500793D01*
X21245372Y-8500793D02*
X21264420Y-8491270D01*
X21264420Y-8491270D02*
X21273944Y-8481746D01*
X21273944Y-8481746D02*
X21283468Y-8462698D01*
X21454896Y-8443650D02*
X21454896Y-8576984D01*
X21407277Y-8367460D02*
X21359658Y-8510317D01*
X21359658Y-8510317D02*
X21483468Y-8510317D01*
X21550134Y-8376984D02*
X21550134Y-8415079D01*
X21626325Y-8376984D02*
X21626325Y-8415079D01*
X21921563Y-8653174D02*
X21912039Y-8643650D01*
X21912039Y-8643650D02*
X21892991Y-8615079D01*
X21892991Y-8615079D02*
X21883468Y-8596031D01*
X21883468Y-8596031D02*
X21873944Y-8567460D01*
X21873944Y-8567460D02*
X21864420Y-8519841D01*
X21864420Y-8519841D02*
X21864420Y-8481746D01*
X21864420Y-8481746D02*
X21873944Y-8434127D01*
X21873944Y-8434127D02*
X21883468Y-8405555D01*
X21883468Y-8405555D02*
X21892991Y-8386508D01*
X21892991Y-8386508D02*
X21912039Y-8357936D01*
X21912039Y-8357936D02*
X21921563Y-8348412D01*
X21988230Y-8396031D02*
X21997753Y-8386508D01*
X21997753Y-8386508D02*
X22016801Y-8376984D01*
X22016801Y-8376984D02*
X22064420Y-8376984D01*
X22064420Y-8376984D02*
X22083468Y-8386508D01*
X22083468Y-8386508D02*
X22092991Y-8396031D01*
X22092991Y-8396031D02*
X22102515Y-8415079D01*
X22102515Y-8415079D02*
X22102515Y-8434127D01*
X22102515Y-8434127D02*
X22092991Y-8462698D01*
X22092991Y-8462698D02*
X21978706Y-8576984D01*
X21978706Y-8576984D02*
X22102515Y-8576984D01*
X22273944Y-8443650D02*
X22273944Y-8576984D01*
X22226325Y-8367460D02*
X22178706Y-8510317D01*
X22178706Y-8510317D02*
X22302515Y-8510317D01*
X22531087Y-8576984D02*
X22531087Y-8376984D01*
X22616801Y-8576984D02*
X22616801Y-8472222D01*
X22616801Y-8472222D02*
X22607277Y-8453174D01*
X22607277Y-8453174D02*
X22588230Y-8443650D01*
X22588230Y-8443650D02*
X22559658Y-8443650D01*
X22559658Y-8443650D02*
X22540610Y-8453174D01*
X22540610Y-8453174D02*
X22531087Y-8462698D01*
X22740610Y-8576984D02*
X22721563Y-8567460D01*
X22721563Y-8567460D02*
X22712039Y-8557936D01*
X22712039Y-8557936D02*
X22702515Y-8538889D01*
X22702515Y-8538889D02*
X22702515Y-8481746D01*
X22702515Y-8481746D02*
X22712039Y-8462698D01*
X22712039Y-8462698D02*
X22721563Y-8453174D01*
X22721563Y-8453174D02*
X22740610Y-8443650D01*
X22740610Y-8443650D02*
X22769182Y-8443650D01*
X22769182Y-8443650D02*
X22788230Y-8453174D01*
X22788230Y-8453174D02*
X22797753Y-8462698D01*
X22797753Y-8462698D02*
X22807277Y-8481746D01*
X22807277Y-8481746D02*
X22807277Y-8538889D01*
X22807277Y-8538889D02*
X22797753Y-8557936D01*
X22797753Y-8557936D02*
X22788230Y-8567460D01*
X22788230Y-8567460D02*
X22769182Y-8576984D01*
X22769182Y-8576984D02*
X22740610Y-8576984D01*
X22921563Y-8576984D02*
X22902515Y-8567460D01*
X22902515Y-8567460D02*
X22892991Y-8548412D01*
X22892991Y-8548412D02*
X22892991Y-8376984D01*
X23073944Y-8567460D02*
X23054896Y-8576984D01*
X23054896Y-8576984D02*
X23016801Y-8576984D01*
X23016801Y-8576984D02*
X22997753Y-8567460D01*
X22997753Y-8567460D02*
X22988230Y-8548412D01*
X22988230Y-8548412D02*
X22988230Y-8472222D01*
X22988230Y-8472222D02*
X22997753Y-8453174D01*
X22997753Y-8453174D02*
X23016801Y-8443650D01*
X23016801Y-8443650D02*
X23054896Y-8443650D01*
X23054896Y-8443650D02*
X23073944Y-8453174D01*
X23073944Y-8453174D02*
X23083468Y-8472222D01*
X23083468Y-8472222D02*
X23083468Y-8491270D01*
X23083468Y-8491270D02*
X22988230Y-8510317D01*
X23159658Y-8567460D02*
X23178706Y-8576984D01*
X23178706Y-8576984D02*
X23216801Y-8576984D01*
X23216801Y-8576984D02*
X23235849Y-8567460D01*
X23235849Y-8567460D02*
X23245372Y-8548412D01*
X23245372Y-8548412D02*
X23245372Y-8538889D01*
X23245372Y-8538889D02*
X23235849Y-8519841D01*
X23235849Y-8519841D02*
X23216801Y-8510317D01*
X23216801Y-8510317D02*
X23188230Y-8510317D01*
X23188230Y-8510317D02*
X23169182Y-8500793D01*
X23169182Y-8500793D02*
X23159658Y-8481746D01*
X23159658Y-8481746D02*
X23159658Y-8472222D01*
X23159658Y-8472222D02*
X23169182Y-8453174D01*
X23169182Y-8453174D02*
X23188230Y-8443650D01*
X23188230Y-8443650D02*
X23216801Y-8443650D01*
X23216801Y-8443650D02*
X23235849Y-8453174D01*
X23312039Y-8653174D02*
X23321563Y-8643650D01*
X23321563Y-8643650D02*
X23340611Y-8615079D01*
X23340611Y-8615079D02*
X23350134Y-8596031D01*
X23350134Y-8596031D02*
X23359658Y-8567460D01*
X23359658Y-8567460D02*
X23369182Y-8519841D01*
X23369182Y-8519841D02*
X23369182Y-8481746D01*
X23369182Y-8481746D02*
X23359658Y-8434127D01*
X23359658Y-8434127D02*
X23350134Y-8405555D01*
X23350134Y-8405555D02*
X23340611Y-8386508D01*
X23340611Y-8386508D02*
X23321563Y-8357936D01*
X23321563Y-8357936D02*
X23312039Y-8348412D01*
D12*
X18281500Y-8814500D02*
X18346500Y-8749500D01*
X18281500Y-8684500D01*
X18216500Y-8749500D01*
X18281500Y-8814500D01*
D11*
X18712039Y-8840984D02*
X18597753Y-8840984D01*
X18654896Y-8840984D02*
X18654896Y-8640984D01*
X18654896Y-8640984D02*
X18635848Y-8669555D01*
X18635848Y-8669555D02*
X18616801Y-8688603D01*
X18616801Y-8688603D02*
X18597753Y-8698127D01*
X18797753Y-8821936D02*
X18807277Y-8831460D01*
X18807277Y-8831460D02*
X18797753Y-8840984D01*
X18797753Y-8840984D02*
X18788229Y-8831460D01*
X18788229Y-8831460D02*
X18797753Y-8821936D01*
X18797753Y-8821936D02*
X18797753Y-8840984D01*
X18873944Y-8640984D02*
X18997753Y-8640984D01*
X18997753Y-8640984D02*
X18931086Y-8717174D01*
X18931086Y-8717174D02*
X18959658Y-8717174D01*
X18959658Y-8717174D02*
X18978705Y-8726698D01*
X18978705Y-8726698D02*
X18988229Y-8736222D01*
X18988229Y-8736222D02*
X18997753Y-8755270D01*
X18997753Y-8755270D02*
X18997753Y-8802889D01*
X18997753Y-8802889D02*
X18988229Y-8821936D01*
X18988229Y-8821936D02*
X18978705Y-8831460D01*
X18978705Y-8831460D02*
X18959658Y-8840984D01*
X18959658Y-8840984D02*
X18902515Y-8840984D01*
X18902515Y-8840984D02*
X18883467Y-8831460D01*
X18883467Y-8831460D02*
X18873944Y-8821936D01*
X19121563Y-8640984D02*
X19140610Y-8640984D01*
X19140610Y-8640984D02*
X19159658Y-8650508D01*
X19159658Y-8650508D02*
X19169182Y-8660031D01*
X19169182Y-8660031D02*
X19178705Y-8679079D01*
X19178705Y-8679079D02*
X19188229Y-8717174D01*
X19188229Y-8717174D02*
X19188229Y-8764793D01*
X19188229Y-8764793D02*
X19178705Y-8802889D01*
X19178705Y-8802889D02*
X19169182Y-8821936D01*
X19169182Y-8821936D02*
X19159658Y-8831460D01*
X19159658Y-8831460D02*
X19140610Y-8840984D01*
X19140610Y-8840984D02*
X19121563Y-8840984D01*
X19121563Y-8840984D02*
X19102515Y-8831460D01*
X19102515Y-8831460D02*
X19092991Y-8821936D01*
X19092991Y-8821936D02*
X19083467Y-8802889D01*
X19083467Y-8802889D02*
X19073944Y-8764793D01*
X19073944Y-8764793D02*
X19073944Y-8717174D01*
X19073944Y-8717174D02*
X19083467Y-8679079D01*
X19083467Y-8679079D02*
X19092991Y-8660031D01*
X19092991Y-8660031D02*
X19102515Y-8650508D01*
X19102515Y-8650508D02*
X19121563Y-8640984D01*
X19312039Y-8640984D02*
X19331086Y-8640984D01*
X19331086Y-8640984D02*
X19350134Y-8650508D01*
X19350134Y-8650508D02*
X19359658Y-8660031D01*
X19359658Y-8660031D02*
X19369182Y-8679079D01*
X19369182Y-8679079D02*
X19378705Y-8717174D01*
X19378705Y-8717174D02*
X19378705Y-8764793D01*
X19378705Y-8764793D02*
X19369182Y-8802889D01*
X19369182Y-8802889D02*
X19359658Y-8821936D01*
X19359658Y-8821936D02*
X19350134Y-8831460D01*
X19350134Y-8831460D02*
X19331086Y-8840984D01*
X19331086Y-8840984D02*
X19312039Y-8840984D01*
X19312039Y-8840984D02*
X19292991Y-8831460D01*
X19292991Y-8831460D02*
X19283467Y-8821936D01*
X19283467Y-8821936D02*
X19273944Y-8802889D01*
X19273944Y-8802889D02*
X19264420Y-8764793D01*
X19264420Y-8764793D02*
X19264420Y-8717174D01*
X19264420Y-8717174D02*
X19273944Y-8679079D01*
X19273944Y-8679079D02*
X19283467Y-8660031D01*
X19283467Y-8660031D02*
X19292991Y-8650508D01*
X19292991Y-8650508D02*
X19312039Y-8640984D01*
X19464420Y-8840984D02*
X19464420Y-8707650D01*
X19464420Y-8726698D02*
X19473944Y-8717174D01*
X19473944Y-8717174D02*
X19492991Y-8707650D01*
X19492991Y-8707650D02*
X19521563Y-8707650D01*
X19521563Y-8707650D02*
X19540610Y-8717174D01*
X19540610Y-8717174D02*
X19550134Y-8736222D01*
X19550134Y-8736222D02*
X19550134Y-8840984D01*
X19550134Y-8736222D02*
X19559658Y-8717174D01*
X19559658Y-8717174D02*
X19578705Y-8707650D01*
X19578705Y-8707650D02*
X19607277Y-8707650D01*
X19607277Y-8707650D02*
X19626325Y-8717174D01*
X19626325Y-8717174D02*
X19635848Y-8736222D01*
X19635848Y-8736222D02*
X19635848Y-8840984D01*
X19731086Y-8840984D02*
X19731086Y-8707650D01*
X19731086Y-8726698D02*
X19740610Y-8717174D01*
X19740610Y-8717174D02*
X19759658Y-8707650D01*
X19759658Y-8707650D02*
X19788229Y-8707650D01*
X19788229Y-8707650D02*
X19807277Y-8717174D01*
X19807277Y-8717174D02*
X19816801Y-8736222D01*
X19816801Y-8736222D02*
X19816801Y-8840984D01*
X19816801Y-8736222D02*
X19826325Y-8717174D01*
X19826325Y-8717174D02*
X19845372Y-8707650D01*
X19845372Y-8707650D02*
X19873944Y-8707650D01*
X19873944Y-8707650D02*
X19892991Y-8717174D01*
X19892991Y-8717174D02*
X19902515Y-8736222D01*
X19902515Y-8736222D02*
X19902515Y-8840984D01*
X20292991Y-8631460D02*
X20121563Y-8888603D01*
X20550134Y-8640984D02*
X20569182Y-8640984D01*
X20569182Y-8640984D02*
X20588229Y-8650508D01*
X20588229Y-8650508D02*
X20597753Y-8660031D01*
X20597753Y-8660031D02*
X20607277Y-8679079D01*
X20607277Y-8679079D02*
X20616801Y-8717174D01*
X20616801Y-8717174D02*
X20616801Y-8764793D01*
X20616801Y-8764793D02*
X20607277Y-8802889D01*
X20607277Y-8802889D02*
X20597753Y-8821936D01*
X20597753Y-8821936D02*
X20588229Y-8831460D01*
X20588229Y-8831460D02*
X20569182Y-8840984D01*
X20569182Y-8840984D02*
X20550134Y-8840984D01*
X20550134Y-8840984D02*
X20531087Y-8831460D01*
X20531087Y-8831460D02*
X20521563Y-8821936D01*
X20521563Y-8821936D02*
X20512039Y-8802889D01*
X20512039Y-8802889D02*
X20502515Y-8764793D01*
X20502515Y-8764793D02*
X20502515Y-8717174D01*
X20502515Y-8717174D02*
X20512039Y-8679079D01*
X20512039Y-8679079D02*
X20521563Y-8660031D01*
X20521563Y-8660031D02*
X20531087Y-8650508D01*
X20531087Y-8650508D02*
X20550134Y-8640984D01*
X20702515Y-8821936D02*
X20712039Y-8831460D01*
X20712039Y-8831460D02*
X20702515Y-8840984D01*
X20702515Y-8840984D02*
X20692991Y-8831460D01*
X20692991Y-8831460D02*
X20702515Y-8821936D01*
X20702515Y-8821936D02*
X20702515Y-8840984D01*
X20835848Y-8640984D02*
X20854896Y-8640984D01*
X20854896Y-8640984D02*
X20873944Y-8650508D01*
X20873944Y-8650508D02*
X20883468Y-8660031D01*
X20883468Y-8660031D02*
X20892991Y-8679079D01*
X20892991Y-8679079D02*
X20902515Y-8717174D01*
X20902515Y-8717174D02*
X20902515Y-8764793D01*
X20902515Y-8764793D02*
X20892991Y-8802889D01*
X20892991Y-8802889D02*
X20883468Y-8821936D01*
X20883468Y-8821936D02*
X20873944Y-8831460D01*
X20873944Y-8831460D02*
X20854896Y-8840984D01*
X20854896Y-8840984D02*
X20835848Y-8840984D01*
X20835848Y-8840984D02*
X20816801Y-8831460D01*
X20816801Y-8831460D02*
X20807277Y-8821936D01*
X20807277Y-8821936D02*
X20797753Y-8802889D01*
X20797753Y-8802889D02*
X20788229Y-8764793D01*
X20788229Y-8764793D02*
X20788229Y-8717174D01*
X20788229Y-8717174D02*
X20797753Y-8679079D01*
X20797753Y-8679079D02*
X20807277Y-8660031D01*
X20807277Y-8660031D02*
X20816801Y-8650508D01*
X20816801Y-8650508D02*
X20835848Y-8640984D01*
X21083468Y-8640984D02*
X20988229Y-8640984D01*
X20988229Y-8640984D02*
X20978706Y-8736222D01*
X20978706Y-8736222D02*
X20988229Y-8726698D01*
X20988229Y-8726698D02*
X21007277Y-8717174D01*
X21007277Y-8717174D02*
X21054896Y-8717174D01*
X21054896Y-8717174D02*
X21073944Y-8726698D01*
X21073944Y-8726698D02*
X21083468Y-8736222D01*
X21083468Y-8736222D02*
X21092991Y-8755270D01*
X21092991Y-8755270D02*
X21092991Y-8802889D01*
X21092991Y-8802889D02*
X21083468Y-8821936D01*
X21083468Y-8821936D02*
X21073944Y-8831460D01*
X21073944Y-8831460D02*
X21054896Y-8840984D01*
X21054896Y-8840984D02*
X21007277Y-8840984D01*
X21007277Y-8840984D02*
X20988229Y-8831460D01*
X20988229Y-8831460D02*
X20978706Y-8821936D01*
X21283468Y-8840984D02*
X21169182Y-8840984D01*
X21226325Y-8840984D02*
X21226325Y-8640984D01*
X21226325Y-8640984D02*
X21207277Y-8669555D01*
X21207277Y-8669555D02*
X21188229Y-8688603D01*
X21188229Y-8688603D02*
X21169182Y-8698127D01*
X21359658Y-8660031D02*
X21369182Y-8650508D01*
X21369182Y-8650508D02*
X21388229Y-8640984D01*
X21388229Y-8640984D02*
X21435849Y-8640984D01*
X21435849Y-8640984D02*
X21454896Y-8650508D01*
X21454896Y-8650508D02*
X21464420Y-8660031D01*
X21464420Y-8660031D02*
X21473944Y-8679079D01*
X21473944Y-8679079D02*
X21473944Y-8698127D01*
X21473944Y-8698127D02*
X21464420Y-8726698D01*
X21464420Y-8726698D02*
X21350134Y-8840984D01*
X21350134Y-8840984D02*
X21473944Y-8840984D01*
X21550134Y-8640984D02*
X21550134Y-8679079D01*
X21626325Y-8640984D02*
X21626325Y-8679079D01*
X21921563Y-8917174D02*
X21912039Y-8907650D01*
X21912039Y-8907650D02*
X21892991Y-8879079D01*
X21892991Y-8879079D02*
X21883468Y-8860031D01*
X21883468Y-8860031D02*
X21873944Y-8831460D01*
X21873944Y-8831460D02*
X21864420Y-8783841D01*
X21864420Y-8783841D02*
X21864420Y-8745746D01*
X21864420Y-8745746D02*
X21873944Y-8698127D01*
X21873944Y-8698127D02*
X21883468Y-8669555D01*
X21883468Y-8669555D02*
X21892991Y-8650508D01*
X21892991Y-8650508D02*
X21912039Y-8621936D01*
X21912039Y-8621936D02*
X21921563Y-8612412D01*
X21988230Y-8660031D02*
X21997753Y-8650508D01*
X21997753Y-8650508D02*
X22016801Y-8640984D01*
X22016801Y-8640984D02*
X22064420Y-8640984D01*
X22064420Y-8640984D02*
X22083468Y-8650508D01*
X22083468Y-8650508D02*
X22092991Y-8660031D01*
X22092991Y-8660031D02*
X22102515Y-8679079D01*
X22102515Y-8679079D02*
X22102515Y-8698127D01*
X22102515Y-8698127D02*
X22092991Y-8726698D01*
X22092991Y-8726698D02*
X21978706Y-8840984D01*
X21978706Y-8840984D02*
X22102515Y-8840984D01*
X22340611Y-8840984D02*
X22340611Y-8640984D01*
X22426325Y-8840984D02*
X22426325Y-8736222D01*
X22426325Y-8736222D02*
X22416801Y-8717174D01*
X22416801Y-8717174D02*
X22397753Y-8707650D01*
X22397753Y-8707650D02*
X22369182Y-8707650D01*
X22369182Y-8707650D02*
X22350134Y-8717174D01*
X22350134Y-8717174D02*
X22340611Y-8726698D01*
X22550134Y-8840984D02*
X22531087Y-8831460D01*
X22531087Y-8831460D02*
X22521563Y-8821936D01*
X22521563Y-8821936D02*
X22512039Y-8802889D01*
X22512039Y-8802889D02*
X22512039Y-8745746D01*
X22512039Y-8745746D02*
X22521563Y-8726698D01*
X22521563Y-8726698D02*
X22531087Y-8717174D01*
X22531087Y-8717174D02*
X22550134Y-8707650D01*
X22550134Y-8707650D02*
X22578706Y-8707650D01*
X22578706Y-8707650D02*
X22597753Y-8717174D01*
X22597753Y-8717174D02*
X22607277Y-8726698D01*
X22607277Y-8726698D02*
X22616801Y-8745746D01*
X22616801Y-8745746D02*
X22616801Y-8802889D01*
X22616801Y-8802889D02*
X22607277Y-8821936D01*
X22607277Y-8821936D02*
X22597753Y-8831460D01*
X22597753Y-8831460D02*
X22578706Y-8840984D01*
X22578706Y-8840984D02*
X22550134Y-8840984D01*
X22731087Y-8840984D02*
X22712039Y-8831460D01*
X22712039Y-8831460D02*
X22702515Y-8812412D01*
X22702515Y-8812412D02*
X22702515Y-8640984D01*
X22883468Y-8831460D02*
X22864420Y-8840984D01*
X22864420Y-8840984D02*
X22826325Y-8840984D01*
X22826325Y-8840984D02*
X22807277Y-8831460D01*
X22807277Y-8831460D02*
X22797753Y-8812412D01*
X22797753Y-8812412D02*
X22797753Y-8736222D01*
X22797753Y-8736222D02*
X22807277Y-8717174D01*
X22807277Y-8717174D02*
X22826325Y-8707650D01*
X22826325Y-8707650D02*
X22864420Y-8707650D01*
X22864420Y-8707650D02*
X22883468Y-8717174D01*
X22883468Y-8717174D02*
X22892991Y-8736222D01*
X22892991Y-8736222D02*
X22892991Y-8755270D01*
X22892991Y-8755270D02*
X22797753Y-8774317D01*
X22969182Y-8831460D02*
X22988230Y-8840984D01*
X22988230Y-8840984D02*
X23026325Y-8840984D01*
X23026325Y-8840984D02*
X23045372Y-8831460D01*
X23045372Y-8831460D02*
X23054896Y-8812412D01*
X23054896Y-8812412D02*
X23054896Y-8802889D01*
X23054896Y-8802889D02*
X23045372Y-8783841D01*
X23045372Y-8783841D02*
X23026325Y-8774317D01*
X23026325Y-8774317D02*
X22997753Y-8774317D01*
X22997753Y-8774317D02*
X22978706Y-8764793D01*
X22978706Y-8764793D02*
X22969182Y-8745746D01*
X22969182Y-8745746D02*
X22969182Y-8736222D01*
X22969182Y-8736222D02*
X22978706Y-8717174D01*
X22978706Y-8717174D02*
X22997753Y-8707650D01*
X22997753Y-8707650D02*
X23026325Y-8707650D01*
X23026325Y-8707650D02*
X23045372Y-8717174D01*
X23121563Y-8917174D02*
X23131087Y-8907650D01*
X23131087Y-8907650D02*
X23150134Y-8879079D01*
X23150134Y-8879079D02*
X23159658Y-8860031D01*
X23159658Y-8860031D02*
X23169182Y-8831460D01*
X23169182Y-8831460D02*
X23178706Y-8783841D01*
X23178706Y-8783841D02*
X23178706Y-8745746D01*
X23178706Y-8745746D02*
X23169182Y-8698127D01*
X23169182Y-8698127D02*
X23159658Y-8669555D01*
X23159658Y-8669555D02*
X23150134Y-8650508D01*
X23150134Y-8650508D02*
X23131087Y-8621936D01*
X23131087Y-8621936D02*
X23121563Y-8612412D01*
M02*
