%TF.GenerationSoftware,KiCad,Pcbnew,7.0.10-7.0.10~ubuntu22.04.1*%
%TF.CreationDate,2024-01-23T13:21:09+00:00*%
%TF.ProjectId,wifi_temp_sensor,77696669-5f74-4656-9d70-5f73656e736f,rev?*%
%TF.SameCoordinates,Original*%
%TF.FileFunction,Copper,L1,Top*%
%TF.FilePolarity,Positive*%
%FSLAX46Y46*%
G04 Gerber Fmt 4.6, Leading zero omitted, Abs format (unit mm)*
G04 Created by KiCad (PCBNEW 7.0.10-7.0.10~ubuntu22.04.1) date 2024-01-23 13:21:09*
%MOMM*%
%LPD*%
G01*
G04 APERTURE LIST*
G04 Aperture macros list*
%AMRoundRect*
0 Rectangle with rounded corners*
0 $1 Rounding radius*
0 $2 $3 $4 $5 $6 $7 $8 $9 X,Y pos of 4 corners*
0 Add a 4 corners polygon primitive as box body*
4,1,4,$2,$3,$4,$5,$6,$7,$8,$9,$2,$3,0*
0 Add four circle primitives for the rounded corners*
1,1,$1+$1,$2,$3*
1,1,$1+$1,$4,$5*
1,1,$1+$1,$6,$7*
1,1,$1+$1,$8,$9*
0 Add four rect primitives between the rounded corners*
20,1,$1+$1,$2,$3,$4,$5,0*
20,1,$1+$1,$4,$5,$6,$7,0*
20,1,$1+$1,$6,$7,$8,$9,0*
20,1,$1+$1,$8,$9,$2,$3,0*%
%AMFreePoly0*
4,1,9,5.362500,-0.866500,1.237500,-0.866500,1.237500,-0.450000,-1.237500,-0.450000,-1.237500,0.450000,1.237500,0.450000,1.237500,0.866500,5.362500,0.866500,5.362500,-0.866500,5.362500,-0.866500,$1*%
G04 Aperture macros list end*
%TA.AperFunction,SMDPad,CuDef*%
%ADD10RoundRect,0.250000X0.650000X-0.412500X0.650000X0.412500X-0.650000X0.412500X-0.650000X-0.412500X0*%
%TD*%
%TA.AperFunction,ComponentPad*%
%ADD11R,1.700000X1.700000*%
%TD*%
%TA.AperFunction,ComponentPad*%
%ADD12O,1.700000X1.700000*%
%TD*%
%TA.AperFunction,SMDPad,CuDef*%
%ADD13R,2.300000X0.900000*%
%TD*%
%TA.AperFunction,SMDPad,CuDef*%
%ADD14FreePoly0,180.000000*%
%TD*%
%TA.AperFunction,ComponentPad*%
%ADD15C,1.700000*%
%TD*%
%TA.AperFunction,ComponentPad*%
%ADD16C,2.000000*%
%TD*%
%TA.AperFunction,SMDPad,CuDef*%
%ADD17RoundRect,0.250000X-0.650000X0.412500X-0.650000X-0.412500X0.650000X-0.412500X0.650000X0.412500X0*%
%TD*%
%TA.AperFunction,SMDPad,CuDef*%
%ADD18R,1.350000X0.400000*%
%TD*%
%TA.AperFunction,ComponentPad*%
%ADD19O,1.900000X1.200000*%
%TD*%
%TA.AperFunction,SMDPad,CuDef*%
%ADD20R,1.900000X1.200000*%
%TD*%
%TA.AperFunction,ComponentPad*%
%ADD21C,1.450000*%
%TD*%
%TA.AperFunction,SMDPad,CuDef*%
%ADD22R,1.900000X1.500000*%
%TD*%
%TA.AperFunction,ViaPad*%
%ADD23C,0.800000*%
%TD*%
%TA.AperFunction,Conductor*%
%ADD24C,1.000000*%
%TD*%
%TA.AperFunction,Conductor*%
%ADD25C,0.500000*%
%TD*%
%TA.AperFunction,Conductor*%
%ADD26C,0.250000*%
%TD*%
G04 APERTURE END LIST*
D10*
%TO.P,C5,1*%
%TO.N,+3.3V*%
X213995000Y-58712500D03*
%TO.P,C5,2*%
%TO.N,GND*%
X213995000Y-55587500D03*
%TD*%
%TO.P,C4,1*%
%TO.N,GND*%
X201930000Y-49822500D03*
%TO.P,C4,2*%
%TO.N,+3.3V*%
X201930000Y-46697500D03*
%TD*%
D11*
%TO.P,J2,1,Pin_1*%
%TO.N,GND*%
X207645000Y-66030000D03*
D12*
%TO.P,J2,2,Pin_2*%
%TO.N,ESP_Tx*%
X210185000Y-66030000D03*
%TO.P,J2,3,Pin_3*%
%TO.N,SDA*%
X207645000Y-63490000D03*
%TO.P,J2,4,Pin_4*%
%TO.N,+3.3V*%
X210185000Y-63490000D03*
%TO.P,J2,5,Pin_5*%
%TO.N,SCL*%
X207645000Y-60950000D03*
%TO.P,J2,6,Pin_6*%
%TO.N,unconnected-(J2-Pin_6-Pad6)*%
X210185000Y-60950000D03*
%TO.P,J2,7,Pin_7*%
%TO.N,ESP_Rx*%
X207645000Y-58410000D03*
%TO.P,J2,8,Pin_8*%
%TO.N,+3.3V*%
X210185000Y-58410000D03*
%TD*%
D11*
%TO.P,J5,1,Pin_1*%
%TO.N,GND*%
X208280000Y-43180000D03*
D12*
%TO.P,J5,2,Pin_2*%
%TO.N,+3.3V*%
X208280000Y-40640000D03*
%TO.P,J5,3,Pin_3*%
%TO.N,SCL*%
X208280000Y-38100000D03*
%TO.P,J5,4,Pin_4*%
%TO.N,SDA*%
X208280000Y-35560000D03*
%TD*%
D13*
%TO.P,U2,1,GND*%
%TO.N,GND*%
X218985000Y-47220000D03*
D14*
%TO.P,U2,2,VO*%
%TO.N,+3.3V*%
X218897500Y-45720000D03*
D13*
%TO.P,U2,3,VI*%
%TO.N,+5V*%
X218985000Y-44220000D03*
%TD*%
D15*
%TO.P,SW1,1*%
%TO.N,SCL*%
X220635000Y-26545000D03*
%TO.P,SW1,2*%
%TO.N,GND*%
X225135000Y-26545000D03*
D16*
%TO.P,SW1,3*%
%TO.N,N/C*%
X226385000Y-29045000D03*
X219385000Y-29045000D03*
%TD*%
D10*
%TO.P,C1,1*%
%TO.N,+5V*%
X221660000Y-43677500D03*
%TO.P,C1,2*%
%TO.N,GND*%
X221660000Y-40552500D03*
%TD*%
D17*
%TO.P,C3,1*%
%TO.N,+3.3V*%
X208280000Y-46697500D03*
%TO.P,C3,2*%
%TO.N,GND*%
X208280000Y-49822500D03*
%TD*%
D11*
%TO.P,J3,1,Pin_1*%
%TO.N,+3.3V*%
X201930000Y-43180000D03*
D12*
%TO.P,J3,2,Pin_2*%
%TO.N,GND*%
X201930000Y-40640000D03*
%TO.P,J3,3,Pin_3*%
%TO.N,SCL*%
X201930000Y-38100000D03*
%TO.P,J3,4,Pin_4*%
%TO.N,SDA*%
X201930000Y-35560000D03*
%TD*%
D18*
%TO.P,J1,1,VBUS*%
%TO.N,+5V*%
X229677500Y-39670000D03*
%TO.P,J1,2,D-*%
%TO.N,unconnected-(J1-D--Pad2)*%
X229677500Y-39020000D03*
%TO.P,J1,3,D+*%
%TO.N,unconnected-(J1-D+-Pad3)*%
X229677500Y-38370000D03*
%TO.P,J1,4,ID*%
%TO.N,unconnected-(J1-ID-Pad4)*%
X229677500Y-37720000D03*
%TO.P,J1,5,GND*%
%TO.N,GND*%
X229677500Y-37070000D03*
D19*
%TO.P,J1,6,Shield*%
%TO.N,unconnected-(J1-Shield-Pad6)*%
X232377500Y-41870000D03*
D20*
X232377500Y-41270000D03*
D21*
X229677500Y-40870000D03*
D22*
X232377500Y-39370000D03*
X232377500Y-37370000D03*
D21*
X229677500Y-35870000D03*
D20*
X232377500Y-35470000D03*
D19*
X232377500Y-34870000D03*
%TD*%
D17*
%TO.P,C2,1*%
%TO.N,+3.3V*%
X221660000Y-46037500D03*
%TO.P,C2,2*%
%TO.N,GND*%
X221660000Y-49162500D03*
%TD*%
D11*
%TO.P,J4,1,Pin_1*%
%TO.N,GND*%
X222250000Y-55880000D03*
D12*
%TO.P,J4,2,Pin_2*%
%TO.N,unconnected-(J4-Pin_2-Pad2)*%
X222250000Y-58420000D03*
%TO.P,J4,3,Pin_3*%
%TO.N,+5V*%
X222250000Y-60960000D03*
%TO.P,J4,4,Pin_4*%
%TO.N,ESP_Rx*%
X222250000Y-63500000D03*
%TO.P,J4,5,Pin_5*%
%TO.N,ESP_Tx*%
X222250000Y-66040000D03*
%TO.P,J4,6,Pin_6*%
%TO.N,unconnected-(J4-Pin_6-Pad6)*%
X222250000Y-68580000D03*
%TD*%
D23*
%TO.N,+3.3V*%
X213995000Y-60325000D03*
X212725000Y-63500000D03*
%TO.N,GND*%
X222250000Y-50800000D03*
X213360000Y-53975000D03*
X214630000Y-53975000D03*
X227330000Y-37100000D03*
X226060000Y-35830000D03*
X198755000Y-48895000D03*
X226060000Y-37100000D03*
X220980000Y-38740000D03*
X198755000Y-50165000D03*
X219075000Y-48895000D03*
X227330000Y-35830000D03*
X220980000Y-50800000D03*
X205740000Y-50165000D03*
X217805000Y-48895000D03*
X205740000Y-48895000D03*
X222250000Y-38740000D03*
%TD*%
D24*
%TO.N,ESP_Rx*%
X222250000Y-63500000D02*
X214630000Y-63500000D01*
X214630000Y-63500000D02*
X212090000Y-60960000D01*
%TO.N,ESP_Tx*%
X210185000Y-66030000D02*
X222240000Y-66030000D01*
X222240000Y-66030000D02*
X222250000Y-66040000D01*
%TO.N,+3.3V*%
X207077919Y-40640000D02*
X205105000Y-42612919D01*
D25*
X210195000Y-63500000D02*
X210185000Y-63490000D01*
D24*
X216535000Y-56085000D02*
X216535000Y-46670000D01*
D25*
X213995000Y-60325000D02*
X213995000Y-58625000D01*
D24*
X210185000Y-58410000D02*
X213780000Y-58410000D01*
X217485000Y-45720000D02*
X218897500Y-45720000D01*
X213995000Y-58625000D02*
X216535000Y-56085000D01*
X207987500Y-46697500D02*
X208280000Y-46697500D01*
X205105000Y-43815000D02*
X207987500Y-46697500D01*
X208280000Y-40640000D02*
X207077919Y-40640000D01*
X216535000Y-46670000D02*
X217485000Y-45720000D01*
X204470000Y-49237500D02*
X204470000Y-52070000D01*
X201930000Y-46697500D02*
X204470000Y-49237500D01*
X205105000Y-42612919D02*
X205105000Y-43815000D01*
X204470000Y-52070000D02*
X211135000Y-52070000D01*
X213780000Y-58410000D02*
X213995000Y-58625000D01*
D26*
X212715000Y-63490000D02*
X212725000Y-63500000D01*
D25*
X215900000Y-45720000D02*
X218397500Y-45720000D01*
D24*
X212405000Y-40640000D02*
X217485000Y-45720000D01*
X208075000Y-40435000D02*
X208280000Y-40640000D01*
D25*
X212725000Y-63500000D02*
X210195000Y-63500000D01*
D24*
X221342500Y-45720000D02*
X221660000Y-46037500D01*
X217485000Y-45720000D02*
X218397500Y-45720000D01*
X218397500Y-45720000D02*
X221342500Y-45720000D01*
X211135000Y-52070000D02*
X217485000Y-45720000D01*
X208280000Y-40640000D02*
X212405000Y-40640000D01*
X201930000Y-43180000D02*
X201930000Y-46697500D01*
%TO.N,+5V*%
X227330000Y-55880000D02*
X222250000Y-60960000D01*
X227330000Y-41202245D02*
X227330000Y-55880000D01*
X223987500Y-43677500D02*
X224854745Y-43677500D01*
D25*
X227665000Y-39670000D02*
X227330000Y-40005000D01*
D24*
X218985000Y-44220000D02*
X221117500Y-44220000D01*
D25*
X229677500Y-39670000D02*
X227665000Y-39670000D01*
D24*
X221660000Y-43677500D02*
X223987500Y-43677500D01*
X224854745Y-43677500D02*
X227330000Y-41202245D01*
X221117500Y-44220000D02*
X221660000Y-43677500D01*
X227330000Y-41202245D02*
X227330000Y-40005000D01*
%TO.N,GND*%
X218485000Y-48305000D02*
X219075000Y-48895000D01*
X205740000Y-50165000D02*
X206325000Y-50165000D01*
X221660000Y-50210000D02*
X222250000Y-50800000D01*
X213995000Y-54610000D02*
X214630000Y-53975000D01*
X221660000Y-50120000D02*
X220980000Y-50800000D01*
X221660000Y-39330000D02*
X222250000Y-38740000D01*
X221660000Y-49075000D02*
X221660000Y-50210000D01*
X206325000Y-50165000D02*
X206667500Y-49822500D01*
X213995000Y-54610000D02*
X213360000Y-53975000D01*
X207985000Y-43475000D02*
X208280000Y-43180000D01*
X198755000Y-48895000D02*
X198755000Y-49480000D01*
X218485000Y-47220000D02*
X218485000Y-48305000D01*
D25*
X227360000Y-37070000D02*
X227330000Y-37100000D01*
D24*
X198755000Y-49480000D02*
X199097500Y-49822500D01*
X208280000Y-49822500D02*
X206667500Y-49822500D01*
X206667500Y-49822500D02*
X205740000Y-48895000D01*
X199097500Y-49822500D02*
X198755000Y-50165000D01*
D25*
X229677500Y-37070000D02*
X227360000Y-37070000D01*
D24*
X213995000Y-55675000D02*
X213995000Y-54610000D01*
X201930000Y-49822500D02*
X199097500Y-49822500D01*
X221660000Y-40640000D02*
X221660000Y-39330000D01*
X218485000Y-48215000D02*
X217805000Y-48895000D01*
X218485000Y-47220000D02*
X218485000Y-48215000D01*
X221660000Y-49075000D02*
X221660000Y-50120000D01*
X221660000Y-40640000D02*
X221660000Y-39420000D01*
X221660000Y-39420000D02*
X220980000Y-38740000D01*
%TO.N,unconnected-(J1-Shield-Pad6)*%
X232377500Y-34870000D02*
X232377500Y-37370000D01*
X229677500Y-35870000D02*
X231377500Y-35870000D01*
X232377500Y-39370000D02*
X232377500Y-37370000D01*
X229677500Y-40870000D02*
X231377500Y-40870000D01*
X232377500Y-41870000D02*
X232377500Y-39370000D01*
X231377500Y-35870000D02*
X232377500Y-34870000D01*
X231377500Y-40870000D02*
X232377500Y-41870000D01*
%TO.N,SDA*%
X201930000Y-35560000D02*
X208280000Y-35560000D01*
X207645000Y-63490000D02*
X206365000Y-63490000D01*
X206365000Y-63490000D02*
X195650000Y-52775000D01*
X195650000Y-41840000D02*
X201930000Y-35560000D01*
X195650000Y-52775000D02*
X195650000Y-41840000D01*
%TO.N,SCL*%
X214630000Y-34290000D02*
X210820000Y-38100000D01*
X220635000Y-26545000D02*
X218565000Y-26545000D01*
X205740000Y-60960000D02*
X196850000Y-52070000D01*
X196850000Y-52070000D02*
X196850000Y-43180000D01*
X196850000Y-43180000D02*
X201930000Y-38100000D01*
X214630000Y-30480000D02*
X214630000Y-34290000D01*
X208280000Y-38100000D02*
X201930000Y-38100000D01*
X210820000Y-38100000D02*
X208280000Y-38100000D01*
X207645000Y-60950000D02*
X205750000Y-60950000D01*
X218565000Y-26545000D02*
X214630000Y-30480000D01*
X205750000Y-60950000D02*
X205740000Y-60960000D01*
D26*
%TO.N,ESP_Rx*%
X207645000Y-58410000D02*
X208272500Y-58410000D01*
X207645000Y-58410000D02*
X208820000Y-59585000D01*
X210715000Y-59585000D02*
X212090000Y-60960000D01*
X208820000Y-59585000D02*
X210715000Y-59585000D01*
%TD*%
%TA.AperFunction,Conductor*%
%TO.N,GND*%
G36*
X227908039Y-35214685D02*
G01*
X227953794Y-35267489D01*
X227965000Y-35319000D01*
X227965000Y-37611000D01*
X227945315Y-37678039D01*
X227892511Y-37723794D01*
X227841000Y-37735000D01*
X225549000Y-37735000D01*
X225481961Y-37715315D01*
X225436206Y-37662511D01*
X225425000Y-37611000D01*
X225425000Y-35319000D01*
X225444685Y-35251961D01*
X225497489Y-35206206D01*
X225549000Y-35195000D01*
X227841000Y-35195000D01*
X227908039Y-35214685D01*
G37*
%TD.AperFunction*%
%TD*%
%TA.AperFunction,Conductor*%
%TO.N,+3.3V*%
G36*
X217113039Y-39389685D02*
G01*
X217158794Y-39442489D01*
X217170000Y-39494000D01*
X217170000Y-48063716D01*
X217150315Y-48130755D01*
X217133682Y-48151396D01*
X217061662Y-48223416D01*
X216965304Y-48341590D01*
X216965302Y-48341593D01*
X216871091Y-48521951D01*
X216871090Y-48521953D01*
X216815112Y-48717584D01*
X216799662Y-48920474D01*
X216799662Y-48920477D01*
X216825368Y-49122321D01*
X216825370Y-49122329D01*
X216891183Y-49314870D01*
X216891189Y-49314882D01*
X216994406Y-49490221D01*
X216994411Y-49490228D01*
X217135037Y-49645879D01*
X217133678Y-49647106D01*
X217165670Y-49699208D01*
X217170000Y-49731692D01*
X217170000Y-52581000D01*
X217150315Y-52648039D01*
X217097511Y-52693794D01*
X217046000Y-52705000D01*
X211579000Y-52705000D01*
X211511961Y-52685315D01*
X211466206Y-52632511D01*
X211455000Y-52581000D01*
X211455000Y-39494000D01*
X211474685Y-39426961D01*
X211527489Y-39381206D01*
X211579000Y-39370000D01*
X217046000Y-39370000D01*
X217113039Y-39389685D01*
G37*
%TD.AperFunction*%
%TD*%
M02*
