%TF.GenerationSoftware,KiCad,Pcbnew,7.0.10-7.0.10~ubuntu22.04.1*%
%TF.CreationDate,2024-01-23T13:21:06+00:00*%
%TF.ProjectId,wifi_temp_sensor,77696669-5f74-4656-9d70-5f73656e736f,rev?*%
%TF.SameCoordinates,Original*%
%TF.FileFunction,Drillmap*%
%TF.FilePolarity,Positive*%
%FSLAX45Y45*%
G04 Gerber Fmt 4.5, Leading zero omitted, Abs format (unit mm)*
G04 Created by KiCad (PCBNEW 7.0.10-7.0.10~ubuntu22.04.1) date 2024-01-23 13:21:06*
%MOMM*%
%LPD*%
G01*
G04 APERTURE LIST*
%ADD10C,0.100000*%
%ADD11C,0.200000*%
G04 APERTURE END LIST*
D10*
X23431500Y-4794250D02*
X23431500Y-2476500D01*
X19023000Y-4918000D02*
G75*
G03*
X18763000Y-4918000I-130000J0D01*
G01*
X18763000Y-4918000D02*
G75*
G03*
X19023000Y-4918000I130000J0D01*
G01*
X18862500Y-6667500D02*
G75*
G03*
X18602500Y-6667500I-130000J0D01*
G01*
X18602500Y-6667500D02*
G75*
G03*
X18862500Y-6667500I130000J0D01*
G01*
X18351500Y-7048500D02*
X23431500Y-7048500D01*
X23258000Y-2857500D02*
G75*
G03*
X22998000Y-2857500I-130000J0D01*
G01*
X22998000Y-2857500D02*
G75*
G03*
X23258000Y-2857500I130000J0D01*
G01*
X18862500Y-2857500D02*
G75*
G03*
X18602500Y-2857500I-130000J0D01*
G01*
X18602500Y-2857500D02*
G75*
G03*
X18862500Y-2857500I130000J0D01*
G01*
X23431500Y-7048500D02*
X23431500Y-4794250D01*
X23431500Y-2476500D02*
X18351500Y-2476500D01*
X23258000Y-5107500D02*
G75*
G03*
X22998000Y-5107500I-130000J0D01*
G01*
X22998000Y-5107500D02*
G75*
G03*
X23258000Y-5107500I130000J0D01*
G01*
X18351500Y-2476500D02*
X18351500Y-7048500D01*
D11*
X18607277Y-7364984D02*
X18607277Y-7164984D01*
X18607277Y-7164984D02*
X18654896Y-7164984D01*
X18654896Y-7164984D02*
X18683467Y-7174508D01*
X18683467Y-7174508D02*
X18702515Y-7193555D01*
X18702515Y-7193555D02*
X18712039Y-7212603D01*
X18712039Y-7212603D02*
X18721563Y-7250698D01*
X18721563Y-7250698D02*
X18721563Y-7279269D01*
X18721563Y-7279269D02*
X18712039Y-7317365D01*
X18712039Y-7317365D02*
X18702515Y-7336412D01*
X18702515Y-7336412D02*
X18683467Y-7355460D01*
X18683467Y-7355460D02*
X18654896Y-7364984D01*
X18654896Y-7364984D02*
X18607277Y-7364984D01*
X18807277Y-7364984D02*
X18807277Y-7231650D01*
X18807277Y-7269746D02*
X18816801Y-7250698D01*
X18816801Y-7250698D02*
X18826324Y-7241174D01*
X18826324Y-7241174D02*
X18845372Y-7231650D01*
X18845372Y-7231650D02*
X18864420Y-7231650D01*
X18931086Y-7364984D02*
X18931086Y-7231650D01*
X18931086Y-7164984D02*
X18921563Y-7174508D01*
X18921563Y-7174508D02*
X18931086Y-7184031D01*
X18931086Y-7184031D02*
X18940610Y-7174508D01*
X18940610Y-7174508D02*
X18931086Y-7164984D01*
X18931086Y-7164984D02*
X18931086Y-7184031D01*
X19054896Y-7364984D02*
X19035848Y-7355460D01*
X19035848Y-7355460D02*
X19026324Y-7336412D01*
X19026324Y-7336412D02*
X19026324Y-7164984D01*
X19159658Y-7364984D02*
X19140610Y-7355460D01*
X19140610Y-7355460D02*
X19131086Y-7336412D01*
X19131086Y-7336412D02*
X19131086Y-7164984D01*
X19388229Y-7364984D02*
X19388229Y-7164984D01*
X19388229Y-7164984D02*
X19454896Y-7307841D01*
X19454896Y-7307841D02*
X19521563Y-7164984D01*
X19521563Y-7164984D02*
X19521563Y-7364984D01*
X19702515Y-7364984D02*
X19702515Y-7260222D01*
X19702515Y-7260222D02*
X19692991Y-7241174D01*
X19692991Y-7241174D02*
X19673944Y-7231650D01*
X19673944Y-7231650D02*
X19635848Y-7231650D01*
X19635848Y-7231650D02*
X19616801Y-7241174D01*
X19702515Y-7355460D02*
X19683467Y-7364984D01*
X19683467Y-7364984D02*
X19635848Y-7364984D01*
X19635848Y-7364984D02*
X19616801Y-7355460D01*
X19616801Y-7355460D02*
X19607277Y-7336412D01*
X19607277Y-7336412D02*
X19607277Y-7317365D01*
X19607277Y-7317365D02*
X19616801Y-7298317D01*
X19616801Y-7298317D02*
X19635848Y-7288793D01*
X19635848Y-7288793D02*
X19683467Y-7288793D01*
X19683467Y-7288793D02*
X19702515Y-7279269D01*
X19797753Y-7231650D02*
X19797753Y-7431650D01*
X19797753Y-7241174D02*
X19816801Y-7231650D01*
X19816801Y-7231650D02*
X19854896Y-7231650D01*
X19854896Y-7231650D02*
X19873944Y-7241174D01*
X19873944Y-7241174D02*
X19883467Y-7250698D01*
X19883467Y-7250698D02*
X19892991Y-7269746D01*
X19892991Y-7269746D02*
X19892991Y-7326888D01*
X19892991Y-7326888D02*
X19883467Y-7345936D01*
X19883467Y-7345936D02*
X19873944Y-7355460D01*
X19873944Y-7355460D02*
X19854896Y-7364984D01*
X19854896Y-7364984D02*
X19816801Y-7364984D01*
X19816801Y-7364984D02*
X19797753Y-7355460D01*
X19978705Y-7345936D02*
X19988229Y-7355460D01*
X19988229Y-7355460D02*
X19978705Y-7364984D01*
X19978705Y-7364984D02*
X19969182Y-7355460D01*
X19969182Y-7355460D02*
X19978705Y-7345936D01*
X19978705Y-7345936D02*
X19978705Y-7364984D01*
X19978705Y-7241174D02*
X19988229Y-7250698D01*
X19988229Y-7250698D02*
X19978705Y-7260222D01*
X19978705Y-7260222D02*
X19969182Y-7250698D01*
X19969182Y-7250698D02*
X19978705Y-7241174D01*
X19978705Y-7241174D02*
X19978705Y-7260222D01*
M02*
