%TF.GenerationSoftware,KiCad,Pcbnew,7.0.9-7.0.9~ubuntu22.04.1*%
%TF.CreationDate,2023-12-22T13:52:17+00:00*%
%TF.ProjectId,wifi_temp_sensor,77696669-5f74-4656-9d70-5f73656e736f,rev?*%
%TF.SameCoordinates,Original*%
%TF.FileFunction,Drillmap*%
%TF.FilePolarity,Positive*%
%FSLAX45Y45*%
G04 Gerber Fmt 4.5, Leading zero omitted, Abs format (unit mm)*
G04 Created by KiCad (PCBNEW 7.0.9-7.0.9~ubuntu22.04.1) date 2023-12-22 13:52:17*
%MOMM*%
%LPD*%
G01*
G04 APERTURE LIST*
%ADD10C,0.100000*%
%ADD11C,0.200000*%
G04 APERTURE END LIST*
D10*
X20828000Y-5334000D02*
G75*
G03*
X20828000Y-5334000I-254000J0D01*
G01*
X19431000Y-2984500D02*
G75*
G03*
X19431000Y-2984500I-254000J0D01*
G01*
X17081500Y-5461000D02*
G75*
G03*
X17081500Y-5461000I-254000J0D01*
G01*
X21463000Y-5905500D02*
X21463000Y-3683000D01*
X21399500Y-5905500D02*
X21463000Y-5905500D01*
X16446500Y-5905500D02*
X21399500Y-5905500D01*
X16446500Y-2603500D02*
X16446500Y-5905500D01*
X21463000Y-2603500D02*
X16446500Y-2603500D01*
X21463000Y-3683000D02*
X21463000Y-2603500D01*
D11*
X16702277Y-6221984D02*
X16702277Y-6021984D01*
X16702277Y-6021984D02*
X16749896Y-6021984D01*
X16749896Y-6021984D02*
X16778467Y-6031508D01*
X16778467Y-6031508D02*
X16797515Y-6050555D01*
X16797515Y-6050555D02*
X16807039Y-6069603D01*
X16807039Y-6069603D02*
X16816563Y-6107698D01*
X16816563Y-6107698D02*
X16816563Y-6136269D01*
X16816563Y-6136269D02*
X16807039Y-6174365D01*
X16807039Y-6174365D02*
X16797515Y-6193412D01*
X16797515Y-6193412D02*
X16778467Y-6212460D01*
X16778467Y-6212460D02*
X16749896Y-6221984D01*
X16749896Y-6221984D02*
X16702277Y-6221984D01*
X16902277Y-6221984D02*
X16902277Y-6088650D01*
X16902277Y-6126746D02*
X16911801Y-6107698D01*
X16911801Y-6107698D02*
X16921324Y-6098174D01*
X16921324Y-6098174D02*
X16940372Y-6088650D01*
X16940372Y-6088650D02*
X16959420Y-6088650D01*
X17026086Y-6221984D02*
X17026086Y-6088650D01*
X17026086Y-6021984D02*
X17016563Y-6031508D01*
X17016563Y-6031508D02*
X17026086Y-6041031D01*
X17026086Y-6041031D02*
X17035610Y-6031508D01*
X17035610Y-6031508D02*
X17026086Y-6021984D01*
X17026086Y-6021984D02*
X17026086Y-6041031D01*
X17149896Y-6221984D02*
X17130848Y-6212460D01*
X17130848Y-6212460D02*
X17121324Y-6193412D01*
X17121324Y-6193412D02*
X17121324Y-6021984D01*
X17254658Y-6221984D02*
X17235610Y-6212460D01*
X17235610Y-6212460D02*
X17226086Y-6193412D01*
X17226086Y-6193412D02*
X17226086Y-6021984D01*
X17483229Y-6221984D02*
X17483229Y-6021984D01*
X17483229Y-6021984D02*
X17549896Y-6164841D01*
X17549896Y-6164841D02*
X17616563Y-6021984D01*
X17616563Y-6021984D02*
X17616563Y-6221984D01*
X17797515Y-6221984D02*
X17797515Y-6117222D01*
X17797515Y-6117222D02*
X17787991Y-6098174D01*
X17787991Y-6098174D02*
X17768944Y-6088650D01*
X17768944Y-6088650D02*
X17730848Y-6088650D01*
X17730848Y-6088650D02*
X17711801Y-6098174D01*
X17797515Y-6212460D02*
X17778467Y-6221984D01*
X17778467Y-6221984D02*
X17730848Y-6221984D01*
X17730848Y-6221984D02*
X17711801Y-6212460D01*
X17711801Y-6212460D02*
X17702277Y-6193412D01*
X17702277Y-6193412D02*
X17702277Y-6174365D01*
X17702277Y-6174365D02*
X17711801Y-6155317D01*
X17711801Y-6155317D02*
X17730848Y-6145793D01*
X17730848Y-6145793D02*
X17778467Y-6145793D01*
X17778467Y-6145793D02*
X17797515Y-6136269D01*
X17892753Y-6088650D02*
X17892753Y-6288650D01*
X17892753Y-6098174D02*
X17911801Y-6088650D01*
X17911801Y-6088650D02*
X17949896Y-6088650D01*
X17949896Y-6088650D02*
X17968944Y-6098174D01*
X17968944Y-6098174D02*
X17978467Y-6107698D01*
X17978467Y-6107698D02*
X17987991Y-6126746D01*
X17987991Y-6126746D02*
X17987991Y-6183888D01*
X17987991Y-6183888D02*
X17978467Y-6202936D01*
X17978467Y-6202936D02*
X17968944Y-6212460D01*
X17968944Y-6212460D02*
X17949896Y-6221984D01*
X17949896Y-6221984D02*
X17911801Y-6221984D01*
X17911801Y-6221984D02*
X17892753Y-6212460D01*
X18073705Y-6202936D02*
X18083229Y-6212460D01*
X18083229Y-6212460D02*
X18073705Y-6221984D01*
X18073705Y-6221984D02*
X18064182Y-6212460D01*
X18064182Y-6212460D02*
X18073705Y-6202936D01*
X18073705Y-6202936D02*
X18073705Y-6221984D01*
X18073705Y-6098174D02*
X18083229Y-6107698D01*
X18083229Y-6107698D02*
X18073705Y-6117222D01*
X18073705Y-6117222D02*
X18064182Y-6107698D01*
X18064182Y-6107698D02*
X18073705Y-6098174D01*
X18073705Y-6098174D02*
X18073705Y-6117222D01*
M02*
