%TF.GenerationSoftware,KiCad,Pcbnew,7.0.10-7.0.10~ubuntu22.04.1*%
%TF.CreationDate,2024-01-08T16:33:40+00:00*%
%TF.ProjectId,wifi_temp_sensor,77696669-5f74-4656-9d70-5f73656e736f,rev?*%
%TF.SameCoordinates,Original*%
%TF.FileFunction,Legend,Top*%
%TF.FilePolarity,Positive*%
%FSLAX46Y46*%
G04 Gerber Fmt 4.6, Leading zero omitted, Abs format (unit mm)*
G04 Created by KiCad (PCBNEW 7.0.10-7.0.10~ubuntu22.04.1) date 2024-01-08 16:33:40*
%MOMM*%
%LPD*%
G01*
G04 APERTURE LIST*
%ADD10C,0.200000*%
%ADD11C,0.150000*%
%ADD12C,0.120000*%
G04 APERTURE END LIST*
D10*
X189230000Y-27305000D02*
X205105000Y-27305000D01*
X205105000Y-52705000D01*
X189230000Y-52705000D01*
X189230000Y-27305000D01*
D11*
X220345000Y-52705000D02*
X233680000Y-52705000D01*
X233680000Y-69850000D01*
X220345000Y-69850000D01*
X220345000Y-52705000D01*
X189230000Y-55880000D02*
X212090000Y-55880000D01*
X212090000Y-68580000D01*
X189230000Y-68580000D01*
X189230000Y-55880000D01*
X212449580Y-54776666D02*
X212497200Y-54824285D01*
X212497200Y-54824285D02*
X212544819Y-54967142D01*
X212544819Y-54967142D02*
X212544819Y-55062380D01*
X212544819Y-55062380D02*
X212497200Y-55205237D01*
X212497200Y-55205237D02*
X212401961Y-55300475D01*
X212401961Y-55300475D02*
X212306723Y-55348094D01*
X212306723Y-55348094D02*
X212116247Y-55395713D01*
X212116247Y-55395713D02*
X211973390Y-55395713D01*
X211973390Y-55395713D02*
X211782914Y-55348094D01*
X211782914Y-55348094D02*
X211687676Y-55300475D01*
X211687676Y-55300475D02*
X211592438Y-55205237D01*
X211592438Y-55205237D02*
X211544819Y-55062380D01*
X211544819Y-55062380D02*
X211544819Y-54967142D01*
X211544819Y-54967142D02*
X211592438Y-54824285D01*
X211592438Y-54824285D02*
X211640057Y-54776666D01*
X211544819Y-53871904D02*
X211544819Y-54348094D01*
X211544819Y-54348094D02*
X212021009Y-54395713D01*
X212021009Y-54395713D02*
X211973390Y-54348094D01*
X211973390Y-54348094D02*
X211925771Y-54252856D01*
X211925771Y-54252856D02*
X211925771Y-54014761D01*
X211925771Y-54014761D02*
X211973390Y-53919523D01*
X211973390Y-53919523D02*
X212021009Y-53871904D01*
X212021009Y-53871904D02*
X212116247Y-53824285D01*
X212116247Y-53824285D02*
X212354342Y-53824285D01*
X212354342Y-53824285D02*
X212449580Y-53871904D01*
X212449580Y-53871904D02*
X212497200Y-53919523D01*
X212497200Y-53919523D02*
X212544819Y-54014761D01*
X212544819Y-54014761D02*
X212544819Y-54252856D01*
X212544819Y-54252856D02*
X212497200Y-54348094D01*
X212497200Y-54348094D02*
X212449580Y-54395713D01*
X200439580Y-47791666D02*
X200487200Y-47839285D01*
X200487200Y-47839285D02*
X200534819Y-47982142D01*
X200534819Y-47982142D02*
X200534819Y-48077380D01*
X200534819Y-48077380D02*
X200487200Y-48220237D01*
X200487200Y-48220237D02*
X200391961Y-48315475D01*
X200391961Y-48315475D02*
X200296723Y-48363094D01*
X200296723Y-48363094D02*
X200106247Y-48410713D01*
X200106247Y-48410713D02*
X199963390Y-48410713D01*
X199963390Y-48410713D02*
X199772914Y-48363094D01*
X199772914Y-48363094D02*
X199677676Y-48315475D01*
X199677676Y-48315475D02*
X199582438Y-48220237D01*
X199582438Y-48220237D02*
X199534819Y-48077380D01*
X199534819Y-48077380D02*
X199534819Y-47982142D01*
X199534819Y-47982142D02*
X199582438Y-47839285D01*
X199582438Y-47839285D02*
X199630057Y-47791666D01*
X199868152Y-46934523D02*
X200534819Y-46934523D01*
X199487200Y-47172618D02*
X200201485Y-47410713D01*
X200201485Y-47410713D02*
X200201485Y-46791666D01*
X204771666Y-65484819D02*
X204771666Y-66199104D01*
X204771666Y-66199104D02*
X204724047Y-66341961D01*
X204724047Y-66341961D02*
X204628809Y-66437200D01*
X204628809Y-66437200D02*
X204485952Y-66484819D01*
X204485952Y-66484819D02*
X204390714Y-66484819D01*
X205200238Y-65580057D02*
X205247857Y-65532438D01*
X205247857Y-65532438D02*
X205343095Y-65484819D01*
X205343095Y-65484819D02*
X205581190Y-65484819D01*
X205581190Y-65484819D02*
X205676428Y-65532438D01*
X205676428Y-65532438D02*
X205724047Y-65580057D01*
X205724047Y-65580057D02*
X205771666Y-65675295D01*
X205771666Y-65675295D02*
X205771666Y-65770533D01*
X205771666Y-65770533D02*
X205724047Y-65913390D01*
X205724047Y-65913390D02*
X205152619Y-66484819D01*
X205152619Y-66484819D02*
X205771666Y-66484819D01*
X194409762Y-62161009D02*
X194743095Y-62161009D01*
X194885952Y-62684819D02*
X194409762Y-62684819D01*
X194409762Y-62684819D02*
X194409762Y-61684819D01*
X194409762Y-61684819D02*
X194885952Y-61684819D01*
X195266905Y-62637200D02*
X195409762Y-62684819D01*
X195409762Y-62684819D02*
X195647857Y-62684819D01*
X195647857Y-62684819D02*
X195743095Y-62637200D01*
X195743095Y-62637200D02*
X195790714Y-62589580D01*
X195790714Y-62589580D02*
X195838333Y-62494342D01*
X195838333Y-62494342D02*
X195838333Y-62399104D01*
X195838333Y-62399104D02*
X195790714Y-62303866D01*
X195790714Y-62303866D02*
X195743095Y-62256247D01*
X195743095Y-62256247D02*
X195647857Y-62208628D01*
X195647857Y-62208628D02*
X195457381Y-62161009D01*
X195457381Y-62161009D02*
X195362143Y-62113390D01*
X195362143Y-62113390D02*
X195314524Y-62065771D01*
X195314524Y-62065771D02*
X195266905Y-61970533D01*
X195266905Y-61970533D02*
X195266905Y-61875295D01*
X195266905Y-61875295D02*
X195314524Y-61780057D01*
X195314524Y-61780057D02*
X195362143Y-61732438D01*
X195362143Y-61732438D02*
X195457381Y-61684819D01*
X195457381Y-61684819D02*
X195695476Y-61684819D01*
X195695476Y-61684819D02*
X195838333Y-61732438D01*
X196266905Y-62684819D02*
X196266905Y-61684819D01*
X196266905Y-61684819D02*
X196647857Y-61684819D01*
X196647857Y-61684819D02*
X196743095Y-61732438D01*
X196743095Y-61732438D02*
X196790714Y-61780057D01*
X196790714Y-61780057D02*
X196838333Y-61875295D01*
X196838333Y-61875295D02*
X196838333Y-62018152D01*
X196838333Y-62018152D02*
X196790714Y-62113390D01*
X196790714Y-62113390D02*
X196743095Y-62161009D01*
X196743095Y-62161009D02*
X196647857Y-62208628D01*
X196647857Y-62208628D02*
X196266905Y-62208628D01*
X197409762Y-62113390D02*
X197314524Y-62065771D01*
X197314524Y-62065771D02*
X197266905Y-62018152D01*
X197266905Y-62018152D02*
X197219286Y-61922914D01*
X197219286Y-61922914D02*
X197219286Y-61875295D01*
X197219286Y-61875295D02*
X197266905Y-61780057D01*
X197266905Y-61780057D02*
X197314524Y-61732438D01*
X197314524Y-61732438D02*
X197409762Y-61684819D01*
X197409762Y-61684819D02*
X197600238Y-61684819D01*
X197600238Y-61684819D02*
X197695476Y-61732438D01*
X197695476Y-61732438D02*
X197743095Y-61780057D01*
X197743095Y-61780057D02*
X197790714Y-61875295D01*
X197790714Y-61875295D02*
X197790714Y-61922914D01*
X197790714Y-61922914D02*
X197743095Y-62018152D01*
X197743095Y-62018152D02*
X197695476Y-62065771D01*
X197695476Y-62065771D02*
X197600238Y-62113390D01*
X197600238Y-62113390D02*
X197409762Y-62113390D01*
X197409762Y-62113390D02*
X197314524Y-62161009D01*
X197314524Y-62161009D02*
X197266905Y-62208628D01*
X197266905Y-62208628D02*
X197219286Y-62303866D01*
X197219286Y-62303866D02*
X197219286Y-62494342D01*
X197219286Y-62494342D02*
X197266905Y-62589580D01*
X197266905Y-62589580D02*
X197314524Y-62637200D01*
X197314524Y-62637200D02*
X197409762Y-62684819D01*
X197409762Y-62684819D02*
X197600238Y-62684819D01*
X197600238Y-62684819D02*
X197695476Y-62637200D01*
X197695476Y-62637200D02*
X197743095Y-62589580D01*
X197743095Y-62589580D02*
X197790714Y-62494342D01*
X197790714Y-62494342D02*
X197790714Y-62303866D01*
X197790714Y-62303866D02*
X197743095Y-62208628D01*
X197743095Y-62208628D02*
X197695476Y-62161009D01*
X197695476Y-62161009D02*
X197600238Y-62113390D01*
X198171667Y-61780057D02*
X198219286Y-61732438D01*
X198219286Y-61732438D02*
X198314524Y-61684819D01*
X198314524Y-61684819D02*
X198552619Y-61684819D01*
X198552619Y-61684819D02*
X198647857Y-61732438D01*
X198647857Y-61732438D02*
X198695476Y-61780057D01*
X198695476Y-61780057D02*
X198743095Y-61875295D01*
X198743095Y-61875295D02*
X198743095Y-61970533D01*
X198743095Y-61970533D02*
X198695476Y-62113390D01*
X198695476Y-62113390D02*
X198124048Y-62684819D01*
X198124048Y-62684819D02*
X198743095Y-62684819D01*
X199600238Y-61684819D02*
X199409762Y-61684819D01*
X199409762Y-61684819D02*
X199314524Y-61732438D01*
X199314524Y-61732438D02*
X199266905Y-61780057D01*
X199266905Y-61780057D02*
X199171667Y-61922914D01*
X199171667Y-61922914D02*
X199124048Y-62113390D01*
X199124048Y-62113390D02*
X199124048Y-62494342D01*
X199124048Y-62494342D02*
X199171667Y-62589580D01*
X199171667Y-62589580D02*
X199219286Y-62637200D01*
X199219286Y-62637200D02*
X199314524Y-62684819D01*
X199314524Y-62684819D02*
X199505000Y-62684819D01*
X199505000Y-62684819D02*
X199600238Y-62637200D01*
X199600238Y-62637200D02*
X199647857Y-62589580D01*
X199647857Y-62589580D02*
X199695476Y-62494342D01*
X199695476Y-62494342D02*
X199695476Y-62256247D01*
X199695476Y-62256247D02*
X199647857Y-62161009D01*
X199647857Y-62161009D02*
X199600238Y-62113390D01*
X199600238Y-62113390D02*
X199505000Y-62065771D01*
X199505000Y-62065771D02*
X199314524Y-62065771D01*
X199314524Y-62065771D02*
X199219286Y-62113390D01*
X199219286Y-62113390D02*
X199171667Y-62161009D01*
X199171667Y-62161009D02*
X199124048Y-62256247D01*
X200552619Y-61684819D02*
X200362143Y-61684819D01*
X200362143Y-61684819D02*
X200266905Y-61732438D01*
X200266905Y-61732438D02*
X200219286Y-61780057D01*
X200219286Y-61780057D02*
X200124048Y-61922914D01*
X200124048Y-61922914D02*
X200076429Y-62113390D01*
X200076429Y-62113390D02*
X200076429Y-62494342D01*
X200076429Y-62494342D02*
X200124048Y-62589580D01*
X200124048Y-62589580D02*
X200171667Y-62637200D01*
X200171667Y-62637200D02*
X200266905Y-62684819D01*
X200266905Y-62684819D02*
X200457381Y-62684819D01*
X200457381Y-62684819D02*
X200552619Y-62637200D01*
X200552619Y-62637200D02*
X200600238Y-62589580D01*
X200600238Y-62589580D02*
X200647857Y-62494342D01*
X200647857Y-62494342D02*
X200647857Y-62256247D01*
X200647857Y-62256247D02*
X200600238Y-62161009D01*
X200600238Y-62161009D02*
X200552619Y-62113390D01*
X200552619Y-62113390D02*
X200457381Y-62065771D01*
X200457381Y-62065771D02*
X200266905Y-62065771D01*
X200266905Y-62065771D02*
X200171667Y-62113390D01*
X200171667Y-62113390D02*
X200124048Y-62161009D01*
X200124048Y-62161009D02*
X200076429Y-62256247D01*
X221281666Y-50889819D02*
X221281666Y-51604104D01*
X221281666Y-51604104D02*
X221234047Y-51746961D01*
X221234047Y-51746961D02*
X221138809Y-51842200D01*
X221138809Y-51842200D02*
X220995952Y-51889819D01*
X220995952Y-51889819D02*
X220900714Y-51889819D01*
X222186428Y-51223152D02*
X222186428Y-51889819D01*
X221948333Y-50842200D02*
X221710238Y-51556485D01*
X221710238Y-51556485D02*
X222329285Y-51556485D01*
X225853809Y-61414819D02*
X225853809Y-60414819D01*
X225853809Y-60414819D02*
X226234761Y-60414819D01*
X226234761Y-60414819D02*
X226329999Y-60462438D01*
X226329999Y-60462438D02*
X226377618Y-60510057D01*
X226377618Y-60510057D02*
X226425237Y-60605295D01*
X226425237Y-60605295D02*
X226425237Y-60748152D01*
X226425237Y-60748152D02*
X226377618Y-60843390D01*
X226377618Y-60843390D02*
X226329999Y-60891009D01*
X226329999Y-60891009D02*
X226234761Y-60938628D01*
X226234761Y-60938628D02*
X225853809Y-60938628D01*
X226853809Y-61414819D02*
X226853809Y-60748152D01*
X226853809Y-60938628D02*
X226901428Y-60843390D01*
X226901428Y-60843390D02*
X226949047Y-60795771D01*
X226949047Y-60795771D02*
X227044285Y-60748152D01*
X227044285Y-60748152D02*
X227139523Y-60748152D01*
X227615714Y-61414819D02*
X227520476Y-61367200D01*
X227520476Y-61367200D02*
X227472857Y-61319580D01*
X227472857Y-61319580D02*
X227425238Y-61224342D01*
X227425238Y-61224342D02*
X227425238Y-60938628D01*
X227425238Y-60938628D02*
X227472857Y-60843390D01*
X227472857Y-60843390D02*
X227520476Y-60795771D01*
X227520476Y-60795771D02*
X227615714Y-60748152D01*
X227615714Y-60748152D02*
X227758571Y-60748152D01*
X227758571Y-60748152D02*
X227853809Y-60795771D01*
X227853809Y-60795771D02*
X227901428Y-60843390D01*
X227901428Y-60843390D02*
X227949047Y-60938628D01*
X227949047Y-60938628D02*
X227949047Y-61224342D01*
X227949047Y-61224342D02*
X227901428Y-61319580D01*
X227901428Y-61319580D02*
X227853809Y-61367200D01*
X227853809Y-61367200D02*
X227758571Y-61414819D01*
X227758571Y-61414819D02*
X227615714Y-61414819D01*
X228806190Y-60748152D02*
X228806190Y-61557676D01*
X228806190Y-61557676D02*
X228758571Y-61652914D01*
X228758571Y-61652914D02*
X228710952Y-61700533D01*
X228710952Y-61700533D02*
X228615714Y-61748152D01*
X228615714Y-61748152D02*
X228472857Y-61748152D01*
X228472857Y-61748152D02*
X228377619Y-61700533D01*
X228806190Y-61367200D02*
X228710952Y-61414819D01*
X228710952Y-61414819D02*
X228520476Y-61414819D01*
X228520476Y-61414819D02*
X228425238Y-61367200D01*
X228425238Y-61367200D02*
X228377619Y-61319580D01*
X228377619Y-61319580D02*
X228330000Y-61224342D01*
X228330000Y-61224342D02*
X228330000Y-60938628D01*
X228330000Y-60938628D02*
X228377619Y-60843390D01*
X228377619Y-60843390D02*
X228425238Y-60795771D01*
X228425238Y-60795771D02*
X228520476Y-60748152D01*
X228520476Y-60748152D02*
X228710952Y-60748152D01*
X228710952Y-60748152D02*
X228806190Y-60795771D01*
X210486666Y-43904819D02*
X210486666Y-44619104D01*
X210486666Y-44619104D02*
X210439047Y-44761961D01*
X210439047Y-44761961D02*
X210343809Y-44857200D01*
X210343809Y-44857200D02*
X210200952Y-44904819D01*
X210200952Y-44904819D02*
X210105714Y-44904819D01*
X211439047Y-43904819D02*
X210962857Y-43904819D01*
X210962857Y-43904819D02*
X210915238Y-44381009D01*
X210915238Y-44381009D02*
X210962857Y-44333390D01*
X210962857Y-44333390D02*
X211058095Y-44285771D01*
X211058095Y-44285771D02*
X211296190Y-44285771D01*
X211296190Y-44285771D02*
X211391428Y-44333390D01*
X211391428Y-44333390D02*
X211439047Y-44381009D01*
X211439047Y-44381009D02*
X211486666Y-44476247D01*
X211486666Y-44476247D02*
X211486666Y-44714342D01*
X211486666Y-44714342D02*
X211439047Y-44809580D01*
X211439047Y-44809580D02*
X211391428Y-44857200D01*
X211391428Y-44857200D02*
X211296190Y-44904819D01*
X211296190Y-44904819D02*
X211058095Y-44904819D01*
X211058095Y-44904819D02*
X210962857Y-44857200D01*
X210962857Y-44857200D02*
X210915238Y-44809580D01*
X215773095Y-38514819D02*
X215773095Y-39324342D01*
X215773095Y-39324342D02*
X215820714Y-39419580D01*
X215820714Y-39419580D02*
X215868333Y-39467200D01*
X215868333Y-39467200D02*
X215963571Y-39514819D01*
X215963571Y-39514819D02*
X216154047Y-39514819D01*
X216154047Y-39514819D02*
X216249285Y-39467200D01*
X216249285Y-39467200D02*
X216296904Y-39419580D01*
X216296904Y-39419580D02*
X216344523Y-39324342D01*
X216344523Y-39324342D02*
X216344523Y-38514819D01*
X216773095Y-38610057D02*
X216820714Y-38562438D01*
X216820714Y-38562438D02*
X216915952Y-38514819D01*
X216915952Y-38514819D02*
X217154047Y-38514819D01*
X217154047Y-38514819D02*
X217249285Y-38562438D01*
X217249285Y-38562438D02*
X217296904Y-38610057D01*
X217296904Y-38610057D02*
X217344523Y-38705295D01*
X217344523Y-38705295D02*
X217344523Y-38800533D01*
X217344523Y-38800533D02*
X217296904Y-38943390D01*
X217296904Y-38943390D02*
X216725476Y-39514819D01*
X216725476Y-39514819D02*
X217344523Y-39514819D01*
X225436667Y-42512200D02*
X225579524Y-42559819D01*
X225579524Y-42559819D02*
X225817619Y-42559819D01*
X225817619Y-42559819D02*
X225912857Y-42512200D01*
X225912857Y-42512200D02*
X225960476Y-42464580D01*
X225960476Y-42464580D02*
X226008095Y-42369342D01*
X226008095Y-42369342D02*
X226008095Y-42274104D01*
X226008095Y-42274104D02*
X225960476Y-42178866D01*
X225960476Y-42178866D02*
X225912857Y-42131247D01*
X225912857Y-42131247D02*
X225817619Y-42083628D01*
X225817619Y-42083628D02*
X225627143Y-42036009D01*
X225627143Y-42036009D02*
X225531905Y-41988390D01*
X225531905Y-41988390D02*
X225484286Y-41940771D01*
X225484286Y-41940771D02*
X225436667Y-41845533D01*
X225436667Y-41845533D02*
X225436667Y-41750295D01*
X225436667Y-41750295D02*
X225484286Y-41655057D01*
X225484286Y-41655057D02*
X225531905Y-41607438D01*
X225531905Y-41607438D02*
X225627143Y-41559819D01*
X225627143Y-41559819D02*
X225865238Y-41559819D01*
X225865238Y-41559819D02*
X226008095Y-41607438D01*
X226341429Y-41559819D02*
X226579524Y-42559819D01*
X226579524Y-42559819D02*
X226770000Y-41845533D01*
X226770000Y-41845533D02*
X226960476Y-42559819D01*
X226960476Y-42559819D02*
X227198572Y-41559819D01*
X228103333Y-42559819D02*
X227531905Y-42559819D01*
X227817619Y-42559819D02*
X227817619Y-41559819D01*
X227817619Y-41559819D02*
X227722381Y-41702676D01*
X227722381Y-41702676D02*
X227627143Y-41797914D01*
X227627143Y-41797914D02*
X227531905Y-41845533D01*
X224246190Y-50731009D02*
X224389047Y-50778628D01*
X224389047Y-50778628D02*
X224436666Y-50826247D01*
X224436666Y-50826247D02*
X224484285Y-50921485D01*
X224484285Y-50921485D02*
X224484285Y-51064342D01*
X224484285Y-51064342D02*
X224436666Y-51159580D01*
X224436666Y-51159580D02*
X224389047Y-51207200D01*
X224389047Y-51207200D02*
X224293809Y-51254819D01*
X224293809Y-51254819D02*
X223912857Y-51254819D01*
X223912857Y-51254819D02*
X223912857Y-50254819D01*
X223912857Y-50254819D02*
X224246190Y-50254819D01*
X224246190Y-50254819D02*
X224341428Y-50302438D01*
X224341428Y-50302438D02*
X224389047Y-50350057D01*
X224389047Y-50350057D02*
X224436666Y-50445295D01*
X224436666Y-50445295D02*
X224436666Y-50540533D01*
X224436666Y-50540533D02*
X224389047Y-50635771D01*
X224389047Y-50635771D02*
X224341428Y-50683390D01*
X224341428Y-50683390D02*
X224246190Y-50731009D01*
X224246190Y-50731009D02*
X223912857Y-50731009D01*
X225055714Y-51254819D02*
X224960476Y-51207200D01*
X224960476Y-51207200D02*
X224912857Y-51159580D01*
X224912857Y-51159580D02*
X224865238Y-51064342D01*
X224865238Y-51064342D02*
X224865238Y-50778628D01*
X224865238Y-50778628D02*
X224912857Y-50683390D01*
X224912857Y-50683390D02*
X224960476Y-50635771D01*
X224960476Y-50635771D02*
X225055714Y-50588152D01*
X225055714Y-50588152D02*
X225198571Y-50588152D01*
X225198571Y-50588152D02*
X225293809Y-50635771D01*
X225293809Y-50635771D02*
X225341428Y-50683390D01*
X225341428Y-50683390D02*
X225389047Y-50778628D01*
X225389047Y-50778628D02*
X225389047Y-51064342D01*
X225389047Y-51064342D02*
X225341428Y-51159580D01*
X225341428Y-51159580D02*
X225293809Y-51207200D01*
X225293809Y-51207200D02*
X225198571Y-51254819D01*
X225198571Y-51254819D02*
X225055714Y-51254819D01*
X225960476Y-51254819D02*
X225865238Y-51207200D01*
X225865238Y-51207200D02*
X225817619Y-51159580D01*
X225817619Y-51159580D02*
X225770000Y-51064342D01*
X225770000Y-51064342D02*
X225770000Y-50778628D01*
X225770000Y-50778628D02*
X225817619Y-50683390D01*
X225817619Y-50683390D02*
X225865238Y-50635771D01*
X225865238Y-50635771D02*
X225960476Y-50588152D01*
X225960476Y-50588152D02*
X226103333Y-50588152D01*
X226103333Y-50588152D02*
X226198571Y-50635771D01*
X226198571Y-50635771D02*
X226246190Y-50683390D01*
X226246190Y-50683390D02*
X226293809Y-50778628D01*
X226293809Y-50778628D02*
X226293809Y-51064342D01*
X226293809Y-51064342D02*
X226246190Y-51159580D01*
X226246190Y-51159580D02*
X226198571Y-51207200D01*
X226198571Y-51207200D02*
X226103333Y-51254819D01*
X226103333Y-51254819D02*
X225960476Y-51254819D01*
X226579524Y-50588152D02*
X226960476Y-50588152D01*
X226722381Y-50254819D02*
X226722381Y-51111961D01*
X226722381Y-51111961D02*
X226770000Y-51207200D01*
X226770000Y-51207200D02*
X226865238Y-51254819D01*
X226865238Y-51254819D02*
X226960476Y-51254819D01*
X227293810Y-51254819D02*
X227293810Y-50254819D01*
X227293810Y-50254819D02*
X227627143Y-50969104D01*
X227627143Y-50969104D02*
X227960476Y-50254819D01*
X227960476Y-50254819D02*
X227960476Y-51254819D01*
X228579524Y-51254819D02*
X228484286Y-51207200D01*
X228484286Y-51207200D02*
X228436667Y-51159580D01*
X228436667Y-51159580D02*
X228389048Y-51064342D01*
X228389048Y-51064342D02*
X228389048Y-50778628D01*
X228389048Y-50778628D02*
X228436667Y-50683390D01*
X228436667Y-50683390D02*
X228484286Y-50635771D01*
X228484286Y-50635771D02*
X228579524Y-50588152D01*
X228579524Y-50588152D02*
X228722381Y-50588152D01*
X228722381Y-50588152D02*
X228817619Y-50635771D01*
X228817619Y-50635771D02*
X228865238Y-50683390D01*
X228865238Y-50683390D02*
X228912857Y-50778628D01*
X228912857Y-50778628D02*
X228912857Y-51064342D01*
X228912857Y-51064342D02*
X228865238Y-51159580D01*
X228865238Y-51159580D02*
X228817619Y-51207200D01*
X228817619Y-51207200D02*
X228722381Y-51254819D01*
X228722381Y-51254819D02*
X228579524Y-51254819D01*
X229770000Y-51254819D02*
X229770000Y-50254819D01*
X229770000Y-51207200D02*
X229674762Y-51254819D01*
X229674762Y-51254819D02*
X229484286Y-51254819D01*
X229484286Y-51254819D02*
X229389048Y-51207200D01*
X229389048Y-51207200D02*
X229341429Y-51159580D01*
X229341429Y-51159580D02*
X229293810Y-51064342D01*
X229293810Y-51064342D02*
X229293810Y-50778628D01*
X229293810Y-50778628D02*
X229341429Y-50683390D01*
X229341429Y-50683390D02*
X229389048Y-50635771D01*
X229389048Y-50635771D02*
X229484286Y-50588152D01*
X229484286Y-50588152D02*
X229674762Y-50588152D01*
X229674762Y-50588152D02*
X229770000Y-50635771D01*
X230627143Y-51207200D02*
X230531905Y-51254819D01*
X230531905Y-51254819D02*
X230341429Y-51254819D01*
X230341429Y-51254819D02*
X230246191Y-51207200D01*
X230246191Y-51207200D02*
X230198572Y-51111961D01*
X230198572Y-51111961D02*
X230198572Y-50731009D01*
X230198572Y-50731009D02*
X230246191Y-50635771D01*
X230246191Y-50635771D02*
X230341429Y-50588152D01*
X230341429Y-50588152D02*
X230531905Y-50588152D01*
X230531905Y-50588152D02*
X230627143Y-50635771D01*
X230627143Y-50635771D02*
X230674762Y-50731009D01*
X230674762Y-50731009D02*
X230674762Y-50826247D01*
X230674762Y-50826247D02*
X230198572Y-50921485D01*
X220169580Y-32751666D02*
X220217200Y-32799285D01*
X220217200Y-32799285D02*
X220264819Y-32942142D01*
X220264819Y-32942142D02*
X220264819Y-33037380D01*
X220264819Y-33037380D02*
X220217200Y-33180237D01*
X220217200Y-33180237D02*
X220121961Y-33275475D01*
X220121961Y-33275475D02*
X220026723Y-33323094D01*
X220026723Y-33323094D02*
X219836247Y-33370713D01*
X219836247Y-33370713D02*
X219693390Y-33370713D01*
X219693390Y-33370713D02*
X219502914Y-33323094D01*
X219502914Y-33323094D02*
X219407676Y-33275475D01*
X219407676Y-33275475D02*
X219312438Y-33180237D01*
X219312438Y-33180237D02*
X219264819Y-33037380D01*
X219264819Y-33037380D02*
X219264819Y-32942142D01*
X219264819Y-32942142D02*
X219312438Y-32799285D01*
X219312438Y-32799285D02*
X219360057Y-32751666D01*
X220264819Y-31799285D02*
X220264819Y-32370713D01*
X220264819Y-32084999D02*
X219264819Y-32084999D01*
X219264819Y-32084999D02*
X219407676Y-32180237D01*
X219407676Y-32180237D02*
X219502914Y-32275475D01*
X219502914Y-32275475D02*
X219550533Y-32370713D01*
X210489580Y-47791666D02*
X210537200Y-47839285D01*
X210537200Y-47839285D02*
X210584819Y-47982142D01*
X210584819Y-47982142D02*
X210584819Y-48077380D01*
X210584819Y-48077380D02*
X210537200Y-48220237D01*
X210537200Y-48220237D02*
X210441961Y-48315475D01*
X210441961Y-48315475D02*
X210346723Y-48363094D01*
X210346723Y-48363094D02*
X210156247Y-48410713D01*
X210156247Y-48410713D02*
X210013390Y-48410713D01*
X210013390Y-48410713D02*
X209822914Y-48363094D01*
X209822914Y-48363094D02*
X209727676Y-48315475D01*
X209727676Y-48315475D02*
X209632438Y-48220237D01*
X209632438Y-48220237D02*
X209584819Y-48077380D01*
X209584819Y-48077380D02*
X209584819Y-47982142D01*
X209584819Y-47982142D02*
X209632438Y-47839285D01*
X209632438Y-47839285D02*
X209680057Y-47791666D01*
X209584819Y-47458332D02*
X209584819Y-46839285D01*
X209584819Y-46839285D02*
X209965771Y-47172618D01*
X209965771Y-47172618D02*
X209965771Y-47029761D01*
X209965771Y-47029761D02*
X210013390Y-46934523D01*
X210013390Y-46934523D02*
X210061009Y-46886904D01*
X210061009Y-46886904D02*
X210156247Y-46839285D01*
X210156247Y-46839285D02*
X210394342Y-46839285D01*
X210394342Y-46839285D02*
X210489580Y-46886904D01*
X210489580Y-46886904D02*
X210537200Y-46934523D01*
X210537200Y-46934523D02*
X210584819Y-47029761D01*
X210584819Y-47029761D02*
X210584819Y-47315475D01*
X210584819Y-47315475D02*
X210537200Y-47410713D01*
X210537200Y-47410713D02*
X210489580Y-47458332D01*
X199056666Y-42634819D02*
X199056666Y-43349104D01*
X199056666Y-43349104D02*
X199009047Y-43491961D01*
X199009047Y-43491961D02*
X198913809Y-43587200D01*
X198913809Y-43587200D02*
X198770952Y-43634819D01*
X198770952Y-43634819D02*
X198675714Y-43634819D01*
X199437619Y-42634819D02*
X200056666Y-42634819D01*
X200056666Y-42634819D02*
X199723333Y-43015771D01*
X199723333Y-43015771D02*
X199866190Y-43015771D01*
X199866190Y-43015771D02*
X199961428Y-43063390D01*
X199961428Y-43063390D02*
X200009047Y-43111009D01*
X200009047Y-43111009D02*
X200056666Y-43206247D01*
X200056666Y-43206247D02*
X200056666Y-43444342D01*
X200056666Y-43444342D02*
X200009047Y-43539580D01*
X200009047Y-43539580D02*
X199961428Y-43587200D01*
X199961428Y-43587200D02*
X199866190Y-43634819D01*
X199866190Y-43634819D02*
X199580476Y-43634819D01*
X199580476Y-43634819D02*
X199485238Y-43587200D01*
X199485238Y-43587200D02*
X199437619Y-43539580D01*
X193127857Y-28029819D02*
X193699285Y-28029819D01*
X193413571Y-29029819D02*
X193413571Y-28029819D01*
X194413571Y-28982200D02*
X194318333Y-29029819D01*
X194318333Y-29029819D02*
X194127857Y-29029819D01*
X194127857Y-29029819D02*
X194032619Y-28982200D01*
X194032619Y-28982200D02*
X193985000Y-28886961D01*
X193985000Y-28886961D02*
X193985000Y-28506009D01*
X193985000Y-28506009D02*
X194032619Y-28410771D01*
X194032619Y-28410771D02*
X194127857Y-28363152D01*
X194127857Y-28363152D02*
X194318333Y-28363152D01*
X194318333Y-28363152D02*
X194413571Y-28410771D01*
X194413571Y-28410771D02*
X194461190Y-28506009D01*
X194461190Y-28506009D02*
X194461190Y-28601247D01*
X194461190Y-28601247D02*
X193985000Y-28696485D01*
X194889762Y-29029819D02*
X194889762Y-28363152D01*
X194889762Y-28458390D02*
X194937381Y-28410771D01*
X194937381Y-28410771D02*
X195032619Y-28363152D01*
X195032619Y-28363152D02*
X195175476Y-28363152D01*
X195175476Y-28363152D02*
X195270714Y-28410771D01*
X195270714Y-28410771D02*
X195318333Y-28506009D01*
X195318333Y-28506009D02*
X195318333Y-29029819D01*
X195318333Y-28506009D02*
X195365952Y-28410771D01*
X195365952Y-28410771D02*
X195461190Y-28363152D01*
X195461190Y-28363152D02*
X195604047Y-28363152D01*
X195604047Y-28363152D02*
X195699286Y-28410771D01*
X195699286Y-28410771D02*
X195746905Y-28506009D01*
X195746905Y-28506009D02*
X195746905Y-29029819D01*
X196223095Y-28363152D02*
X196223095Y-29363152D01*
X196223095Y-28410771D02*
X196318333Y-28363152D01*
X196318333Y-28363152D02*
X196508809Y-28363152D01*
X196508809Y-28363152D02*
X196604047Y-28410771D01*
X196604047Y-28410771D02*
X196651666Y-28458390D01*
X196651666Y-28458390D02*
X196699285Y-28553628D01*
X196699285Y-28553628D02*
X196699285Y-28839342D01*
X196699285Y-28839342D02*
X196651666Y-28934580D01*
X196651666Y-28934580D02*
X196604047Y-28982200D01*
X196604047Y-28982200D02*
X196508809Y-29029819D01*
X196508809Y-29029819D02*
X196318333Y-29029819D01*
X196318333Y-29029819D02*
X196223095Y-28982200D01*
X197080238Y-28982200D02*
X197223095Y-29029819D01*
X197223095Y-29029819D02*
X197461190Y-29029819D01*
X197461190Y-29029819D02*
X197556428Y-28982200D01*
X197556428Y-28982200D02*
X197604047Y-28934580D01*
X197604047Y-28934580D02*
X197651666Y-28839342D01*
X197651666Y-28839342D02*
X197651666Y-28744104D01*
X197651666Y-28744104D02*
X197604047Y-28648866D01*
X197604047Y-28648866D02*
X197556428Y-28601247D01*
X197556428Y-28601247D02*
X197461190Y-28553628D01*
X197461190Y-28553628D02*
X197270714Y-28506009D01*
X197270714Y-28506009D02*
X197175476Y-28458390D01*
X197175476Y-28458390D02*
X197127857Y-28410771D01*
X197127857Y-28410771D02*
X197080238Y-28315533D01*
X197080238Y-28315533D02*
X197080238Y-28220295D01*
X197080238Y-28220295D02*
X197127857Y-28125057D01*
X197127857Y-28125057D02*
X197175476Y-28077438D01*
X197175476Y-28077438D02*
X197270714Y-28029819D01*
X197270714Y-28029819D02*
X197508809Y-28029819D01*
X197508809Y-28029819D02*
X197651666Y-28077438D01*
X198461190Y-28982200D02*
X198365952Y-29029819D01*
X198365952Y-29029819D02*
X198175476Y-29029819D01*
X198175476Y-29029819D02*
X198080238Y-28982200D01*
X198080238Y-28982200D02*
X198032619Y-28886961D01*
X198032619Y-28886961D02*
X198032619Y-28506009D01*
X198032619Y-28506009D02*
X198080238Y-28410771D01*
X198080238Y-28410771D02*
X198175476Y-28363152D01*
X198175476Y-28363152D02*
X198365952Y-28363152D01*
X198365952Y-28363152D02*
X198461190Y-28410771D01*
X198461190Y-28410771D02*
X198508809Y-28506009D01*
X198508809Y-28506009D02*
X198508809Y-28601247D01*
X198508809Y-28601247D02*
X198032619Y-28696485D01*
X198937381Y-28363152D02*
X198937381Y-29029819D01*
X198937381Y-28458390D02*
X198985000Y-28410771D01*
X198985000Y-28410771D02*
X199080238Y-28363152D01*
X199080238Y-28363152D02*
X199223095Y-28363152D01*
X199223095Y-28363152D02*
X199318333Y-28410771D01*
X199318333Y-28410771D02*
X199365952Y-28506009D01*
X199365952Y-28506009D02*
X199365952Y-29029819D01*
X199794524Y-28982200D02*
X199889762Y-29029819D01*
X199889762Y-29029819D02*
X200080238Y-29029819D01*
X200080238Y-29029819D02*
X200175476Y-28982200D01*
X200175476Y-28982200D02*
X200223095Y-28886961D01*
X200223095Y-28886961D02*
X200223095Y-28839342D01*
X200223095Y-28839342D02*
X200175476Y-28744104D01*
X200175476Y-28744104D02*
X200080238Y-28696485D01*
X200080238Y-28696485D02*
X199937381Y-28696485D01*
X199937381Y-28696485D02*
X199842143Y-28648866D01*
X199842143Y-28648866D02*
X199794524Y-28553628D01*
X199794524Y-28553628D02*
X199794524Y-28506009D01*
X199794524Y-28506009D02*
X199842143Y-28410771D01*
X199842143Y-28410771D02*
X199937381Y-28363152D01*
X199937381Y-28363152D02*
X200080238Y-28363152D01*
X200080238Y-28363152D02*
X200175476Y-28410771D01*
X200794524Y-29029819D02*
X200699286Y-28982200D01*
X200699286Y-28982200D02*
X200651667Y-28934580D01*
X200651667Y-28934580D02*
X200604048Y-28839342D01*
X200604048Y-28839342D02*
X200604048Y-28553628D01*
X200604048Y-28553628D02*
X200651667Y-28458390D01*
X200651667Y-28458390D02*
X200699286Y-28410771D01*
X200699286Y-28410771D02*
X200794524Y-28363152D01*
X200794524Y-28363152D02*
X200937381Y-28363152D01*
X200937381Y-28363152D02*
X201032619Y-28410771D01*
X201032619Y-28410771D02*
X201080238Y-28458390D01*
X201080238Y-28458390D02*
X201127857Y-28553628D01*
X201127857Y-28553628D02*
X201127857Y-28839342D01*
X201127857Y-28839342D02*
X201080238Y-28934580D01*
X201080238Y-28934580D02*
X201032619Y-28982200D01*
X201032619Y-28982200D02*
X200937381Y-29029819D01*
X200937381Y-29029819D02*
X200794524Y-29029819D01*
X201556429Y-29029819D02*
X201556429Y-28363152D01*
X201556429Y-28553628D02*
X201604048Y-28458390D01*
X201604048Y-28458390D02*
X201651667Y-28410771D01*
X201651667Y-28410771D02*
X201746905Y-28363152D01*
X201746905Y-28363152D02*
X201842143Y-28363152D01*
X227482319Y-35893333D02*
X228196604Y-35893333D01*
X228196604Y-35893333D02*
X228339461Y-35940952D01*
X228339461Y-35940952D02*
X228434700Y-36036190D01*
X228434700Y-36036190D02*
X228482319Y-36179047D01*
X228482319Y-36179047D02*
X228482319Y-36274285D01*
X228482319Y-34893333D02*
X228482319Y-35464761D01*
X228482319Y-35179047D02*
X227482319Y-35179047D01*
X227482319Y-35179047D02*
X227625176Y-35274285D01*
X227625176Y-35274285D02*
X227720414Y-35369523D01*
X227720414Y-35369523D02*
X227768033Y-35464761D01*
X223869580Y-37606666D02*
X223917200Y-37654285D01*
X223917200Y-37654285D02*
X223964819Y-37797142D01*
X223964819Y-37797142D02*
X223964819Y-37892380D01*
X223964819Y-37892380D02*
X223917200Y-38035237D01*
X223917200Y-38035237D02*
X223821961Y-38130475D01*
X223821961Y-38130475D02*
X223726723Y-38178094D01*
X223726723Y-38178094D02*
X223536247Y-38225713D01*
X223536247Y-38225713D02*
X223393390Y-38225713D01*
X223393390Y-38225713D02*
X223202914Y-38178094D01*
X223202914Y-38178094D02*
X223107676Y-38130475D01*
X223107676Y-38130475D02*
X223012438Y-38035237D01*
X223012438Y-38035237D02*
X222964819Y-37892380D01*
X222964819Y-37892380D02*
X222964819Y-37797142D01*
X222964819Y-37797142D02*
X223012438Y-37654285D01*
X223012438Y-37654285D02*
X223060057Y-37606666D01*
X223060057Y-37225713D02*
X223012438Y-37178094D01*
X223012438Y-37178094D02*
X222964819Y-37082856D01*
X222964819Y-37082856D02*
X222964819Y-36844761D01*
X222964819Y-36844761D02*
X223012438Y-36749523D01*
X223012438Y-36749523D02*
X223060057Y-36701904D01*
X223060057Y-36701904D02*
X223155295Y-36654285D01*
X223155295Y-36654285D02*
X223250533Y-36654285D01*
X223250533Y-36654285D02*
X223393390Y-36701904D01*
X223393390Y-36701904D02*
X223964819Y-37273332D01*
X223964819Y-37273332D02*
X223964819Y-36654285D01*
D12*
%TO.C,C5*%
X213085000Y-57861252D02*
X213085000Y-56438748D01*
X214905000Y-57861252D02*
X214905000Y-56438748D01*
%TO.C,C4*%
X201020000Y-48336252D02*
X201020000Y-46913748D01*
X202840000Y-48336252D02*
X202840000Y-46913748D01*
%TO.C,J2*%
X211515000Y-67360000D02*
X211515000Y-57080000D01*
X211515000Y-67360000D02*
X208915000Y-67360000D01*
X211515000Y-57080000D02*
X206315000Y-57080000D01*
X208915000Y-67360000D02*
X208915000Y-64760000D01*
X208915000Y-64760000D02*
X206315000Y-64760000D01*
X207645000Y-67360000D02*
X206315000Y-67360000D01*
X206315000Y-67360000D02*
X206315000Y-66030000D01*
X206315000Y-64760000D02*
X206315000Y-57080000D01*
%TO.C,J4*%
X220920000Y-53597500D02*
X222250000Y-53597500D01*
X220920000Y-54927500D02*
X220920000Y-53597500D01*
X220920000Y-56197500D02*
X220920000Y-68957500D01*
X220920000Y-56197500D02*
X223580000Y-56197500D01*
X220920000Y-68957500D02*
X223580000Y-68957500D01*
X223580000Y-56197500D02*
X223580000Y-68957500D01*
%TO.C,J5*%
X209610000Y-41910000D02*
X209610000Y-34230000D01*
X209610000Y-41910000D02*
X206950000Y-41910000D01*
X209610000Y-34230000D02*
X206950000Y-34230000D01*
X208280000Y-44510000D02*
X206950000Y-44510000D01*
X206950000Y-44510000D02*
X206950000Y-43180000D01*
X206950000Y-41910000D02*
X206950000Y-34230000D01*
%TO.C,U2*%
X219035000Y-37690000D02*
X217895000Y-37690000D01*
X217895000Y-37920000D02*
X217895000Y-37690000D01*
X217895000Y-37920000D02*
X215175000Y-37920000D01*
X217895000Y-33200000D02*
X217895000Y-33430000D01*
X215175000Y-37920000D02*
X215175000Y-36610000D01*
X215175000Y-34510000D02*
X215175000Y-33200000D01*
X215175000Y-33200000D02*
X217895000Y-33200000D01*
%TO.C,SW1*%
X223270000Y-45605000D02*
X223270000Y-47105000D01*
X224520000Y-49605000D02*
X229020000Y-49605000D01*
X229020000Y-43105000D02*
X224520000Y-43105000D01*
X230270000Y-47105000D02*
X230270000Y-45605000D01*
%TO.C,C1*%
X220750000Y-33296252D02*
X220750000Y-31873748D01*
X222570000Y-33296252D02*
X222570000Y-31873748D01*
%TO.C,C3*%
X209190000Y-46913748D02*
X209190000Y-48336252D01*
X207370000Y-46913748D02*
X207370000Y-48336252D01*
%TO.C,J3*%
X203260000Y-41910000D02*
X203260000Y-34230000D01*
X203260000Y-41910000D02*
X200600000Y-41910000D01*
X203260000Y-34230000D02*
X200600000Y-34230000D01*
X201930000Y-44510000D02*
X200600000Y-44510000D01*
X200600000Y-44510000D02*
X200600000Y-43180000D01*
X200600000Y-41910000D02*
X200600000Y-34230000D01*
%TO.C,J1*%
X229377500Y-39460000D02*
X229377500Y-39010000D01*
X231227500Y-39460000D02*
X229377500Y-39460000D01*
X233777500Y-39460000D02*
X233527500Y-39460000D01*
X228827500Y-37260000D02*
X229277500Y-37260000D01*
X228827500Y-37260000D02*
X228827500Y-36810000D01*
X229377500Y-31660000D02*
X229377500Y-32110000D01*
X231227500Y-31660000D02*
X229377500Y-31660000D01*
X233777500Y-31660000D02*
X233527500Y-31660000D01*
%TO.C,C2*%
X222570000Y-36728748D02*
X222570000Y-38151252D01*
X220750000Y-36728748D02*
X220750000Y-38151252D01*
%TD*%
M02*
