M48
; DRILL file {KiCad 7.0.10-7.0.10~ubuntu22.04.1} date Mon 08 Jan 2024 16:33:33 GMT
; FORMAT={-:-/ absolute / inch / decimal}
; #@! TF.CreationDate,2024-01-08T16:33:33+00:00
; #@! TF.GenerationSoftware,Kicad,Pcbnew,7.0.10-7.0.10~ubuntu22.04.1
; #@! TF.FileFunction,Plated,1,2,PTH
FMAT,2
INCH
; #@! TA.AperFunction,Plated,PTH,ViaDrill
T1C0.0157
; #@! TA.AperFunction,Plated,PTH,ComponentDrill
T2C0.0236
; #@! TA.AperFunction,Plated,PTH,ComponentDrill
T3C0.0335
; #@! TA.AperFunction,Plated,PTH,ComponentDrill
T4C0.0394
; #@! TA.AperFunction,Plated,PTH,ComponentDrill
T5C0.0433
%
G90
G05
T1
X7.925Y-2.0
X7.975Y-2.0
X8.175Y-2.0
X8.225Y-2.0
X8.4Y-2.125
X8.45Y-2.125
X8.575Y-1.525
X8.625Y-1.525
X8.7Y-1.15
X8.7Y-1.6
X8.75Y-1.15
X8.75Y-1.6
X8.9Y-1.3
X8.9Y-1.35
X8.95Y-1.3
X8.95Y-1.35
T3
X9.0424Y-1.3016
X9.0424Y-1.4984
T4
X7.95Y-1.4
X7.95Y-1.5
X7.95Y-1.6
X7.95Y-1.7
X8.175Y-2.2996
X8.175Y-2.3996
X8.175Y-2.4996
X8.175Y-2.5996
X8.2Y-1.4
X8.2Y-1.5
X8.2Y-1.6
X8.2Y-1.7
X8.275Y-2.2996
X8.275Y-2.3996
X8.275Y-2.4996
X8.275Y-2.5996
X8.75Y-2.1625
X8.75Y-2.2625
X8.75Y-2.3625
X8.75Y-2.4625
X8.75Y-2.5625
X8.75Y-2.6625
T5
X8.8Y-1.7364
X8.8Y-1.9136
X9.0559Y-1.7364
X9.0559Y-1.9136
T2
G00X9.1349Y-1.2622
M15
G01X9.1625Y-1.2622
M16
G05
G00X9.1625Y-1.5378
M15
G01X9.1349Y-1.5378
M16
G05
M30
