%TF.GenerationSoftware,KiCad,Pcbnew,7.0.10-7.0.10~ubuntu22.04.1*%
%TF.CreationDate,2024-01-23T13:21:09+00:00*%
%TF.ProjectId,wifi_temp_sensor,77696669-5f74-4656-9d70-5f73656e736f,rev?*%
%TF.SameCoordinates,Original*%
%TF.FileFunction,Copper,L2,Bot*%
%TF.FilePolarity,Positive*%
%FSLAX46Y46*%
G04 Gerber Fmt 4.6, Leading zero omitted, Abs format (unit mm)*
G04 Created by KiCad (PCBNEW 7.0.10-7.0.10~ubuntu22.04.1) date 2024-01-23 13:21:09*
%MOMM*%
%LPD*%
G01*
G04 APERTURE LIST*
%TA.AperFunction,NonConductor*%
%ADD10C,0.100000*%
%TD*%
%TA.AperFunction,ComponentPad*%
%ADD11R,1.700000X1.700000*%
%TD*%
%TA.AperFunction,ComponentPad*%
%ADD12O,1.700000X1.700000*%
%TD*%
%TA.AperFunction,ComponentPad*%
%ADD13C,1.700000*%
%TD*%
%TA.AperFunction,ComponentPad*%
%ADD14C,2.000000*%
%TD*%
%TA.AperFunction,ComponentPad*%
%ADD15O,1.900000X1.200000*%
%TD*%
%TA.AperFunction,ComponentPad*%
%ADD16C,1.450000*%
%TD*%
%TA.AperFunction,ViaPad*%
%ADD17C,0.800000*%
%TD*%
%TA.AperFunction,Conductor*%
%ADD18C,0.500000*%
%TD*%
G04 APERTURE END LIST*
D10*
X233280000Y-28575000D02*
G75*
G03*
X229280000Y-28575000I-2000000J0D01*
G01*
X229280000Y-28575000D02*
G75*
G03*
X233280000Y-28575000I2000000J0D01*
G01*
X189329420Y-66675000D02*
G75*
G03*
X185329420Y-66675000I-2000000J0D01*
G01*
X185329420Y-66675000D02*
G75*
G03*
X189329420Y-66675000I2000000J0D01*
G01*
X189325000Y-28575000D02*
G75*
G03*
X185325000Y-28575000I-2000000J0D01*
G01*
X185325000Y-28575000D02*
G75*
G03*
X189325000Y-28575000I2000000J0D01*
G01*
X190930000Y-49180000D02*
G75*
G03*
X186930000Y-49180000I-2000000J0D01*
G01*
X186930000Y-49180000D02*
G75*
G03*
X190930000Y-49180000I2000000J0D01*
G01*
X233280000Y-51075000D02*
G75*
G03*
X229280000Y-51075000I-2000000J0D01*
G01*
X229280000Y-51075000D02*
G75*
G03*
X233280000Y-51075000I2000000J0D01*
G01*
D11*
%TO.P,J2,1,Pin_1*%
%TO.N,GND*%
X207645000Y-66030000D03*
D12*
%TO.P,J2,2,Pin_2*%
%TO.N,ESP_Tx*%
X210185000Y-66030000D03*
%TO.P,J2,3,Pin_3*%
%TO.N,SDA*%
X207645000Y-63490000D03*
%TO.P,J2,4,Pin_4*%
%TO.N,+3.3V*%
X210185000Y-63490000D03*
%TO.P,J2,5,Pin_5*%
%TO.N,SCL*%
X207645000Y-60950000D03*
%TO.P,J2,6,Pin_6*%
%TO.N,unconnected-(J2-Pin_6-Pad6)*%
X210185000Y-60950000D03*
%TO.P,J2,7,Pin_7*%
%TO.N,ESP_Rx*%
X207645000Y-58410000D03*
%TO.P,J2,8,Pin_8*%
%TO.N,+3.3V*%
X210185000Y-58410000D03*
%TD*%
D11*
%TO.P,J5,1,Pin_1*%
%TO.N,GND*%
X208280000Y-43180000D03*
D12*
%TO.P,J5,2,Pin_2*%
%TO.N,+3.3V*%
X208280000Y-40640000D03*
%TO.P,J5,3,Pin_3*%
%TO.N,SCL*%
X208280000Y-38100000D03*
%TO.P,J5,4,Pin_4*%
%TO.N,SDA*%
X208280000Y-35560000D03*
%TD*%
D13*
%TO.P,SW1,1*%
%TO.N,SCL*%
X220635000Y-26545000D03*
%TO.P,SW1,2*%
%TO.N,GND*%
X225135000Y-26545000D03*
D14*
%TO.P,SW1,3*%
%TO.N,N/C*%
X226385000Y-29045000D03*
X219385000Y-29045000D03*
%TD*%
D11*
%TO.P,J3,1,Pin_1*%
%TO.N,+3.3V*%
X201930000Y-43180000D03*
D12*
%TO.P,J3,2,Pin_2*%
%TO.N,GND*%
X201930000Y-40640000D03*
%TO.P,J3,3,Pin_3*%
%TO.N,SCL*%
X201930000Y-38100000D03*
%TO.P,J3,4,Pin_4*%
%TO.N,SDA*%
X201930000Y-35560000D03*
%TD*%
D15*
%TO.P,J1,6,Shield*%
%TO.N,unconnected-(J1-Shield-Pad6)*%
X232377500Y-41870000D03*
D16*
X229677500Y-40870000D03*
X229677500Y-35870000D03*
D15*
X232377500Y-34870000D03*
%TD*%
D11*
%TO.P,J4,1,Pin_1*%
%TO.N,GND*%
X222250000Y-55880000D03*
D12*
%TO.P,J4,2,Pin_2*%
%TO.N,unconnected-(J4-Pin_2-Pad2)*%
X222250000Y-58420000D03*
%TO.P,J4,3,Pin_3*%
%TO.N,+5V*%
X222250000Y-60960000D03*
%TO.P,J4,4,Pin_4*%
%TO.N,ESP_Rx*%
X222250000Y-63500000D03*
%TO.P,J4,5,Pin_5*%
%TO.N,ESP_Tx*%
X222250000Y-66040000D03*
%TO.P,J4,6,Pin_6*%
%TO.N,unconnected-(J4-Pin_6-Pad6)*%
X222250000Y-68580000D03*
%TD*%
D17*
%TO.N,+3.3V*%
X213995000Y-60325000D03*
X212725000Y-63500000D03*
%TO.N,GND*%
X222250000Y-50800000D03*
X213360000Y-53975000D03*
X214630000Y-53975000D03*
X227330000Y-37100000D03*
X226060000Y-35830000D03*
X198755000Y-48895000D03*
X226060000Y-37100000D03*
X220980000Y-38740000D03*
X198755000Y-50165000D03*
X219075000Y-48895000D03*
X227330000Y-35830000D03*
X220980000Y-50800000D03*
X205740000Y-50165000D03*
X217805000Y-48895000D03*
X205740000Y-48895000D03*
X222250000Y-38740000D03*
%TD*%
D18*
%TO.N,+3.3V*%
X212725000Y-63500000D02*
X212725000Y-61595000D01*
X212725000Y-61595000D02*
X213995000Y-60325000D01*
%TD*%
%TA.AperFunction,Conductor*%
%TO.N,GND*%
G36*
X219637780Y-25419685D02*
G01*
X219683535Y-25472489D01*
X219693479Y-25541647D01*
X219664454Y-25605203D01*
X219658422Y-25611681D01*
X219596505Y-25673597D01*
X219460965Y-25867169D01*
X219460964Y-25867171D01*
X219361098Y-26081335D01*
X219361094Y-26081344D01*
X219299938Y-26309586D01*
X219299936Y-26309596D01*
X219279341Y-26544999D01*
X219279341Y-26545000D01*
X219299936Y-26780403D01*
X219299938Y-26780413D01*
X219361094Y-27008655D01*
X219361096Y-27008659D01*
X219361097Y-27008663D01*
X219460965Y-27222830D01*
X219545708Y-27343855D01*
X219549574Y-27349376D01*
X219571901Y-27415583D01*
X219554891Y-27483350D01*
X219503943Y-27531163D01*
X219447999Y-27544500D01*
X219260665Y-27544500D01*
X219015383Y-27585429D01*
X218780197Y-27666169D01*
X218780188Y-27666172D01*
X218561493Y-27784524D01*
X218365257Y-27937261D01*
X218196833Y-28120217D01*
X218060826Y-28328393D01*
X217960936Y-28556118D01*
X217899892Y-28797175D01*
X217899890Y-28797187D01*
X217879357Y-29044994D01*
X217879357Y-29045005D01*
X217899890Y-29292812D01*
X217899892Y-29292824D01*
X217960936Y-29533881D01*
X218060826Y-29761606D01*
X218196833Y-29969782D01*
X218206374Y-29980146D01*
X218365256Y-30152738D01*
X218561491Y-30305474D01*
X218780190Y-30423828D01*
X219015386Y-30504571D01*
X219260665Y-30545500D01*
X219509335Y-30545500D01*
X219754614Y-30504571D01*
X219989810Y-30423828D01*
X220208509Y-30305474D01*
X220404744Y-30152738D01*
X220573164Y-29969785D01*
X220709173Y-29761607D01*
X220809063Y-29533881D01*
X220870108Y-29292821D01*
X220872423Y-29264886D01*
X220890643Y-29045005D01*
X220890643Y-29044994D01*
X220870109Y-28797187D01*
X220870107Y-28797175D01*
X220809063Y-28556118D01*
X220709173Y-28328393D01*
X220573163Y-28120213D01*
X220561516Y-28107561D01*
X220530594Y-28044907D01*
X220538455Y-27975481D01*
X220582602Y-27921325D01*
X220641935Y-27900052D01*
X220870408Y-27880063D01*
X221098663Y-27818903D01*
X221312830Y-27719035D01*
X221506401Y-27583495D01*
X221673495Y-27416401D01*
X221809035Y-27222830D01*
X221908903Y-27008663D01*
X221970063Y-26780408D01*
X221990659Y-26545000D01*
X221970063Y-26309592D01*
X221908903Y-26081337D01*
X221809035Y-25867171D01*
X221750537Y-25783626D01*
X221673494Y-25673597D01*
X221611578Y-25611681D01*
X221578093Y-25550358D01*
X221583077Y-25480666D01*
X221624949Y-25424733D01*
X221690413Y-25400316D01*
X221699259Y-25400000D01*
X224292191Y-25400000D01*
X224359230Y-25419685D01*
X224379872Y-25436319D01*
X225002466Y-26058913D01*
X224992685Y-26060320D01*
X224861900Y-26120048D01*
X224753239Y-26214202D01*
X224675507Y-26335156D01*
X224651923Y-26415476D01*
X224020072Y-25783625D01*
X223961401Y-25867419D01*
X223861570Y-26081507D01*
X223861566Y-26081516D01*
X223800432Y-26309673D01*
X223800430Y-26309684D01*
X223779843Y-26544998D01*
X223779843Y-26545001D01*
X223800430Y-26780315D01*
X223800432Y-26780326D01*
X223861566Y-27008483D01*
X223861570Y-27008492D01*
X223961400Y-27222579D01*
X223961402Y-27222583D01*
X224020072Y-27306373D01*
X224020073Y-27306373D01*
X224651923Y-26674523D01*
X224675507Y-26754844D01*
X224753239Y-26875798D01*
X224861900Y-26969952D01*
X224992685Y-27029680D01*
X225002466Y-27031086D01*
X224373625Y-27659925D01*
X224457421Y-27718599D01*
X224671507Y-27818429D01*
X224671516Y-27818433D01*
X224899673Y-27879567D01*
X224899684Y-27879569D01*
X225128487Y-27899587D01*
X225193556Y-27925039D01*
X225234535Y-27981630D01*
X225238413Y-28051392D01*
X225208913Y-28107094D01*
X225196836Y-28120213D01*
X225060826Y-28328393D01*
X224960936Y-28556118D01*
X224899892Y-28797175D01*
X224899890Y-28797187D01*
X224879357Y-29044994D01*
X224879357Y-29045005D01*
X224899890Y-29292812D01*
X224899892Y-29292824D01*
X224960936Y-29533881D01*
X225060826Y-29761606D01*
X225196833Y-29969782D01*
X225206374Y-29980146D01*
X225365256Y-30152738D01*
X225561491Y-30305474D01*
X225780190Y-30423828D01*
X226015386Y-30504571D01*
X226260665Y-30545500D01*
X226509335Y-30545500D01*
X226754614Y-30504571D01*
X226989810Y-30423828D01*
X227208509Y-30305474D01*
X227404744Y-30152738D01*
X227573164Y-29969785D01*
X227709173Y-29761607D01*
X227809063Y-29533881D01*
X227870108Y-29292821D01*
X227872423Y-29264886D01*
X227890643Y-29045005D01*
X227890643Y-29044994D01*
X227870109Y-28797187D01*
X227870107Y-28797175D01*
X227809063Y-28556118D01*
X227709173Y-28328393D01*
X227573166Y-28120217D01*
X227503838Y-28044907D01*
X227404744Y-27937262D01*
X227208509Y-27784526D01*
X227208507Y-27784525D01*
X227208506Y-27784524D01*
X226989811Y-27666172D01*
X226989802Y-27666169D01*
X226754616Y-27585429D01*
X226509335Y-27544500D01*
X226321389Y-27544500D01*
X226254350Y-27524815D01*
X226208595Y-27472011D01*
X226198651Y-27402853D01*
X226219815Y-27349376D01*
X226308595Y-27222585D01*
X226308599Y-27222579D01*
X226408429Y-27008492D01*
X226408433Y-27008483D01*
X226469567Y-26780326D01*
X226469569Y-26780315D01*
X226490157Y-26545001D01*
X226490157Y-26544998D01*
X226469569Y-26309684D01*
X226469567Y-26309673D01*
X226408433Y-26081516D01*
X226408429Y-26081507D01*
X226308600Y-25867423D01*
X226308599Y-25867421D01*
X226249925Y-25783626D01*
X226249925Y-25783625D01*
X225618076Y-26415475D01*
X225594493Y-26335156D01*
X225516761Y-26214202D01*
X225408100Y-26120048D01*
X225277315Y-26060320D01*
X225267534Y-26058913D01*
X225890128Y-25436319D01*
X225951451Y-25402834D01*
X225977809Y-25400000D01*
X233556000Y-25400000D01*
X233623039Y-25419685D01*
X233668794Y-25472489D01*
X233680000Y-25524000D01*
X233680000Y-27170050D01*
X233660315Y-27237089D01*
X233607511Y-27282844D01*
X233538353Y-27292788D01*
X233474797Y-27263763D01*
X233451303Y-27236492D01*
X233347479Y-27072891D01*
X233347477Y-27072888D01*
X233142912Y-26825611D01*
X233094677Y-26780315D01*
X232908964Y-26605920D01*
X232908961Y-26605918D01*
X232908955Y-26605913D01*
X232649339Y-26417291D01*
X232649321Y-26417280D01*
X232368096Y-26262675D01*
X232368093Y-26262674D01*
X232069703Y-26144533D01*
X232069706Y-26144533D01*
X231758864Y-26064723D01*
X231758851Y-26064721D01*
X231440475Y-26024500D01*
X231440464Y-26024500D01*
X231119536Y-26024500D01*
X231119524Y-26024500D01*
X230801148Y-26064721D01*
X230801135Y-26064723D01*
X230490294Y-26144533D01*
X230191906Y-26262674D01*
X230191903Y-26262675D01*
X229910678Y-26417280D01*
X229910660Y-26417291D01*
X229651044Y-26605913D01*
X229651034Y-26605921D01*
X229417087Y-26825611D01*
X229212522Y-27072888D01*
X229212520Y-27072891D01*
X229040562Y-27343855D01*
X229040558Y-27343861D01*
X228903918Y-27634235D01*
X228903916Y-27634240D01*
X228804745Y-27939457D01*
X228744607Y-28254709D01*
X228744606Y-28254716D01*
X228724457Y-28574994D01*
X228724457Y-28575005D01*
X228744606Y-28895283D01*
X228744607Y-28895290D01*
X228804745Y-29210542D01*
X228903916Y-29515759D01*
X228903918Y-29515764D01*
X229040558Y-29806138D01*
X229040562Y-29806144D01*
X229212520Y-30077108D01*
X229212522Y-30077111D01*
X229417087Y-30324388D01*
X229651034Y-30544078D01*
X229651044Y-30544086D01*
X229910660Y-30732708D01*
X229910666Y-30732711D01*
X229910672Y-30732716D01*
X230191903Y-30887324D01*
X230490294Y-31005466D01*
X230490293Y-31005466D01*
X230801135Y-31085276D01*
X230801139Y-31085277D01*
X230867935Y-31093715D01*
X231119524Y-31125499D01*
X231119533Y-31125499D01*
X231119536Y-31125500D01*
X231119538Y-31125500D01*
X231440462Y-31125500D01*
X231440464Y-31125500D01*
X231440467Y-31125499D01*
X231440475Y-31125499D01*
X231630463Y-31101497D01*
X231758861Y-31085277D01*
X232069706Y-31005466D01*
X232368097Y-30887324D01*
X232649328Y-30732716D01*
X232908964Y-30544080D01*
X233142911Y-30324390D01*
X233347478Y-30077110D01*
X233451303Y-29913506D01*
X233503845Y-29867451D01*
X233572945Y-29857112D01*
X233636666Y-29885773D01*
X233674775Y-29944335D01*
X233680000Y-29979949D01*
X233680000Y-31755500D01*
X233660315Y-31822539D01*
X233607511Y-31868294D01*
X233556000Y-31879500D01*
X228724000Y-31879500D01*
X228723991Y-31879500D01*
X228723990Y-31879501D01*
X228616549Y-31891052D01*
X228616537Y-31891054D01*
X228565027Y-31902260D01*
X228462502Y-31936383D01*
X228462496Y-31936386D01*
X228341462Y-32014171D01*
X228341451Y-32014179D01*
X228288659Y-32059923D01*
X228194433Y-32168664D01*
X228194430Y-32168668D01*
X228134664Y-32299534D01*
X228114976Y-32366582D01*
X228094500Y-32509001D01*
X228094500Y-35094692D01*
X228097397Y-35148740D01*
X228097397Y-35148741D01*
X228100229Y-35175074D01*
X228100232Y-35175101D01*
X228108885Y-35228497D01*
X228108885Y-35228499D01*
X228153367Y-35347757D01*
X228159168Y-35363309D01*
X228192653Y-35424632D01*
X228278877Y-35539813D01*
X228419445Y-35680381D01*
X228452929Y-35741702D01*
X228455291Y-35778867D01*
X228447319Y-35869996D01*
X228447319Y-35870002D01*
X228455291Y-35961126D01*
X228441524Y-36029626D01*
X228419445Y-36059613D01*
X228278881Y-36200179D01*
X228242718Y-36240439D01*
X228226073Y-36261094D01*
X228194433Y-36304972D01*
X228134663Y-36435846D01*
X228114976Y-36502891D01*
X228094500Y-36645310D01*
X228094500Y-40094692D01*
X228097397Y-40148740D01*
X228097397Y-40148741D01*
X228100229Y-40175074D01*
X228100232Y-40175101D01*
X228108885Y-40228497D01*
X228108885Y-40228499D01*
X228159166Y-40363304D01*
X228159168Y-40363309D01*
X228192653Y-40424632D01*
X228278877Y-40539813D01*
X228419445Y-40680381D01*
X228452929Y-40741702D01*
X228455291Y-40778867D01*
X228447319Y-40869996D01*
X228447319Y-40870002D01*
X228455291Y-40961126D01*
X228441524Y-41029626D01*
X228419445Y-41059613D01*
X228278881Y-41200179D01*
X228242718Y-41240439D01*
X228226073Y-41261094D01*
X228194433Y-41304972D01*
X228134663Y-41435846D01*
X228114976Y-41502891D01*
X228109446Y-41541356D01*
X228094500Y-41645309D01*
X228094500Y-44326000D01*
X228094501Y-44326009D01*
X228106052Y-44433450D01*
X228106054Y-44433462D01*
X228117260Y-44484972D01*
X228151383Y-44587497D01*
X228151386Y-44587503D01*
X228229171Y-44708537D01*
X228229179Y-44708548D01*
X228274923Y-44761340D01*
X228274926Y-44761343D01*
X228274930Y-44761347D01*
X228383664Y-44855567D01*
X228514541Y-44915338D01*
X228581580Y-44935023D01*
X228581584Y-44935024D01*
X228724000Y-44955500D01*
X228724003Y-44955500D01*
X233556000Y-44955500D01*
X233623039Y-44975185D01*
X233668794Y-45027989D01*
X233680000Y-45079500D01*
X233680000Y-49670050D01*
X233660315Y-49737089D01*
X233607511Y-49782844D01*
X233538353Y-49792788D01*
X233474797Y-49763763D01*
X233451303Y-49736492D01*
X233347479Y-49572891D01*
X233347477Y-49572888D01*
X233142912Y-49325611D01*
X232908965Y-49105921D01*
X232908955Y-49105913D01*
X232649339Y-48917291D01*
X232649321Y-48917280D01*
X232368096Y-48762675D01*
X232368093Y-48762674D01*
X232069703Y-48644533D01*
X232069706Y-48644533D01*
X231758864Y-48564723D01*
X231758851Y-48564721D01*
X231440475Y-48524500D01*
X231440464Y-48524500D01*
X231119536Y-48524500D01*
X231119524Y-48524500D01*
X230801148Y-48564721D01*
X230801135Y-48564723D01*
X230490294Y-48644533D01*
X230191906Y-48762674D01*
X230191903Y-48762675D01*
X229910678Y-48917280D01*
X229910660Y-48917291D01*
X229651044Y-49105913D01*
X229651034Y-49105921D01*
X229417087Y-49325611D01*
X229212522Y-49572888D01*
X229212520Y-49572891D01*
X229040562Y-49843855D01*
X229040558Y-49843861D01*
X228903918Y-50134235D01*
X228903916Y-50134240D01*
X228804745Y-50439457D01*
X228744607Y-50754709D01*
X228744606Y-50754716D01*
X228724457Y-51074994D01*
X228724457Y-51075005D01*
X228744606Y-51395283D01*
X228744607Y-51395290D01*
X228804745Y-51710542D01*
X228903916Y-52015759D01*
X228903918Y-52015764D01*
X229040558Y-52306138D01*
X229040562Y-52306144D01*
X229212520Y-52577108D01*
X229212522Y-52577111D01*
X229417087Y-52824388D01*
X229651034Y-53044078D01*
X229651044Y-53044086D01*
X229910660Y-53232708D01*
X229910666Y-53232711D01*
X229910672Y-53232716D01*
X230191903Y-53387324D01*
X230490294Y-53505466D01*
X230490293Y-53505466D01*
X230801135Y-53585276D01*
X230801139Y-53585277D01*
X230867935Y-53593715D01*
X231119524Y-53625499D01*
X231119533Y-53625499D01*
X231119536Y-53625500D01*
X231119538Y-53625500D01*
X231440462Y-53625500D01*
X231440464Y-53625500D01*
X231440467Y-53625499D01*
X231440475Y-53625499D01*
X231630463Y-53601497D01*
X231758861Y-53585277D01*
X232069706Y-53505466D01*
X232368097Y-53387324D01*
X232649328Y-53232716D01*
X232908964Y-53044080D01*
X233142911Y-52824390D01*
X233347478Y-52577110D01*
X233451303Y-52413506D01*
X233503845Y-52367451D01*
X233572945Y-52357112D01*
X233636666Y-52385773D01*
X233674775Y-52444335D01*
X233680000Y-52479949D01*
X233680000Y-69726000D01*
X233660315Y-69793039D01*
X233607511Y-69838794D01*
X233556000Y-69850000D01*
X223184056Y-69850000D01*
X223117017Y-69830315D01*
X223071262Y-69777511D01*
X223061318Y-69708353D01*
X223090343Y-69644797D01*
X223112931Y-69624426D01*
X223114429Y-69623376D01*
X223121401Y-69618495D01*
X223288495Y-69451401D01*
X223424035Y-69257830D01*
X223523903Y-69043663D01*
X223585063Y-68815408D01*
X223605659Y-68580000D01*
X223585063Y-68344592D01*
X223523903Y-68116337D01*
X223424035Y-67902171D01*
X223356394Y-67805568D01*
X223288494Y-67708597D01*
X223121402Y-67541506D01*
X223121396Y-67541501D01*
X222935842Y-67411575D01*
X222892217Y-67356998D01*
X222885023Y-67287500D01*
X222916546Y-67225145D01*
X222935842Y-67208425D01*
X223025491Y-67145652D01*
X223121401Y-67078495D01*
X223288495Y-66911401D01*
X223424035Y-66717830D01*
X223523903Y-66503663D01*
X223585063Y-66275408D01*
X223605659Y-66040000D01*
X223605611Y-66039457D01*
X223593760Y-65904000D01*
X223585063Y-65804592D01*
X223523903Y-65576337D01*
X223424035Y-65362171D01*
X223413824Y-65347587D01*
X223288494Y-65168597D01*
X223121402Y-65001506D01*
X223121396Y-65001501D01*
X222935842Y-64871575D01*
X222892217Y-64816998D01*
X222885023Y-64747500D01*
X222916546Y-64685145D01*
X222935842Y-64668425D01*
X222968289Y-64645705D01*
X223121401Y-64538495D01*
X223288495Y-64371401D01*
X223424035Y-64177830D01*
X223523903Y-63963663D01*
X223585063Y-63735408D01*
X223605659Y-63500000D01*
X223585063Y-63264592D01*
X223523903Y-63036337D01*
X223424035Y-62822171D01*
X223411423Y-62804158D01*
X223288494Y-62628597D01*
X223121402Y-62461506D01*
X223121396Y-62461501D01*
X222935842Y-62331575D01*
X222892217Y-62276998D01*
X222885023Y-62207500D01*
X222916546Y-62145145D01*
X222935842Y-62128425D01*
X222958026Y-62112891D01*
X223121401Y-61998495D01*
X223288495Y-61831401D01*
X223424035Y-61637830D01*
X223523903Y-61423663D01*
X223585063Y-61195408D01*
X223605659Y-60960000D01*
X223585063Y-60724592D01*
X223523903Y-60496337D01*
X223424035Y-60282171D01*
X223411423Y-60264158D01*
X223288494Y-60088597D01*
X223121402Y-59921506D01*
X223121396Y-59921501D01*
X222935842Y-59791575D01*
X222892217Y-59736998D01*
X222885023Y-59667500D01*
X222916546Y-59605145D01*
X222935842Y-59588425D01*
X222958026Y-59572891D01*
X223121401Y-59458495D01*
X223288495Y-59291401D01*
X223424035Y-59097830D01*
X223523903Y-58883663D01*
X223585063Y-58655408D01*
X223605659Y-58420000D01*
X223585063Y-58184592D01*
X223523903Y-57956337D01*
X223424035Y-57742171D01*
X223411422Y-57724158D01*
X223288496Y-57548600D01*
X223278493Y-57538597D01*
X223166179Y-57426283D01*
X223132696Y-57364963D01*
X223137680Y-57295271D01*
X223179551Y-57239337D01*
X223210529Y-57222422D01*
X223342086Y-57173354D01*
X223342093Y-57173350D01*
X223457187Y-57087190D01*
X223457190Y-57087187D01*
X223543350Y-56972093D01*
X223543354Y-56972086D01*
X223593596Y-56837379D01*
X223593598Y-56837372D01*
X223599999Y-56777844D01*
X223600000Y-56777827D01*
X223600000Y-56130000D01*
X222683686Y-56130000D01*
X222709493Y-56089844D01*
X222750000Y-55951889D01*
X222750000Y-55808111D01*
X222709493Y-55670156D01*
X222683686Y-55630000D01*
X223600000Y-55630000D01*
X223600000Y-54982172D01*
X223599999Y-54982155D01*
X223593598Y-54922627D01*
X223593596Y-54922620D01*
X223543354Y-54787913D01*
X223543350Y-54787906D01*
X223457190Y-54672812D01*
X223457187Y-54672809D01*
X223342093Y-54586649D01*
X223342086Y-54586645D01*
X223207379Y-54536403D01*
X223207372Y-54536401D01*
X223147844Y-54530000D01*
X222500000Y-54530000D01*
X222500000Y-55444498D01*
X222392315Y-55395320D01*
X222285763Y-55380000D01*
X222214237Y-55380000D01*
X222107685Y-55395320D01*
X222000000Y-55444498D01*
X222000000Y-54530000D01*
X221352155Y-54530000D01*
X221292627Y-54536401D01*
X221292620Y-54536403D01*
X221157913Y-54586645D01*
X221157906Y-54586649D01*
X221042812Y-54672809D01*
X221042809Y-54672812D01*
X220956649Y-54787906D01*
X220956645Y-54787913D01*
X220906403Y-54922620D01*
X220906401Y-54922627D01*
X220900000Y-54982155D01*
X220900000Y-55630000D01*
X221816314Y-55630000D01*
X221790507Y-55670156D01*
X221750000Y-55808111D01*
X221750000Y-55951889D01*
X221790507Y-56089844D01*
X221816314Y-56130000D01*
X220900000Y-56130000D01*
X220900000Y-56777844D01*
X220906401Y-56837372D01*
X220906403Y-56837379D01*
X220956645Y-56972086D01*
X220956649Y-56972093D01*
X221042809Y-57087187D01*
X221042812Y-57087190D01*
X221157906Y-57173350D01*
X221157913Y-57173354D01*
X221289470Y-57222421D01*
X221345403Y-57264292D01*
X221369821Y-57329756D01*
X221354970Y-57398029D01*
X221333819Y-57426284D01*
X221211503Y-57548600D01*
X221075965Y-57742169D01*
X221075964Y-57742171D01*
X220976098Y-57956335D01*
X220976094Y-57956344D01*
X220914938Y-58184586D01*
X220914936Y-58184596D01*
X220894341Y-58419999D01*
X220894341Y-58420000D01*
X220914936Y-58655403D01*
X220914938Y-58655413D01*
X220976094Y-58883655D01*
X220976096Y-58883659D01*
X220976097Y-58883663D01*
X221051341Y-59045023D01*
X221075965Y-59097830D01*
X221075967Y-59097834D01*
X221184281Y-59252521D01*
X221204499Y-59281396D01*
X221211501Y-59291395D01*
X221211506Y-59291402D01*
X221378597Y-59458493D01*
X221378603Y-59458498D01*
X221564158Y-59588425D01*
X221607783Y-59643002D01*
X221614977Y-59712500D01*
X221583454Y-59774855D01*
X221564158Y-59791575D01*
X221378597Y-59921505D01*
X221211505Y-60088597D01*
X221075965Y-60282169D01*
X221075964Y-60282171D01*
X220976098Y-60496335D01*
X220976094Y-60496344D01*
X220914938Y-60724586D01*
X220914936Y-60724596D01*
X220894341Y-60959999D01*
X220894341Y-60960000D01*
X220914936Y-61195403D01*
X220914938Y-61195413D01*
X220976094Y-61423655D01*
X220976096Y-61423659D01*
X220976097Y-61423663D01*
X221066040Y-61616546D01*
X221075965Y-61637830D01*
X221075967Y-61637834D01*
X221184281Y-61792521D01*
X221204499Y-61821396D01*
X221211501Y-61831395D01*
X221211506Y-61831402D01*
X221378597Y-61998493D01*
X221378603Y-61998498D01*
X221564158Y-62128425D01*
X221607783Y-62183002D01*
X221614977Y-62252500D01*
X221583454Y-62314855D01*
X221564158Y-62331575D01*
X221378597Y-62461505D01*
X221211505Y-62628597D01*
X221075965Y-62822169D01*
X221075964Y-62822171D01*
X220976098Y-63036335D01*
X220976094Y-63036344D01*
X220914938Y-63264586D01*
X220914936Y-63264596D01*
X220894341Y-63499999D01*
X220894341Y-63500000D01*
X220914936Y-63735403D01*
X220914938Y-63735413D01*
X220976094Y-63963655D01*
X220976096Y-63963659D01*
X220976097Y-63963663D01*
X221008063Y-64032214D01*
X221075965Y-64177830D01*
X221075967Y-64177834D01*
X221150412Y-64284151D01*
X221204499Y-64361396D01*
X221211501Y-64371395D01*
X221211506Y-64371402D01*
X221378597Y-64538493D01*
X221378603Y-64538498D01*
X221564158Y-64668425D01*
X221607783Y-64723002D01*
X221614977Y-64792500D01*
X221583454Y-64854855D01*
X221564158Y-64871575D01*
X221378597Y-65001505D01*
X221211505Y-65168597D01*
X221075965Y-65362169D01*
X221075964Y-65362171D01*
X220976098Y-65576335D01*
X220976094Y-65576344D01*
X220914938Y-65804586D01*
X220914936Y-65804596D01*
X220894341Y-66039999D01*
X220894341Y-66040000D01*
X220914936Y-66275403D01*
X220914938Y-66275413D01*
X220976094Y-66503655D01*
X220976096Y-66503659D01*
X220976097Y-66503663D01*
X221055990Y-66674994D01*
X221075965Y-66717830D01*
X221075967Y-66717834D01*
X221211501Y-66911395D01*
X221211506Y-66911402D01*
X221378597Y-67078493D01*
X221378603Y-67078498D01*
X221564158Y-67208425D01*
X221607783Y-67263002D01*
X221614977Y-67332500D01*
X221583454Y-67394855D01*
X221564158Y-67411575D01*
X221378597Y-67541505D01*
X221211505Y-67708597D01*
X221075965Y-67902169D01*
X221075964Y-67902171D01*
X220976098Y-68116335D01*
X220976094Y-68116344D01*
X220914938Y-68344586D01*
X220914936Y-68344596D01*
X220894341Y-68579999D01*
X220894341Y-68580000D01*
X220914936Y-68815403D01*
X220914938Y-68815413D01*
X220976094Y-69043655D01*
X220976096Y-69043659D01*
X220976097Y-69043663D01*
X221060889Y-69225499D01*
X221075965Y-69257830D01*
X221075967Y-69257834D01*
X221184281Y-69412521D01*
X221211505Y-69451401D01*
X221378599Y-69618495D01*
X221383923Y-69622223D01*
X221387069Y-69624426D01*
X221430693Y-69679003D01*
X221437885Y-69748502D01*
X221406362Y-69810856D01*
X221346132Y-69846269D01*
X221315944Y-69850000D01*
X184274000Y-69850000D01*
X184206961Y-69830315D01*
X184161206Y-69777511D01*
X184150000Y-69726000D01*
X184150000Y-66675005D01*
X184773877Y-66675005D01*
X184794026Y-66995283D01*
X184794027Y-66995290D01*
X184794028Y-66995294D01*
X184854061Y-67310000D01*
X184854165Y-67310542D01*
X184953336Y-67615759D01*
X184953338Y-67615764D01*
X185089978Y-67906138D01*
X185089982Y-67906144D01*
X185261940Y-68177108D01*
X185261942Y-68177111D01*
X185466507Y-68424388D01*
X185466509Y-68424390D01*
X185632218Y-68580000D01*
X185700454Y-68644078D01*
X185700464Y-68644086D01*
X185960080Y-68832708D01*
X185960086Y-68832711D01*
X185960092Y-68832716D01*
X186241323Y-68987324D01*
X186539714Y-69105466D01*
X186539713Y-69105466D01*
X186850555Y-69185276D01*
X186850559Y-69185277D01*
X186917355Y-69193715D01*
X187168944Y-69225499D01*
X187168953Y-69225499D01*
X187168956Y-69225500D01*
X187168958Y-69225500D01*
X187489882Y-69225500D01*
X187489884Y-69225500D01*
X187489887Y-69225499D01*
X187489895Y-69225499D01*
X187679883Y-69201497D01*
X187808281Y-69185277D01*
X188119126Y-69105466D01*
X188417517Y-68987324D01*
X188698748Y-68832716D01*
X188958384Y-68644080D01*
X189192331Y-68424390D01*
X189396898Y-68177110D01*
X189568859Y-67906142D01*
X189577174Y-67888473D01*
X189661817Y-67708597D01*
X189705504Y-67615758D01*
X189804676Y-67310538D01*
X189864812Y-66995294D01*
X189865310Y-66987379D01*
X189884963Y-66675005D01*
X189884963Y-66674994D01*
X189864813Y-66354716D01*
X189864812Y-66354709D01*
X189864812Y-66354706D01*
X189804676Y-66039462D01*
X189705504Y-65734242D01*
X189705501Y-65734235D01*
X189568861Y-65443861D01*
X189568857Y-65443855D01*
X189396899Y-65172891D01*
X189396897Y-65172888D01*
X189192332Y-64925611D01*
X189107192Y-64845659D01*
X188958384Y-64705920D01*
X188958381Y-64705918D01*
X188958375Y-64705913D01*
X188698759Y-64517291D01*
X188698741Y-64517280D01*
X188417516Y-64362675D01*
X188417513Y-64362674D01*
X188119123Y-64244533D01*
X188119126Y-64244533D01*
X187808284Y-64164723D01*
X187808271Y-64164721D01*
X187489895Y-64124500D01*
X187489884Y-64124500D01*
X187168956Y-64124500D01*
X187168944Y-64124500D01*
X186850568Y-64164721D01*
X186850555Y-64164723D01*
X186539714Y-64244533D01*
X186241326Y-64362674D01*
X186241323Y-64362675D01*
X185960098Y-64517280D01*
X185960080Y-64517291D01*
X185700464Y-64705913D01*
X185700454Y-64705921D01*
X185466507Y-64925611D01*
X185261942Y-65172888D01*
X185261940Y-65172891D01*
X185089982Y-65443855D01*
X185089978Y-65443861D01*
X184953338Y-65734235D01*
X184953336Y-65734240D01*
X184854165Y-66039457D01*
X184794027Y-66354709D01*
X184794026Y-66354716D01*
X184773877Y-66674994D01*
X184773877Y-66675005D01*
X184150000Y-66675005D01*
X184150000Y-63490000D01*
X206289341Y-63490000D01*
X206309936Y-63725403D01*
X206309938Y-63725413D01*
X206371094Y-63953655D01*
X206371096Y-63953659D01*
X206371097Y-63953663D01*
X206375761Y-63963664D01*
X206470965Y-64167830D01*
X206470967Y-64167834D01*
X206552412Y-64284148D01*
X206606501Y-64361396D01*
X206606506Y-64361402D01*
X206728818Y-64483714D01*
X206762303Y-64545037D01*
X206757319Y-64614729D01*
X206715447Y-64670662D01*
X206684471Y-64687577D01*
X206552912Y-64736646D01*
X206552906Y-64736649D01*
X206437812Y-64822809D01*
X206437809Y-64822812D01*
X206351649Y-64937906D01*
X206351645Y-64937913D01*
X206301403Y-65072620D01*
X206301401Y-65072627D01*
X206295000Y-65132155D01*
X206295000Y-65780000D01*
X207211314Y-65780000D01*
X207185507Y-65820156D01*
X207145000Y-65958111D01*
X207145000Y-66101889D01*
X207185507Y-66239844D01*
X207211314Y-66280000D01*
X206295000Y-66280000D01*
X206295000Y-66927844D01*
X206301401Y-66987372D01*
X206301403Y-66987379D01*
X206351645Y-67122086D01*
X206351649Y-67122093D01*
X206437809Y-67237187D01*
X206437812Y-67237190D01*
X206552906Y-67323350D01*
X206552913Y-67323354D01*
X206687620Y-67373596D01*
X206687627Y-67373598D01*
X206747155Y-67379999D01*
X206747172Y-67380000D01*
X207395000Y-67380000D01*
X207395000Y-66465501D01*
X207502685Y-66514680D01*
X207609237Y-66530000D01*
X207680763Y-66530000D01*
X207787315Y-66514680D01*
X207895000Y-66465501D01*
X207895000Y-67380000D01*
X208542828Y-67380000D01*
X208542844Y-67379999D01*
X208602372Y-67373598D01*
X208602379Y-67373596D01*
X208737086Y-67323354D01*
X208737093Y-67323350D01*
X208852187Y-67237190D01*
X208852190Y-67237187D01*
X208938350Y-67122093D01*
X208938354Y-67122086D01*
X208987422Y-66990529D01*
X209029293Y-66934595D01*
X209094757Y-66910178D01*
X209163030Y-66925030D01*
X209191285Y-66946181D01*
X209313599Y-67068495D01*
X209389292Y-67121496D01*
X209507165Y-67204032D01*
X209507167Y-67204033D01*
X209507170Y-67204035D01*
X209721337Y-67303903D01*
X209721343Y-67303904D01*
X209721344Y-67303905D01*
X209746099Y-67310538D01*
X209949592Y-67365063D01*
X210120319Y-67380000D01*
X210184999Y-67385659D01*
X210185000Y-67385659D01*
X210185001Y-67385659D01*
X210249681Y-67380000D01*
X210420408Y-67365063D01*
X210648663Y-67303903D01*
X210862830Y-67204035D01*
X211056401Y-67068495D01*
X211223495Y-66901401D01*
X211359035Y-66707830D01*
X211458903Y-66493663D01*
X211520063Y-66265408D01*
X211540659Y-66030000D01*
X211520063Y-65794592D01*
X211461584Y-65576344D01*
X211458905Y-65566344D01*
X211458904Y-65566343D01*
X211458903Y-65566337D01*
X211359035Y-65352171D01*
X211355826Y-65347587D01*
X211223494Y-65158597D01*
X211056402Y-64991506D01*
X211056396Y-64991501D01*
X210870842Y-64861575D01*
X210827217Y-64806998D01*
X210820023Y-64737500D01*
X210851546Y-64675145D01*
X210870842Y-64658425D01*
X210982500Y-64580241D01*
X211056401Y-64528495D01*
X211223495Y-64361401D01*
X211359035Y-64167830D01*
X211458903Y-63953663D01*
X211520063Y-63725408D01*
X211539784Y-63500000D01*
X211819540Y-63500000D01*
X211839326Y-63688256D01*
X211839327Y-63688259D01*
X211897818Y-63868277D01*
X211897821Y-63868284D01*
X211992467Y-64032216D01*
X212075560Y-64124500D01*
X212119129Y-64172888D01*
X212272265Y-64284148D01*
X212272270Y-64284151D01*
X212445192Y-64361142D01*
X212445197Y-64361144D01*
X212630354Y-64400500D01*
X212630355Y-64400500D01*
X212819644Y-64400500D01*
X212819646Y-64400500D01*
X213004803Y-64361144D01*
X213177730Y-64284151D01*
X213330871Y-64172888D01*
X213457533Y-64032216D01*
X213552179Y-63868284D01*
X213610674Y-63688256D01*
X213630460Y-63500000D01*
X213610674Y-63311744D01*
X213552179Y-63131716D01*
X213552178Y-63131714D01*
X213492113Y-63027677D01*
X213475500Y-62965677D01*
X213475500Y-61957228D01*
X213495185Y-61890189D01*
X213511815Y-61869551D01*
X214147770Y-61233595D01*
X214209091Y-61200112D01*
X214209427Y-61200039D01*
X214274803Y-61186144D01*
X214447730Y-61109151D01*
X214600871Y-60997888D01*
X214727533Y-60857216D01*
X214822179Y-60693284D01*
X214880674Y-60513256D01*
X214900460Y-60325000D01*
X214880674Y-60136744D01*
X214822179Y-59956716D01*
X214727533Y-59792784D01*
X214600871Y-59652112D01*
X214600870Y-59652111D01*
X214447734Y-59540851D01*
X214447729Y-59540848D01*
X214274807Y-59463857D01*
X214274802Y-59463855D01*
X214129001Y-59432865D01*
X214089646Y-59424500D01*
X213900354Y-59424500D01*
X213867897Y-59431398D01*
X213715197Y-59463855D01*
X213715192Y-59463857D01*
X213542270Y-59540848D01*
X213542265Y-59540851D01*
X213389129Y-59652111D01*
X213262466Y-59792785D01*
X213167821Y-59956715D01*
X213167819Y-59956719D01*
X213112479Y-60127039D01*
X213082229Y-60176401D01*
X212239358Y-61019272D01*
X212225729Y-61031051D01*
X212206469Y-61045390D01*
X212174632Y-61083331D01*
X212167346Y-61091284D01*
X212163407Y-61095224D01*
X212144176Y-61119545D01*
X212141902Y-61122337D01*
X212093694Y-61179790D01*
X212089729Y-61185819D01*
X212089682Y-61185788D01*
X212085630Y-61192147D01*
X212085679Y-61192177D01*
X212081889Y-61198321D01*
X212050192Y-61266294D01*
X212048623Y-61269536D01*
X212014957Y-61336572D01*
X212012488Y-61343357D01*
X212012432Y-61343336D01*
X212009960Y-61350450D01*
X212010015Y-61350469D01*
X212007743Y-61357325D01*
X211992573Y-61430788D01*
X211991793Y-61434304D01*
X211974499Y-61507279D01*
X211973661Y-61514454D01*
X211973601Y-61514447D01*
X211972835Y-61521945D01*
X211972895Y-61521951D01*
X211972265Y-61529140D01*
X211974448Y-61604128D01*
X211974500Y-61607735D01*
X211974500Y-62965677D01*
X211957887Y-63027677D01*
X211897821Y-63131714D01*
X211854645Y-63264596D01*
X211839326Y-63311744D01*
X211819540Y-63500000D01*
X211539784Y-63500000D01*
X211540659Y-63490000D01*
X211520063Y-63254592D01*
X211461584Y-63036344D01*
X211458905Y-63026344D01*
X211458904Y-63026343D01*
X211458903Y-63026337D01*
X211359035Y-62812171D01*
X211353425Y-62804158D01*
X211223494Y-62618597D01*
X211056402Y-62451506D01*
X211056396Y-62451501D01*
X210870842Y-62321575D01*
X210827217Y-62266998D01*
X210820023Y-62197500D01*
X210851546Y-62135145D01*
X210870842Y-62118425D01*
X211042115Y-61998498D01*
X211056401Y-61988495D01*
X211223495Y-61821401D01*
X211359035Y-61627830D01*
X211458903Y-61413663D01*
X211520063Y-61185408D01*
X211540659Y-60950000D01*
X211520063Y-60714592D01*
X211461584Y-60496344D01*
X211458905Y-60486344D01*
X211458904Y-60486343D01*
X211458903Y-60486337D01*
X211359035Y-60272171D01*
X211353425Y-60264158D01*
X211223494Y-60078597D01*
X211056402Y-59911506D01*
X211056396Y-59911501D01*
X210870842Y-59781575D01*
X210827217Y-59726998D01*
X210820023Y-59657500D01*
X210851546Y-59595145D01*
X210870842Y-59578425D01*
X210924507Y-59540848D01*
X211056401Y-59448495D01*
X211223495Y-59281401D01*
X211359035Y-59087830D01*
X211458903Y-58873663D01*
X211520063Y-58645408D01*
X211540659Y-58410000D01*
X211520063Y-58174592D01*
X211461584Y-57956344D01*
X211458905Y-57946344D01*
X211458904Y-57946343D01*
X211458903Y-57946337D01*
X211359035Y-57732171D01*
X211353425Y-57724158D01*
X211223494Y-57538597D01*
X211056402Y-57371506D01*
X211056395Y-57371501D01*
X210862834Y-57235967D01*
X210862830Y-57235965D01*
X210833785Y-57222421D01*
X210648663Y-57136097D01*
X210648659Y-57136096D01*
X210648655Y-57136094D01*
X210420413Y-57074938D01*
X210420403Y-57074936D01*
X210185001Y-57054341D01*
X210184999Y-57054341D01*
X209949596Y-57074936D01*
X209949586Y-57074938D01*
X209721344Y-57136094D01*
X209721335Y-57136098D01*
X209507171Y-57235964D01*
X209507169Y-57235965D01*
X209313597Y-57371505D01*
X209146505Y-57538597D01*
X209016575Y-57724158D01*
X208961998Y-57767783D01*
X208892500Y-57774977D01*
X208830145Y-57743454D01*
X208813425Y-57724158D01*
X208683494Y-57538597D01*
X208516402Y-57371506D01*
X208516395Y-57371501D01*
X208322834Y-57235967D01*
X208322830Y-57235965D01*
X208293785Y-57222421D01*
X208108663Y-57136097D01*
X208108659Y-57136096D01*
X208108655Y-57136094D01*
X207880413Y-57074938D01*
X207880403Y-57074936D01*
X207645001Y-57054341D01*
X207644999Y-57054341D01*
X207409596Y-57074936D01*
X207409586Y-57074938D01*
X207181344Y-57136094D01*
X207181335Y-57136098D01*
X206967171Y-57235964D01*
X206967169Y-57235965D01*
X206773597Y-57371505D01*
X206606505Y-57538597D01*
X206470965Y-57732169D01*
X206470964Y-57732171D01*
X206371098Y-57946335D01*
X206371094Y-57946344D01*
X206309938Y-58174586D01*
X206309936Y-58174596D01*
X206289341Y-58409999D01*
X206289341Y-58410000D01*
X206309936Y-58645403D01*
X206309938Y-58645413D01*
X206371094Y-58873655D01*
X206371096Y-58873659D01*
X206371097Y-58873663D01*
X206375761Y-58883664D01*
X206470965Y-59087830D01*
X206470967Y-59087834D01*
X206579281Y-59242521D01*
X206606501Y-59281396D01*
X206606506Y-59281402D01*
X206773597Y-59448493D01*
X206773603Y-59448498D01*
X206959158Y-59578425D01*
X207002783Y-59633002D01*
X207009977Y-59702500D01*
X206978454Y-59764855D01*
X206959158Y-59781575D01*
X206773597Y-59911505D01*
X206606505Y-60078597D01*
X206470965Y-60272169D01*
X206470964Y-60272171D01*
X206371098Y-60486335D01*
X206371094Y-60486344D01*
X206309938Y-60714586D01*
X206309936Y-60714596D01*
X206289341Y-60949999D01*
X206289341Y-60950000D01*
X206309936Y-61185403D01*
X206309938Y-61185413D01*
X206371094Y-61413655D01*
X206371096Y-61413659D01*
X206371097Y-61413663D01*
X206421590Y-61521945D01*
X206470965Y-61627830D01*
X206470967Y-61627834D01*
X206579281Y-61782521D01*
X206606501Y-61821396D01*
X206606506Y-61821402D01*
X206773597Y-61988493D01*
X206773603Y-61988498D01*
X206959158Y-62118425D01*
X207002783Y-62173002D01*
X207009977Y-62242500D01*
X206978454Y-62304855D01*
X206959158Y-62321575D01*
X206773597Y-62451505D01*
X206606505Y-62618597D01*
X206470965Y-62812169D01*
X206470964Y-62812171D01*
X206371098Y-63026335D01*
X206371094Y-63026344D01*
X206309938Y-63254586D01*
X206309936Y-63254596D01*
X206289341Y-63489999D01*
X206289341Y-63490000D01*
X184150000Y-63490000D01*
X184150000Y-49180005D01*
X186374457Y-49180005D01*
X186394606Y-49500283D01*
X186394607Y-49500290D01*
X186418293Y-49624455D01*
X186450872Y-49795242D01*
X186454745Y-49815542D01*
X186553916Y-50120759D01*
X186553918Y-50120764D01*
X186690558Y-50411138D01*
X186690562Y-50411144D01*
X186862520Y-50682108D01*
X186862522Y-50682111D01*
X187067087Y-50929388D01*
X187301034Y-51149078D01*
X187301044Y-51149086D01*
X187560660Y-51337708D01*
X187560666Y-51337711D01*
X187560672Y-51337716D01*
X187841903Y-51492324D01*
X188140294Y-51610466D01*
X188140293Y-51610466D01*
X188451135Y-51690276D01*
X188451139Y-51690277D01*
X188517935Y-51698715D01*
X188769524Y-51730499D01*
X188769533Y-51730499D01*
X188769536Y-51730500D01*
X188769538Y-51730500D01*
X189090462Y-51730500D01*
X189090464Y-51730500D01*
X189090467Y-51730499D01*
X189090475Y-51730499D01*
X189280463Y-51706497D01*
X189408861Y-51690277D01*
X189719706Y-51610466D01*
X190018097Y-51492324D01*
X190299328Y-51337716D01*
X190558964Y-51149080D01*
X190792911Y-50929390D01*
X190997478Y-50682110D01*
X191169439Y-50411142D01*
X191177754Y-50393473D01*
X191251920Y-50235861D01*
X191306084Y-50120758D01*
X191405256Y-49815538D01*
X191465392Y-49500294D01*
X191485543Y-49180000D01*
X191480882Y-49105921D01*
X191465393Y-48859716D01*
X191465392Y-48859709D01*
X191465392Y-48859706D01*
X191405256Y-48544462D01*
X191306084Y-48239242D01*
X191216766Y-48049432D01*
X191169441Y-47948861D01*
X191169437Y-47948855D01*
X190997479Y-47677891D01*
X190997477Y-47677888D01*
X190792912Y-47430611D01*
X190558965Y-47210921D01*
X190558955Y-47210913D01*
X190299339Y-47022291D01*
X190299321Y-47022280D01*
X190018096Y-46867675D01*
X190018093Y-46867674D01*
X189719703Y-46749533D01*
X189719706Y-46749533D01*
X189408864Y-46669723D01*
X189408851Y-46669721D01*
X189090475Y-46629500D01*
X189090464Y-46629500D01*
X188769536Y-46629500D01*
X188769524Y-46629500D01*
X188451148Y-46669721D01*
X188451135Y-46669723D01*
X188140294Y-46749533D01*
X187841906Y-46867674D01*
X187841903Y-46867675D01*
X187560678Y-47022280D01*
X187560660Y-47022291D01*
X187301044Y-47210913D01*
X187301034Y-47210921D01*
X187067087Y-47430611D01*
X186862522Y-47677888D01*
X186862520Y-47677891D01*
X186690562Y-47948855D01*
X186690558Y-47948861D01*
X186553918Y-48239235D01*
X186553916Y-48239240D01*
X186454745Y-48544457D01*
X186394607Y-48859709D01*
X186394606Y-48859716D01*
X186374457Y-49179994D01*
X186374457Y-49180005D01*
X184150000Y-49180005D01*
X184150000Y-38100000D01*
X200574341Y-38100000D01*
X200594936Y-38335403D01*
X200594938Y-38335413D01*
X200656094Y-38563655D01*
X200656096Y-38563659D01*
X200656097Y-38563663D01*
X200755965Y-38777830D01*
X200755967Y-38777834D01*
X200891501Y-38971395D01*
X200891506Y-38971402D01*
X201058597Y-39138493D01*
X201058603Y-39138498D01*
X201244594Y-39268730D01*
X201288219Y-39323307D01*
X201295413Y-39392805D01*
X201263890Y-39455160D01*
X201244595Y-39471880D01*
X201058922Y-39601890D01*
X201058920Y-39601891D01*
X200891891Y-39768920D01*
X200891886Y-39768926D01*
X200756400Y-39962420D01*
X200756399Y-39962422D01*
X200656570Y-40176507D01*
X200656567Y-40176513D01*
X200599364Y-40389999D01*
X200599364Y-40390000D01*
X201496314Y-40390000D01*
X201470507Y-40430156D01*
X201430000Y-40568111D01*
X201430000Y-40711889D01*
X201470507Y-40849844D01*
X201496314Y-40890000D01*
X200599364Y-40890000D01*
X200656567Y-41103486D01*
X200656570Y-41103492D01*
X200756399Y-41317578D01*
X200891894Y-41511082D01*
X201013946Y-41633134D01*
X201047431Y-41694457D01*
X201042447Y-41764149D01*
X201000575Y-41820082D01*
X200969598Y-41836997D01*
X200837671Y-41886202D01*
X200837664Y-41886206D01*
X200722455Y-41972452D01*
X200722452Y-41972455D01*
X200636206Y-42087664D01*
X200636202Y-42087671D01*
X200585908Y-42222517D01*
X200579501Y-42282116D01*
X200579501Y-42282123D01*
X200579500Y-42282135D01*
X200579500Y-44077870D01*
X200579501Y-44077876D01*
X200585908Y-44137483D01*
X200636202Y-44272328D01*
X200636206Y-44272335D01*
X200722452Y-44387544D01*
X200722455Y-44387547D01*
X200837664Y-44473793D01*
X200837671Y-44473797D01*
X200972517Y-44524091D01*
X200972516Y-44524091D01*
X200979444Y-44524835D01*
X201032127Y-44530500D01*
X202827872Y-44530499D01*
X202887483Y-44524091D01*
X203022331Y-44473796D01*
X203137546Y-44387546D01*
X203223796Y-44272331D01*
X203274091Y-44137483D01*
X203280500Y-44077873D01*
X203280499Y-42282128D01*
X203274091Y-42222517D01*
X203263370Y-42193773D01*
X203223797Y-42087671D01*
X203223793Y-42087664D01*
X203137547Y-41972455D01*
X203137544Y-41972452D01*
X203022335Y-41886206D01*
X203022328Y-41886202D01*
X202890401Y-41836997D01*
X202834467Y-41795126D01*
X202810050Y-41729662D01*
X202824902Y-41661389D01*
X202846053Y-41633133D01*
X202968108Y-41511078D01*
X203103600Y-41317578D01*
X203203429Y-41103492D01*
X203203432Y-41103486D01*
X203260636Y-40890000D01*
X202363686Y-40890000D01*
X202389493Y-40849844D01*
X202430000Y-40711889D01*
X202430000Y-40640000D01*
X206924341Y-40640000D01*
X206944936Y-40875403D01*
X206944938Y-40875413D01*
X207006094Y-41103655D01*
X207006096Y-41103659D01*
X207006097Y-41103663D01*
X207099969Y-41304972D01*
X207105965Y-41317830D01*
X207105967Y-41317834D01*
X207208012Y-41463568D01*
X207241501Y-41511396D01*
X207241506Y-41511402D01*
X207363818Y-41633714D01*
X207397303Y-41695037D01*
X207392319Y-41764729D01*
X207350447Y-41820662D01*
X207319471Y-41837577D01*
X207187912Y-41886646D01*
X207187906Y-41886649D01*
X207072812Y-41972809D01*
X207072809Y-41972812D01*
X206986649Y-42087906D01*
X206986645Y-42087913D01*
X206936403Y-42222620D01*
X206936401Y-42222627D01*
X206930000Y-42282155D01*
X206930000Y-42930000D01*
X207846314Y-42930000D01*
X207820507Y-42970156D01*
X207780000Y-43108111D01*
X207780000Y-43251889D01*
X207820507Y-43389844D01*
X207846314Y-43430000D01*
X206930000Y-43430000D01*
X206930000Y-44077844D01*
X206936401Y-44137372D01*
X206936403Y-44137379D01*
X206986645Y-44272086D01*
X206986649Y-44272093D01*
X207072809Y-44387187D01*
X207072812Y-44387190D01*
X207187906Y-44473350D01*
X207187913Y-44473354D01*
X207322620Y-44523596D01*
X207322627Y-44523598D01*
X207382155Y-44529999D01*
X207382172Y-44530000D01*
X208030000Y-44530000D01*
X208030000Y-43615501D01*
X208137685Y-43664680D01*
X208244237Y-43680000D01*
X208315763Y-43680000D01*
X208422315Y-43664680D01*
X208530000Y-43615501D01*
X208530000Y-44530000D01*
X209177828Y-44530000D01*
X209177844Y-44529999D01*
X209237372Y-44523598D01*
X209237379Y-44523596D01*
X209372086Y-44473354D01*
X209372093Y-44473350D01*
X209487187Y-44387190D01*
X209487190Y-44387187D01*
X209573350Y-44272093D01*
X209573354Y-44272086D01*
X209623596Y-44137379D01*
X209623598Y-44137372D01*
X209629999Y-44077844D01*
X209630000Y-44077827D01*
X209630000Y-43430000D01*
X208713686Y-43430000D01*
X208739493Y-43389844D01*
X208780000Y-43251889D01*
X208780000Y-43108111D01*
X208739493Y-42970156D01*
X208713686Y-42930000D01*
X209630000Y-42930000D01*
X209630000Y-42282172D01*
X209629999Y-42282155D01*
X209623598Y-42222627D01*
X209623596Y-42222620D01*
X209573354Y-42087913D01*
X209573350Y-42087906D01*
X209487190Y-41972812D01*
X209487187Y-41972809D01*
X209372093Y-41886649D01*
X209372088Y-41886646D01*
X209240528Y-41837577D01*
X209184595Y-41795705D01*
X209160178Y-41730241D01*
X209175030Y-41661968D01*
X209196175Y-41633720D01*
X209318495Y-41511401D01*
X209454035Y-41317830D01*
X209553903Y-41103663D01*
X209615063Y-40875408D01*
X209635659Y-40640000D01*
X209615063Y-40404592D01*
X209553903Y-40176337D01*
X209454035Y-39962171D01*
X209318495Y-39768599D01*
X209318494Y-39768597D01*
X209151402Y-39601506D01*
X209151396Y-39601501D01*
X208965842Y-39471575D01*
X208922217Y-39416998D01*
X208915023Y-39347500D01*
X208946546Y-39285145D01*
X208965842Y-39268425D01*
X208988026Y-39252891D01*
X209151401Y-39138495D01*
X209318495Y-38971401D01*
X209454035Y-38777830D01*
X209553903Y-38563663D01*
X209615063Y-38335408D01*
X209635659Y-38100000D01*
X209615063Y-37864592D01*
X209553903Y-37636337D01*
X209454035Y-37422171D01*
X209318495Y-37228599D01*
X209318494Y-37228597D01*
X209151402Y-37061506D01*
X209151396Y-37061501D01*
X208965842Y-36931575D01*
X208922217Y-36876998D01*
X208915023Y-36807500D01*
X208946546Y-36745145D01*
X208965842Y-36728425D01*
X209084542Y-36645310D01*
X209151401Y-36598495D01*
X209318495Y-36431401D01*
X209454035Y-36237830D01*
X209553903Y-36023663D01*
X209615063Y-35795408D01*
X209635659Y-35560000D01*
X209615063Y-35324592D01*
X209567941Y-35148730D01*
X209553905Y-35096344D01*
X209553904Y-35096343D01*
X209553903Y-35096337D01*
X209454035Y-34882171D01*
X209318495Y-34688599D01*
X209318494Y-34688597D01*
X209151402Y-34521506D01*
X209151395Y-34521501D01*
X208957834Y-34385967D01*
X208957830Y-34385965D01*
X208957828Y-34385964D01*
X208743663Y-34286097D01*
X208743659Y-34286096D01*
X208743655Y-34286094D01*
X208515413Y-34224938D01*
X208515403Y-34224936D01*
X208280001Y-34204341D01*
X208279999Y-34204341D01*
X208044596Y-34224936D01*
X208044586Y-34224938D01*
X207816344Y-34286094D01*
X207816335Y-34286098D01*
X207602171Y-34385964D01*
X207602169Y-34385965D01*
X207408597Y-34521505D01*
X207241505Y-34688597D01*
X207105965Y-34882169D01*
X207105964Y-34882171D01*
X207006098Y-35096335D01*
X207006094Y-35096344D01*
X206944938Y-35324586D01*
X206944936Y-35324596D01*
X206924341Y-35559999D01*
X206924341Y-35560000D01*
X206944936Y-35795403D01*
X206944938Y-35795413D01*
X207006094Y-36023655D01*
X207006096Y-36023659D01*
X207006097Y-36023663D01*
X207008878Y-36029626D01*
X207105965Y-36237830D01*
X207105967Y-36237834D01*
X207241501Y-36431395D01*
X207241506Y-36431402D01*
X207408597Y-36598493D01*
X207408603Y-36598498D01*
X207594158Y-36728425D01*
X207637783Y-36783002D01*
X207644977Y-36852500D01*
X207613454Y-36914855D01*
X207594158Y-36931575D01*
X207408597Y-37061505D01*
X207241505Y-37228597D01*
X207105965Y-37422169D01*
X207105964Y-37422171D01*
X207006098Y-37636335D01*
X207006094Y-37636344D01*
X206944938Y-37864586D01*
X206944936Y-37864596D01*
X206924341Y-38099999D01*
X206924341Y-38100000D01*
X206944936Y-38335403D01*
X206944938Y-38335413D01*
X207006094Y-38563655D01*
X207006096Y-38563659D01*
X207006097Y-38563663D01*
X207105965Y-38777830D01*
X207105967Y-38777834D01*
X207241501Y-38971395D01*
X207241506Y-38971402D01*
X207408597Y-39138493D01*
X207408603Y-39138498D01*
X207594158Y-39268425D01*
X207637783Y-39323002D01*
X207644977Y-39392500D01*
X207613454Y-39454855D01*
X207594158Y-39471575D01*
X207408597Y-39601505D01*
X207241505Y-39768597D01*
X207105965Y-39962169D01*
X207105964Y-39962171D01*
X207006098Y-40176335D01*
X207006094Y-40176344D01*
X206944938Y-40404586D01*
X206944936Y-40404596D01*
X206924341Y-40639999D01*
X206924341Y-40640000D01*
X202430000Y-40640000D01*
X202430000Y-40568111D01*
X202389493Y-40430156D01*
X202363686Y-40390000D01*
X203260636Y-40390000D01*
X203260635Y-40389999D01*
X203203432Y-40176513D01*
X203203429Y-40176507D01*
X203103600Y-39962422D01*
X203103599Y-39962420D01*
X202968113Y-39768926D01*
X202968108Y-39768920D01*
X202801078Y-39601890D01*
X202615405Y-39471879D01*
X202571780Y-39417302D01*
X202564588Y-39347804D01*
X202596110Y-39285449D01*
X202615406Y-39268730D01*
X202615842Y-39268425D01*
X202801401Y-39138495D01*
X202968495Y-38971401D01*
X203104035Y-38777830D01*
X203203903Y-38563663D01*
X203265063Y-38335408D01*
X203285659Y-38100000D01*
X203265063Y-37864592D01*
X203203903Y-37636337D01*
X203104035Y-37422171D01*
X202968495Y-37228599D01*
X202968494Y-37228597D01*
X202801402Y-37061506D01*
X202801396Y-37061501D01*
X202615842Y-36931575D01*
X202572217Y-36876998D01*
X202565023Y-36807500D01*
X202596546Y-36745145D01*
X202615842Y-36728425D01*
X202734542Y-36645310D01*
X202801401Y-36598495D01*
X202968495Y-36431401D01*
X203104035Y-36237830D01*
X203203903Y-36023663D01*
X203265063Y-35795408D01*
X203285659Y-35560000D01*
X203265063Y-35324592D01*
X203217941Y-35148730D01*
X203203905Y-35096344D01*
X203203904Y-35096343D01*
X203203903Y-35096337D01*
X203104035Y-34882171D01*
X202968495Y-34688599D01*
X202968494Y-34688597D01*
X202801402Y-34521506D01*
X202801395Y-34521501D01*
X202607834Y-34385967D01*
X202607830Y-34385965D01*
X202607828Y-34385964D01*
X202393663Y-34286097D01*
X202393659Y-34286096D01*
X202393655Y-34286094D01*
X202165413Y-34224938D01*
X202165403Y-34224936D01*
X201930001Y-34204341D01*
X201929999Y-34204341D01*
X201694596Y-34224936D01*
X201694586Y-34224938D01*
X201466344Y-34286094D01*
X201466335Y-34286098D01*
X201252171Y-34385964D01*
X201252169Y-34385965D01*
X201058597Y-34521505D01*
X200891505Y-34688597D01*
X200755965Y-34882169D01*
X200755964Y-34882171D01*
X200656098Y-35096335D01*
X200656094Y-35096344D01*
X200594938Y-35324586D01*
X200594936Y-35324596D01*
X200574341Y-35559999D01*
X200574341Y-35560000D01*
X200594936Y-35795403D01*
X200594938Y-35795413D01*
X200656094Y-36023655D01*
X200656096Y-36023659D01*
X200656097Y-36023663D01*
X200658878Y-36029626D01*
X200755965Y-36237830D01*
X200755967Y-36237834D01*
X200891501Y-36431395D01*
X200891506Y-36431402D01*
X201058597Y-36598493D01*
X201058603Y-36598498D01*
X201244158Y-36728425D01*
X201287783Y-36783002D01*
X201294977Y-36852500D01*
X201263454Y-36914855D01*
X201244158Y-36931575D01*
X201058597Y-37061505D01*
X200891505Y-37228597D01*
X200755965Y-37422169D01*
X200755964Y-37422171D01*
X200656098Y-37636335D01*
X200656094Y-37636344D01*
X200594938Y-37864586D01*
X200594936Y-37864596D01*
X200574341Y-38099999D01*
X200574341Y-38100000D01*
X184150000Y-38100000D01*
X184150000Y-28575005D01*
X184769457Y-28575005D01*
X184789606Y-28895283D01*
X184789607Y-28895290D01*
X184849745Y-29210542D01*
X184948916Y-29515759D01*
X184948918Y-29515764D01*
X185085558Y-29806138D01*
X185085562Y-29806144D01*
X185257520Y-30077108D01*
X185257522Y-30077111D01*
X185462087Y-30324388D01*
X185696034Y-30544078D01*
X185696044Y-30544086D01*
X185955660Y-30732708D01*
X185955666Y-30732711D01*
X185955672Y-30732716D01*
X186236903Y-30887324D01*
X186535294Y-31005466D01*
X186535293Y-31005466D01*
X186846135Y-31085276D01*
X186846139Y-31085277D01*
X186912935Y-31093715D01*
X187164524Y-31125499D01*
X187164533Y-31125499D01*
X187164536Y-31125500D01*
X187164538Y-31125500D01*
X187485462Y-31125500D01*
X187485464Y-31125500D01*
X187485467Y-31125499D01*
X187485475Y-31125499D01*
X187675463Y-31101497D01*
X187803861Y-31085277D01*
X188114706Y-31005466D01*
X188413097Y-30887324D01*
X188694328Y-30732716D01*
X188953964Y-30544080D01*
X189187911Y-30324390D01*
X189392478Y-30077110D01*
X189564439Y-29806142D01*
X189572754Y-29788473D01*
X189641946Y-29641432D01*
X189701084Y-29515758D01*
X189800256Y-29210538D01*
X189860392Y-28895294D01*
X189866346Y-28800656D01*
X189880543Y-28575005D01*
X189880543Y-28574994D01*
X189860393Y-28254716D01*
X189860392Y-28254709D01*
X189860392Y-28254706D01*
X189800256Y-27939462D01*
X189701084Y-27634242D01*
X189681837Y-27593340D01*
X189564441Y-27343861D01*
X189564437Y-27343855D01*
X189392479Y-27072891D01*
X189392477Y-27072888D01*
X189187912Y-26825611D01*
X189139677Y-26780315D01*
X188953964Y-26605920D01*
X188953961Y-26605918D01*
X188953955Y-26605913D01*
X188694339Y-26417291D01*
X188694321Y-26417280D01*
X188413096Y-26262675D01*
X188413093Y-26262674D01*
X188114703Y-26144533D01*
X188114706Y-26144533D01*
X187803864Y-26064723D01*
X187803851Y-26064721D01*
X187485475Y-26024500D01*
X187485464Y-26024500D01*
X187164536Y-26024500D01*
X187164524Y-26024500D01*
X186846148Y-26064721D01*
X186846135Y-26064723D01*
X186535294Y-26144533D01*
X186236906Y-26262674D01*
X186236903Y-26262675D01*
X185955678Y-26417280D01*
X185955660Y-26417291D01*
X185696044Y-26605913D01*
X185696034Y-26605921D01*
X185462087Y-26825611D01*
X185257522Y-27072888D01*
X185257520Y-27072891D01*
X185085562Y-27343855D01*
X185085558Y-27343861D01*
X184948918Y-27634235D01*
X184948916Y-27634240D01*
X184849745Y-27939457D01*
X184789607Y-28254709D01*
X184789606Y-28254716D01*
X184769457Y-28574994D01*
X184769457Y-28575005D01*
X184150000Y-28575005D01*
X184150000Y-25524000D01*
X184169685Y-25456961D01*
X184222489Y-25411206D01*
X184274000Y-25400000D01*
X219570741Y-25400000D01*
X219637780Y-25419685D01*
G37*
%TD.AperFunction*%
%TD*%
%TA.AperFunction,Conductor*%
%TO.N,unconnected-(J1-Shield-Pad6)*%
G36*
X230702673Y-41541621D02*
G01*
X230736388Y-41493472D01*
X230790965Y-41449847D01*
X230860463Y-41442653D01*
X230922818Y-41474176D01*
X230958232Y-41534406D01*
X230955461Y-41604220D01*
X230955145Y-41605145D01*
X230953646Y-41609474D01*
X230953644Y-41609484D01*
X230952132Y-41620000D01*
X231861389Y-41620000D01*
X231821890Y-41644457D01*
X231754299Y-41733962D01*
X231723605Y-41841840D01*
X231733954Y-41953521D01*
X231783948Y-42053922D01*
X231856431Y-42120000D01*
X230956242Y-42120000D01*
X230983270Y-42231409D01*
X231070540Y-42422507D01*
X231192389Y-42593619D01*
X231192395Y-42593625D01*
X231344432Y-42738592D01*
X231521157Y-42852166D01*
X231716185Y-42930244D01*
X231922462Y-42970000D01*
X232127500Y-42970000D01*
X232127500Y-42170000D01*
X232627500Y-42170000D01*
X232627500Y-42970000D01*
X232779898Y-42970000D01*
X232936622Y-42955034D01*
X232936626Y-42955033D01*
X233138186Y-42895850D01*
X233324914Y-42799586D01*
X233479348Y-42678137D01*
X233544212Y-42652169D01*
X233612820Y-42665391D01*
X233663387Y-42713606D01*
X233680000Y-42775607D01*
X233680000Y-44326000D01*
X233660315Y-44393039D01*
X233607511Y-44438794D01*
X233556000Y-44450000D01*
X228724000Y-44450000D01*
X228656961Y-44430315D01*
X228611206Y-44377511D01*
X228600000Y-44326000D01*
X228600000Y-41645309D01*
X228619685Y-41578270D01*
X228636319Y-41557628D01*
X229257695Y-40936251D01*
X229268262Y-41002969D01*
X229329382Y-41122923D01*
X229424577Y-41218118D01*
X229544531Y-41279238D01*
X229611247Y-41289804D01*
X229005877Y-41895173D01*
X229062661Y-41934933D01*
X229256923Y-42025518D01*
X229256932Y-42025522D01*
X229463962Y-42080995D01*
X229463972Y-42080997D01*
X229677499Y-42099679D01*
X229677501Y-42099679D01*
X229891027Y-42080997D01*
X229891037Y-42080995D01*
X230098067Y-42025522D01*
X230098076Y-42025518D01*
X230292339Y-41934933D01*
X230349121Y-41895173D01*
X229743752Y-41289804D01*
X229810469Y-41279238D01*
X229930423Y-41218118D01*
X230025618Y-41122923D01*
X230086738Y-41002969D01*
X230097304Y-40936251D01*
X230702673Y-41541621D01*
G37*
%TD.AperFunction*%
%TA.AperFunction,Conductor*%
G36*
X232627500Y-35970000D02*
G01*
X232779898Y-35970000D01*
X232936622Y-35955034D01*
X232936626Y-35955033D01*
X233138186Y-35895850D01*
X233324914Y-35799586D01*
X233479348Y-35678137D01*
X233544212Y-35652169D01*
X233612820Y-35665391D01*
X233663387Y-35713606D01*
X233680000Y-35775607D01*
X233680000Y-40968743D01*
X233660315Y-41035782D01*
X233607511Y-41081537D01*
X233538353Y-41091481D01*
X233474797Y-41062456D01*
X233470431Y-41058486D01*
X233410570Y-41001409D01*
X233233842Y-40887833D01*
X233038814Y-40809755D01*
X232832538Y-40770000D01*
X232627500Y-40770000D01*
X232627500Y-41570000D01*
X232127500Y-41570000D01*
X232127500Y-40770000D01*
X231975102Y-40770000D01*
X231818377Y-40784965D01*
X231818373Y-40784966D01*
X231616813Y-40844149D01*
X231430085Y-40940413D01*
X231264962Y-41070268D01*
X231264959Y-41070271D01*
X231127394Y-41229030D01*
X231127385Y-41229042D01*
X231079795Y-41311471D01*
X231029228Y-41359687D01*
X230960621Y-41372909D01*
X230895756Y-41346941D01*
X230855228Y-41290027D01*
X230851903Y-41220236D01*
X230852633Y-41217377D01*
X230888496Y-41083534D01*
X230888497Y-41083527D01*
X230907179Y-40870000D01*
X230907179Y-40869999D01*
X230888497Y-40656472D01*
X230888495Y-40656462D01*
X230833022Y-40449432D01*
X230833018Y-40449423D01*
X230742433Y-40255162D01*
X230702672Y-40198379D01*
X230097304Y-40803747D01*
X230086738Y-40737031D01*
X230025618Y-40617077D01*
X229930423Y-40521882D01*
X229810469Y-40460762D01*
X229743752Y-40450195D01*
X230349121Y-39844826D01*
X230349120Y-39844825D01*
X230292340Y-39805067D01*
X230292338Y-39805066D01*
X230098076Y-39714481D01*
X230098067Y-39714477D01*
X229891037Y-39659004D01*
X229891027Y-39659002D01*
X229677501Y-39640321D01*
X229677499Y-39640321D01*
X229463972Y-39659002D01*
X229463962Y-39659004D01*
X229256932Y-39714477D01*
X229256923Y-39714481D01*
X229062662Y-39805066D01*
X229005878Y-39844826D01*
X229611248Y-40450195D01*
X229544531Y-40460762D01*
X229424577Y-40521882D01*
X229329382Y-40617077D01*
X229268262Y-40737031D01*
X229257695Y-40803747D01*
X228636319Y-40182371D01*
X228602834Y-40121048D01*
X228600000Y-40094690D01*
X228600000Y-36645309D01*
X228619685Y-36578270D01*
X228636319Y-36557628D01*
X229257695Y-35936251D01*
X229268262Y-36002969D01*
X229329382Y-36122923D01*
X229424577Y-36218118D01*
X229544531Y-36279238D01*
X229611247Y-36289804D01*
X229005877Y-36895173D01*
X229062661Y-36934933D01*
X229256923Y-37025518D01*
X229256932Y-37025522D01*
X229463962Y-37080995D01*
X229463972Y-37080997D01*
X229677499Y-37099679D01*
X229677501Y-37099679D01*
X229891027Y-37080997D01*
X229891037Y-37080995D01*
X230098067Y-37025522D01*
X230098076Y-37025518D01*
X230292339Y-36934933D01*
X230349121Y-36895173D01*
X229743752Y-36289804D01*
X229810469Y-36279238D01*
X229930423Y-36218118D01*
X230025618Y-36122923D01*
X230086738Y-36002969D01*
X230097304Y-35936251D01*
X230702673Y-36541621D01*
X230742433Y-36484839D01*
X230833018Y-36290576D01*
X230833022Y-36290567D01*
X230888495Y-36083537D01*
X230888497Y-36083527D01*
X230907179Y-35870000D01*
X230907179Y-35869999D01*
X230888497Y-35656472D01*
X230888495Y-35656462D01*
X230856045Y-35535355D01*
X230857708Y-35465505D01*
X230896871Y-35407643D01*
X230961099Y-35380139D01*
X231030001Y-35391726D01*
X231076827Y-35431335D01*
X231192389Y-35593619D01*
X231192395Y-35593625D01*
X231344432Y-35738592D01*
X231521157Y-35852166D01*
X231716185Y-35930244D01*
X231922462Y-35970000D01*
X232127500Y-35970000D01*
X232127500Y-35170000D01*
X232627500Y-35170000D01*
X232627500Y-35970000D01*
G37*
%TD.AperFunction*%
%TA.AperFunction,Conductor*%
G36*
X233623039Y-32404685D02*
G01*
X233668794Y-32457489D01*
X233680000Y-32509000D01*
X233680000Y-33968743D01*
X233660315Y-34035782D01*
X233607511Y-34081537D01*
X233538353Y-34091481D01*
X233474797Y-34062456D01*
X233470431Y-34058486D01*
X233410570Y-34001409D01*
X233233842Y-33887833D01*
X233038814Y-33809755D01*
X232832538Y-33770000D01*
X232627500Y-33770000D01*
X232627500Y-34570000D01*
X232127500Y-34570000D01*
X232127500Y-33770000D01*
X231975102Y-33770000D01*
X231818377Y-33784965D01*
X231818373Y-33784966D01*
X231616813Y-33844149D01*
X231430085Y-33940413D01*
X231264962Y-34070268D01*
X231264959Y-34070271D01*
X231127394Y-34229030D01*
X231127385Y-34229041D01*
X231022355Y-34410960D01*
X231022352Y-34410967D01*
X230953644Y-34609482D01*
X230953644Y-34609484D01*
X230952132Y-34620000D01*
X231861389Y-34620000D01*
X231821890Y-34644457D01*
X231754299Y-34733962D01*
X231723605Y-34841840D01*
X231733954Y-34953521D01*
X231783948Y-35053922D01*
X231856431Y-35120000D01*
X230956242Y-35120000D01*
X230964776Y-35155180D01*
X230961451Y-35224971D01*
X230920922Y-35281885D01*
X230856057Y-35307853D01*
X230787450Y-35294629D01*
X230742697Y-35255538D01*
X230702673Y-35198379D01*
X230097304Y-35803747D01*
X230086738Y-35737031D01*
X230025618Y-35617077D01*
X229930423Y-35521882D01*
X229810469Y-35460762D01*
X229743752Y-35450195D01*
X230349121Y-34844826D01*
X230349120Y-34844825D01*
X230292340Y-34805067D01*
X230292338Y-34805066D01*
X230098076Y-34714481D01*
X230098067Y-34714477D01*
X229891037Y-34659004D01*
X229891027Y-34659002D01*
X229677501Y-34640321D01*
X229677499Y-34640321D01*
X229463972Y-34659002D01*
X229463962Y-34659004D01*
X229256932Y-34714477D01*
X229256923Y-34714481D01*
X229062662Y-34805066D01*
X229005878Y-34844826D01*
X229611248Y-35450195D01*
X229544531Y-35460762D01*
X229424577Y-35521882D01*
X229329382Y-35617077D01*
X229268262Y-35737031D01*
X229257695Y-35803747D01*
X228636319Y-35182371D01*
X228602834Y-35121048D01*
X228600000Y-35094690D01*
X228600000Y-32509000D01*
X228619685Y-32441961D01*
X228672489Y-32396206D01*
X228724000Y-32385000D01*
X233556000Y-32385000D01*
X233623039Y-32404685D01*
G37*
%TD.AperFunction*%
%TD*%
M02*
