M48
; DRILL file {KiCad 7.0.10-7.0.10~ubuntu22.04.1} date Tue 23 Jan 2024 13:20:57 GMT
; FORMAT={-:-/ absolute / inch / decimal}
; #@! TF.CreationDate,2024-01-23T13:20:57+00:00
; #@! TF.GenerationSoftware,Kicad,Pcbnew,7.0.10-7.0.10~ubuntu22.04.1
; #@! TF.FileFunction,Plated,1,2,PTH
FMAT,2
INCH
; #@! TA.AperFunction,Plated,PTH,ViaDrill
T1C0.0157
; #@! TA.AperFunction,Plated,PTH,ComponentDrill
T2C0.0236
; #@! TA.AperFunction,Plated,PTH,ComponentDrill
T3C0.0335
; #@! TA.AperFunction,Plated,PTH,ComponentDrill
T4C0.0394
; #@! TA.AperFunction,Plated,PTH,ComponentDrill
T5C0.0512
%
G90
G05
T1
X7.825Y-1.925
X7.825Y-1.975
X8.1Y-1.925
X8.1Y-1.975
X8.375Y-2.5
X8.4Y-2.125
X8.425Y-2.375
X8.45Y-2.125
X8.575Y-1.925
X8.625Y-1.925
X8.7Y-1.5252
X8.7Y-2.0
X8.75Y-1.5252
X8.75Y-2.0
X8.9Y-1.4106
X8.9Y-1.4606
X8.95Y-1.4106
X8.95Y-1.4606
T3
X9.0424Y-1.4122
X9.0424Y-1.6091
T4
X7.95Y-1.4
X7.95Y-1.5
X7.95Y-1.6
X7.95Y-1.7
X8.175Y-2.2996
X8.175Y-2.3996
X8.175Y-2.4996
X8.175Y-2.5996
X8.2Y-1.4
X8.2Y-1.5
X8.2Y-1.6
X8.2Y-1.7
X8.275Y-2.2996
X8.275Y-2.3996
X8.275Y-2.4996
X8.275Y-2.5996
X8.6864Y-1.0451
X8.75Y-2.2
X8.75Y-2.3
X8.75Y-2.4
X8.75Y-2.5
X8.75Y-2.6
X8.75Y-2.7
X8.8636Y-1.0451
T5
X8.6372Y-1.1435
X8.9128Y-1.1435
T2
G00X9.1349Y-1.3728
M15
G01X9.1625Y-1.3728
M16
G05
G00X9.1625Y-1.6484
M15
G01X9.1349Y-1.6484
M16
G05
M30
