%TF.GenerationSoftware,KiCad,Pcbnew,7.0.10-7.0.10~ubuntu22.04.1*%
%TF.CreationDate,2024-01-23T13:21:10+00:00*%
%TF.ProjectId,wifi_temp_sensor,77696669-5f74-4656-9d70-5f73656e736f,rev?*%
%TF.SameCoordinates,Original*%
%TF.FileFunction,Soldermask,Top*%
%TF.FilePolarity,Negative*%
%FSLAX46Y46*%
G04 Gerber Fmt 4.6, Leading zero omitted, Abs format (unit mm)*
G04 Created by KiCad (PCBNEW 7.0.10-7.0.10~ubuntu22.04.1) date 2024-01-23 13:21:10*
%MOMM*%
%LPD*%
G01*
G04 APERTURE LIST*
G04 Aperture macros list*
%AMRoundRect*
0 Rectangle with rounded corners*
0 $1 Rounding radius*
0 $2 $3 $4 $5 $6 $7 $8 $9 X,Y pos of 4 corners*
0 Add a 4 corners polygon primitive as box body*
4,1,4,$2,$3,$4,$5,$6,$7,$8,$9,$2,$3,0*
0 Add four circle primitives for the rounded corners*
1,1,$1+$1,$2,$3*
1,1,$1+$1,$4,$5*
1,1,$1+$1,$6,$7*
1,1,$1+$1,$8,$9*
0 Add four rect primitives between the rounded corners*
20,1,$1+$1,$2,$3,$4,$5,0*
20,1,$1+$1,$4,$5,$6,$7,0*
20,1,$1+$1,$6,$7,$8,$9,0*
20,1,$1+$1,$8,$9,$2,$3,0*%
%AMFreePoly0*
4,1,9,5.362500,-0.866500,1.237500,-0.866500,1.237500,-0.450000,-1.237500,-0.450000,-1.237500,0.450000,1.237500,0.450000,1.237500,0.866500,5.362500,0.866500,5.362500,-0.866500,5.362500,-0.866500,$1*%
G04 Aperture macros list end*
%ADD10RoundRect,0.250000X0.650000X-0.412500X0.650000X0.412500X-0.650000X0.412500X-0.650000X-0.412500X0*%
%ADD11R,1.700000X1.700000*%
%ADD12O,1.700000X1.700000*%
%ADD13R,2.300000X0.900000*%
%ADD14FreePoly0,180.000000*%
%ADD15C,1.700000*%
%ADD16C,2.000000*%
%ADD17RoundRect,0.250000X-0.650000X0.412500X-0.650000X-0.412500X0.650000X-0.412500X0.650000X0.412500X0*%
%ADD18R,1.350000X0.400000*%
%ADD19O,1.900000X1.200000*%
%ADD20R,1.900000X1.200000*%
%ADD21C,1.450000*%
%ADD22R,1.900000X1.500000*%
G04 APERTURE END LIST*
D10*
%TO.C,C5*%
X213995000Y-58712500D03*
X213995000Y-55587500D03*
%TD*%
%TO.C,C4*%
X201930000Y-49822500D03*
X201930000Y-46697500D03*
%TD*%
D11*
%TO.C,J2*%
X207645000Y-66030000D03*
D12*
X210185000Y-66030000D03*
X207645000Y-63490000D03*
X210185000Y-63490000D03*
X207645000Y-60950000D03*
X210185000Y-60950000D03*
X207645000Y-58410000D03*
X210185000Y-58410000D03*
%TD*%
D11*
%TO.C,J5*%
X208280000Y-43180000D03*
D12*
X208280000Y-40640000D03*
X208280000Y-38100000D03*
X208280000Y-35560000D03*
%TD*%
D13*
%TO.C,U2*%
X218985000Y-47220000D03*
D14*
X218897500Y-45720000D03*
D13*
X218985000Y-44220000D03*
%TD*%
D15*
%TO.C,SW1*%
X220635000Y-26545000D03*
X225135000Y-26545000D03*
D16*
X226385000Y-29045000D03*
X219385000Y-29045000D03*
%TD*%
D10*
%TO.C,C1*%
X221660000Y-43677500D03*
X221660000Y-40552500D03*
%TD*%
D17*
%TO.C,C3*%
X208280000Y-46697500D03*
X208280000Y-49822500D03*
%TD*%
D11*
%TO.C,J3*%
X201930000Y-43180000D03*
D12*
X201930000Y-40640000D03*
X201930000Y-38100000D03*
X201930000Y-35560000D03*
%TD*%
D18*
%TO.C,J1*%
X229677500Y-39670000D03*
X229677500Y-39020000D03*
X229677500Y-38370000D03*
X229677500Y-37720000D03*
X229677500Y-37070000D03*
D19*
X232377500Y-41870000D03*
D20*
X232377500Y-41270000D03*
D21*
X229677500Y-40870000D03*
D22*
X232377500Y-39370000D03*
X232377500Y-37370000D03*
D21*
X229677500Y-35870000D03*
D20*
X232377500Y-35470000D03*
D19*
X232377500Y-34870000D03*
%TD*%
D17*
%TO.C,C2*%
X221660000Y-46037500D03*
X221660000Y-49162500D03*
%TD*%
D11*
%TO.C,J4*%
X222250000Y-55880000D03*
D12*
X222250000Y-58420000D03*
X222250000Y-60960000D03*
X222250000Y-63500000D03*
X222250000Y-66040000D03*
X222250000Y-68580000D03*
%TD*%
M02*
