%TF.GenerationSoftware,KiCad,Pcbnew,7.0.9-7.0.9~ubuntu22.04.1*%
%TF.CreationDate,2023-12-22T13:51:18+00:00*%
%TF.ProjectId,wifi_temp_sensor,77696669-5f74-4656-9d70-5f73656e736f,rev?*%
%TF.SameCoordinates,Original*%
%TF.FileFunction,Copper,L2,Bot*%
%TF.FilePolarity,Positive*%
%FSLAX46Y46*%
G04 Gerber Fmt 4.6, Leading zero omitted, Abs format (unit mm)*
G04 Created by KiCad (PCBNEW 7.0.9-7.0.9~ubuntu22.04.1) date 2023-12-22 13:51:18*
%MOMM*%
%LPD*%
G01*
G04 APERTURE LIST*
%TA.AperFunction,ComponentPad*%
%ADD10R,1.700000X1.700000*%
%TD*%
%TA.AperFunction,ComponentPad*%
%ADD11O,1.700000X1.700000*%
%TD*%
%TA.AperFunction,ComponentPad*%
%ADD12C,2.000000*%
%TD*%
%TA.AperFunction,ComponentPad*%
%ADD13O,1.900000X1.200000*%
%TD*%
%TA.AperFunction,ComponentPad*%
%ADD14C,1.450000*%
%TD*%
%TA.AperFunction,Conductor*%
%ADD15C,0.500000*%
%TD*%
%TA.AperFunction,Conductor*%
%ADD16C,0.250000*%
%TD*%
G04 APERTURE END LIST*
D10*
%TO.P,J4,1,Pin_1*%
%TO.N,GND*%
X211455000Y-43180000D03*
D11*
%TO.P,J4,2,Pin_2*%
%TO.N,unconnected-(J4-Pin_2-Pad2)*%
X211455000Y-45720000D03*
%TO.P,J4,3,Pin_3*%
%TO.N,+5V*%
X211455000Y-48260000D03*
%TO.P,J4,4,Pin_4*%
%TO.N,ESP_Rx*%
X211455000Y-50800000D03*
%TO.P,J4,5,Pin_5*%
%TO.N,ESP_Tx*%
X211455000Y-53340000D03*
%TO.P,J4,6,Pin_6*%
%TO.N,unconnected-(J4-Pin_6-Pad6)*%
X211455000Y-55880000D03*
%TD*%
%TO.P,J3,4,Pin_4*%
%TO.N,SDA*%
X177755000Y-36235000D03*
%TO.P,J3,3,Pin_3*%
%TO.N,SCL*%
X177755000Y-38775000D03*
%TO.P,J3,2,Pin_2*%
%TO.N,GND*%
X177755000Y-41315000D03*
D10*
%TO.P,J3,1,Pin_1*%
%TO.N,+3.3V*%
X177755000Y-43855000D03*
%TD*%
D12*
%TO.P,SW1,1*%
%TO.N,SCL*%
X198120000Y-49820000D03*
X191620000Y-49820000D03*
%TO.P,SW1,2*%
%TO.N,+3.3V*%
X198120000Y-54320000D03*
X191620000Y-54320000D03*
%TD*%
D10*
%TO.P,J8,1,Pin_1*%
%TO.N,GND*%
X184390000Y-38210000D03*
%TD*%
%TO.P,J6,1,Pin_1*%
%TO.N,GND*%
X199390000Y-38210000D03*
%TD*%
D11*
%TO.P,J2,8,Pin_8*%
%TO.N,+3.3V*%
X186055000Y-48895000D03*
%TO.P,J2,7,Pin_7*%
%TO.N,ESP_Rx*%
X183515000Y-48895000D03*
%TO.P,J2,6,Pin_6*%
%TO.N,unconnected-(J2-Pin_6-Pad6)*%
X186055000Y-51435000D03*
%TO.P,J2,5,Pin_5*%
%TO.N,SCL*%
X183515000Y-51435000D03*
%TO.P,J2,4,Pin_4*%
%TO.N,+3.3V*%
X186055000Y-53975000D03*
%TO.P,J2,3,Pin_3*%
%TO.N,SDA*%
X183515000Y-53975000D03*
%TO.P,J2,2,Pin_2*%
%TO.N,ESP_Tx*%
X186055000Y-56515000D03*
D10*
%TO.P,J2,1,Pin_1*%
%TO.N,GND*%
X183515000Y-56515000D03*
%TD*%
D13*
%TO.P,J1,6,Shield*%
%TO.N,unconnected-(J1-Shield-Pad6)*%
X212962500Y-28917500D03*
D14*
X210262500Y-34917500D03*
D13*
X212962500Y-35917500D03*
D14*
X210262500Y-29917500D03*
%TD*%
D10*
%TO.P,5VIN1,1,Pin_1*%
%TO.N,+5V*%
X199390000Y-29210000D03*
%TD*%
%TO.P,3_3VOUT1,1,Pin_1*%
%TO.N,+3.3V*%
X184390000Y-29210000D03*
%TD*%
D15*
%TO.N,unconnected-(J1-Shield-Pad6)*%
X212962500Y-35917500D02*
X212962500Y-35797500D01*
X212962500Y-35797500D02*
X212082500Y-34917500D01*
X212082500Y-34917500D02*
X210262500Y-34917500D01*
X210262500Y-29917500D02*
X211962500Y-29917500D01*
X211962500Y-29917500D02*
X212962500Y-28917500D01*
%TO.N,+3.3V*%
X184390000Y-29210000D02*
X185690000Y-30510000D01*
X185690000Y-30510000D02*
X185690000Y-41005000D01*
X185690000Y-41005000D02*
X182840000Y-43855000D01*
X182840000Y-43855000D02*
X177755000Y-43855000D01*
%TO.N,SDA*%
X183515000Y-53975000D02*
X173990000Y-44450000D01*
X173990000Y-44450000D02*
X173990000Y-40000000D01*
X173990000Y-40000000D02*
X177755000Y-36235000D01*
%TO.N,SCL*%
X183515000Y-51435000D02*
X182312919Y-51435000D01*
X182312919Y-51435000D02*
X175260000Y-44382081D01*
X175260000Y-44382081D02*
X175260000Y-41270000D01*
X175260000Y-41270000D02*
X177755000Y-38775000D01*
%TO.N,GND*%
X199390000Y-38210000D02*
X206485000Y-38210000D01*
X206485000Y-38210000D02*
X211455000Y-43180000D01*
D16*
%TO.N,ESP_Tx*%
X186055000Y-56515000D02*
X208280000Y-56515000D01*
X208280000Y-56515000D02*
X211455000Y-53340000D01*
%TO.N,ESP_Rx*%
X183515000Y-48895000D02*
X184690000Y-47720000D01*
X184690000Y-47720000D02*
X208375000Y-47720000D01*
X208375000Y-47720000D02*
X211455000Y-50800000D01*
D15*
%TO.N,+3.3V*%
X186055000Y-53975000D02*
X187355000Y-52675000D01*
X187355000Y-52675000D02*
X187355000Y-50195000D01*
X187355000Y-50195000D02*
X186055000Y-48895000D01*
X186400000Y-54320000D02*
X186055000Y-53975000D01*
%TD*%
M02*
