%TF.GenerationSoftware,KiCad,Pcbnew,7.0.9-7.0.9~ubuntu22.04.1*%
%TF.CreationDate,2023-12-22T13:51:19+00:00*%
%TF.ProjectId,wifi_temp_sensor,77696669-5f74-4656-9d70-5f73656e736f,rev?*%
%TF.SameCoordinates,Original*%
%TF.FileFunction,Legend,Top*%
%TF.FilePolarity,Positive*%
%FSLAX46Y46*%
G04 Gerber Fmt 4.6, Leading zero omitted, Abs format (unit mm)*
G04 Created by KiCad (PCBNEW 7.0.9-7.0.9~ubuntu22.04.1) date 2023-12-22 13:51:19*
%MOMM*%
%LPD*%
G01*
G04 APERTURE LIST*
%ADD10C,0.150000*%
%ADD11C,0.120000*%
G04 APERTURE END LIST*
D10*
X211121666Y-40304819D02*
X211121666Y-41019104D01*
X211121666Y-41019104D02*
X211074047Y-41161961D01*
X211074047Y-41161961D02*
X210978809Y-41257200D01*
X210978809Y-41257200D02*
X210835952Y-41304819D01*
X210835952Y-41304819D02*
X210740714Y-41304819D01*
X212026428Y-40638152D02*
X212026428Y-41304819D01*
X211788333Y-40257200D02*
X211550238Y-40971485D01*
X211550238Y-40971485D02*
X212169285Y-40971485D01*
X193536667Y-48227200D02*
X193679524Y-48274819D01*
X193679524Y-48274819D02*
X193917619Y-48274819D01*
X193917619Y-48274819D02*
X194012857Y-48227200D01*
X194012857Y-48227200D02*
X194060476Y-48179580D01*
X194060476Y-48179580D02*
X194108095Y-48084342D01*
X194108095Y-48084342D02*
X194108095Y-47989104D01*
X194108095Y-47989104D02*
X194060476Y-47893866D01*
X194060476Y-47893866D02*
X194012857Y-47846247D01*
X194012857Y-47846247D02*
X193917619Y-47798628D01*
X193917619Y-47798628D02*
X193727143Y-47751009D01*
X193727143Y-47751009D02*
X193631905Y-47703390D01*
X193631905Y-47703390D02*
X193584286Y-47655771D01*
X193584286Y-47655771D02*
X193536667Y-47560533D01*
X193536667Y-47560533D02*
X193536667Y-47465295D01*
X193536667Y-47465295D02*
X193584286Y-47370057D01*
X193584286Y-47370057D02*
X193631905Y-47322438D01*
X193631905Y-47322438D02*
X193727143Y-47274819D01*
X193727143Y-47274819D02*
X193965238Y-47274819D01*
X193965238Y-47274819D02*
X194108095Y-47322438D01*
X194441429Y-47274819D02*
X194679524Y-48274819D01*
X194679524Y-48274819D02*
X194870000Y-47560533D01*
X194870000Y-47560533D02*
X195060476Y-48274819D01*
X195060476Y-48274819D02*
X195298572Y-47274819D01*
X196203333Y-48274819D02*
X195631905Y-48274819D01*
X195917619Y-48274819D02*
X195917619Y-47274819D01*
X195917619Y-47274819D02*
X195822381Y-47417676D01*
X195822381Y-47417676D02*
X195727143Y-47512914D01*
X195727143Y-47512914D02*
X195631905Y-47560533D01*
X184056666Y-34894819D02*
X184056666Y-35609104D01*
X184056666Y-35609104D02*
X184009047Y-35751961D01*
X184009047Y-35751961D02*
X183913809Y-35847200D01*
X183913809Y-35847200D02*
X183770952Y-35894819D01*
X183770952Y-35894819D02*
X183675714Y-35894819D01*
X184675714Y-35323390D02*
X184580476Y-35275771D01*
X184580476Y-35275771D02*
X184532857Y-35228152D01*
X184532857Y-35228152D02*
X184485238Y-35132914D01*
X184485238Y-35132914D02*
X184485238Y-35085295D01*
X184485238Y-35085295D02*
X184532857Y-34990057D01*
X184532857Y-34990057D02*
X184580476Y-34942438D01*
X184580476Y-34942438D02*
X184675714Y-34894819D01*
X184675714Y-34894819D02*
X184866190Y-34894819D01*
X184866190Y-34894819D02*
X184961428Y-34942438D01*
X184961428Y-34942438D02*
X185009047Y-34990057D01*
X185009047Y-34990057D02*
X185056666Y-35085295D01*
X185056666Y-35085295D02*
X185056666Y-35132914D01*
X185056666Y-35132914D02*
X185009047Y-35228152D01*
X185009047Y-35228152D02*
X184961428Y-35275771D01*
X184961428Y-35275771D02*
X184866190Y-35323390D01*
X184866190Y-35323390D02*
X184675714Y-35323390D01*
X184675714Y-35323390D02*
X184580476Y-35371009D01*
X184580476Y-35371009D02*
X184532857Y-35418628D01*
X184532857Y-35418628D02*
X184485238Y-35513866D01*
X184485238Y-35513866D02*
X184485238Y-35704342D01*
X184485238Y-35704342D02*
X184532857Y-35799580D01*
X184532857Y-35799580D02*
X184580476Y-35847200D01*
X184580476Y-35847200D02*
X184675714Y-35894819D01*
X184675714Y-35894819D02*
X184866190Y-35894819D01*
X184866190Y-35894819D02*
X184961428Y-35847200D01*
X184961428Y-35847200D02*
X185009047Y-35799580D01*
X185009047Y-35799580D02*
X185056666Y-35704342D01*
X185056666Y-35704342D02*
X185056666Y-35513866D01*
X185056666Y-35513866D02*
X185009047Y-35418628D01*
X185009047Y-35418628D02*
X184961428Y-35371009D01*
X184961428Y-35371009D02*
X184866190Y-35323390D01*
X199056666Y-34894819D02*
X199056666Y-35609104D01*
X199056666Y-35609104D02*
X199009047Y-35751961D01*
X199009047Y-35751961D02*
X198913809Y-35847200D01*
X198913809Y-35847200D02*
X198770952Y-35894819D01*
X198770952Y-35894819D02*
X198675714Y-35894819D01*
X199961428Y-34894819D02*
X199770952Y-34894819D01*
X199770952Y-34894819D02*
X199675714Y-34942438D01*
X199675714Y-34942438D02*
X199628095Y-34990057D01*
X199628095Y-34990057D02*
X199532857Y-35132914D01*
X199532857Y-35132914D02*
X199485238Y-35323390D01*
X199485238Y-35323390D02*
X199485238Y-35704342D01*
X199485238Y-35704342D02*
X199532857Y-35799580D01*
X199532857Y-35799580D02*
X199580476Y-35847200D01*
X199580476Y-35847200D02*
X199675714Y-35894819D01*
X199675714Y-35894819D02*
X199866190Y-35894819D01*
X199866190Y-35894819D02*
X199961428Y-35847200D01*
X199961428Y-35847200D02*
X200009047Y-35799580D01*
X200009047Y-35799580D02*
X200056666Y-35704342D01*
X200056666Y-35704342D02*
X200056666Y-35466247D01*
X200056666Y-35466247D02*
X200009047Y-35371009D01*
X200009047Y-35371009D02*
X199961428Y-35323390D01*
X199961428Y-35323390D02*
X199866190Y-35275771D01*
X199866190Y-35275771D02*
X199675714Y-35275771D01*
X199675714Y-35275771D02*
X199580476Y-35323390D01*
X199580476Y-35323390D02*
X199532857Y-35371009D01*
X199532857Y-35371009D02*
X199485238Y-35466247D01*
X180641666Y-55969819D02*
X180641666Y-56684104D01*
X180641666Y-56684104D02*
X180594047Y-56826961D01*
X180594047Y-56826961D02*
X180498809Y-56922200D01*
X180498809Y-56922200D02*
X180355952Y-56969819D01*
X180355952Y-56969819D02*
X180260714Y-56969819D01*
X181070238Y-56065057D02*
X181117857Y-56017438D01*
X181117857Y-56017438D02*
X181213095Y-55969819D01*
X181213095Y-55969819D02*
X181451190Y-55969819D01*
X181451190Y-55969819D02*
X181546428Y-56017438D01*
X181546428Y-56017438D02*
X181594047Y-56065057D01*
X181594047Y-56065057D02*
X181641666Y-56160295D01*
X181641666Y-56160295D02*
X181641666Y-56255533D01*
X181641666Y-56255533D02*
X181594047Y-56398390D01*
X181594047Y-56398390D02*
X181022619Y-56969819D01*
X181022619Y-56969819D02*
X181641666Y-56969819D01*
X208067319Y-32750833D02*
X208781604Y-32750833D01*
X208781604Y-32750833D02*
X208924461Y-32798452D01*
X208924461Y-32798452D02*
X209019700Y-32893690D01*
X209019700Y-32893690D02*
X209067319Y-33036547D01*
X209067319Y-33036547D02*
X209067319Y-33131785D01*
X209067319Y-31750833D02*
X209067319Y-32322261D01*
X209067319Y-32036547D02*
X208067319Y-32036547D01*
X208067319Y-32036547D02*
X208210176Y-32131785D01*
X208210176Y-32131785D02*
X208305414Y-32227023D01*
X208305414Y-32227023D02*
X208353033Y-32322261D01*
X202406428Y-28664819D02*
X201930238Y-28664819D01*
X201930238Y-28664819D02*
X201882619Y-29141009D01*
X201882619Y-29141009D02*
X201930238Y-29093390D01*
X201930238Y-29093390D02*
X202025476Y-29045771D01*
X202025476Y-29045771D02*
X202263571Y-29045771D01*
X202263571Y-29045771D02*
X202358809Y-29093390D01*
X202358809Y-29093390D02*
X202406428Y-29141009D01*
X202406428Y-29141009D02*
X202454047Y-29236247D01*
X202454047Y-29236247D02*
X202454047Y-29474342D01*
X202454047Y-29474342D02*
X202406428Y-29569580D01*
X202406428Y-29569580D02*
X202358809Y-29617200D01*
X202358809Y-29617200D02*
X202263571Y-29664819D01*
X202263571Y-29664819D02*
X202025476Y-29664819D01*
X202025476Y-29664819D02*
X201930238Y-29617200D01*
X201930238Y-29617200D02*
X201882619Y-29569580D01*
X202739762Y-28664819D02*
X203073095Y-29664819D01*
X203073095Y-29664819D02*
X203406428Y-28664819D01*
X203739762Y-29664819D02*
X203739762Y-28664819D01*
X204215952Y-29664819D02*
X204215952Y-28664819D01*
X204215952Y-28664819D02*
X204787380Y-29664819D01*
X204787380Y-29664819D02*
X204787380Y-28664819D01*
X205787380Y-29664819D02*
X205215952Y-29664819D01*
X205501666Y-29664819D02*
X205501666Y-28664819D01*
X205501666Y-28664819D02*
X205406428Y-28807676D01*
X205406428Y-28807676D02*
X205311190Y-28902914D01*
X205311190Y-28902914D02*
X205215952Y-28950533D01*
X174911190Y-27394819D02*
X175530237Y-27394819D01*
X175530237Y-27394819D02*
X175196904Y-27775771D01*
X175196904Y-27775771D02*
X175339761Y-27775771D01*
X175339761Y-27775771D02*
X175434999Y-27823390D01*
X175434999Y-27823390D02*
X175482618Y-27871009D01*
X175482618Y-27871009D02*
X175530237Y-27966247D01*
X175530237Y-27966247D02*
X175530237Y-28204342D01*
X175530237Y-28204342D02*
X175482618Y-28299580D01*
X175482618Y-28299580D02*
X175434999Y-28347200D01*
X175434999Y-28347200D02*
X175339761Y-28394819D01*
X175339761Y-28394819D02*
X175054047Y-28394819D01*
X175054047Y-28394819D02*
X174958809Y-28347200D01*
X174958809Y-28347200D02*
X174911190Y-28299580D01*
X175720714Y-28490057D02*
X176482618Y-28490057D01*
X176625476Y-27394819D02*
X177244523Y-27394819D01*
X177244523Y-27394819D02*
X176911190Y-27775771D01*
X176911190Y-27775771D02*
X177054047Y-27775771D01*
X177054047Y-27775771D02*
X177149285Y-27823390D01*
X177149285Y-27823390D02*
X177196904Y-27871009D01*
X177196904Y-27871009D02*
X177244523Y-27966247D01*
X177244523Y-27966247D02*
X177244523Y-28204342D01*
X177244523Y-28204342D02*
X177196904Y-28299580D01*
X177196904Y-28299580D02*
X177149285Y-28347200D01*
X177149285Y-28347200D02*
X177054047Y-28394819D01*
X177054047Y-28394819D02*
X176768333Y-28394819D01*
X176768333Y-28394819D02*
X176673095Y-28347200D01*
X176673095Y-28347200D02*
X176625476Y-28299580D01*
X177530238Y-27394819D02*
X177863571Y-28394819D01*
X177863571Y-28394819D02*
X178196904Y-27394819D01*
X178720714Y-27394819D02*
X178911190Y-27394819D01*
X178911190Y-27394819D02*
X179006428Y-27442438D01*
X179006428Y-27442438D02*
X179101666Y-27537676D01*
X179101666Y-27537676D02*
X179149285Y-27728152D01*
X179149285Y-27728152D02*
X179149285Y-28061485D01*
X179149285Y-28061485D02*
X179101666Y-28251961D01*
X179101666Y-28251961D02*
X179006428Y-28347200D01*
X179006428Y-28347200D02*
X178911190Y-28394819D01*
X178911190Y-28394819D02*
X178720714Y-28394819D01*
X178720714Y-28394819D02*
X178625476Y-28347200D01*
X178625476Y-28347200D02*
X178530238Y-28251961D01*
X178530238Y-28251961D02*
X178482619Y-28061485D01*
X178482619Y-28061485D02*
X178482619Y-27728152D01*
X178482619Y-27728152D02*
X178530238Y-27537676D01*
X178530238Y-27537676D02*
X178625476Y-27442438D01*
X178625476Y-27442438D02*
X178720714Y-27394819D01*
X179577857Y-27394819D02*
X179577857Y-28204342D01*
X179577857Y-28204342D02*
X179625476Y-28299580D01*
X179625476Y-28299580D02*
X179673095Y-28347200D01*
X179673095Y-28347200D02*
X179768333Y-28394819D01*
X179768333Y-28394819D02*
X179958809Y-28394819D01*
X179958809Y-28394819D02*
X180054047Y-28347200D01*
X180054047Y-28347200D02*
X180101666Y-28299580D01*
X180101666Y-28299580D02*
X180149285Y-28204342D01*
X180149285Y-28204342D02*
X180149285Y-27394819D01*
X180482619Y-27394819D02*
X181054047Y-27394819D01*
X180768333Y-28394819D02*
X180768333Y-27394819D01*
X181911190Y-28394819D02*
X181339762Y-28394819D01*
X181625476Y-28394819D02*
X181625476Y-27394819D01*
X181625476Y-27394819D02*
X181530238Y-27537676D01*
X181530238Y-27537676D02*
X181435000Y-27632914D01*
X181435000Y-27632914D02*
X181339762Y-27680533D01*
D11*
%TO.C,J4*%
X210125000Y-44450000D02*
X210125000Y-57210000D01*
X210125000Y-43180000D02*
X210125000Y-41850000D01*
X210125000Y-41850000D02*
X211455000Y-41850000D01*
X210125000Y-44450000D02*
X212785000Y-44450000D01*
X210125000Y-57210000D02*
X212785000Y-57210000D01*
X212785000Y-44450000D02*
X212785000Y-57210000D01*
%TO.C,SW1*%
X198370000Y-52820000D02*
X198370000Y-51320000D01*
X197120000Y-48820000D02*
X192620000Y-48820000D01*
X191370000Y-51320000D02*
X191370000Y-52820000D01*
X192620000Y-55320000D02*
X197120000Y-55320000D01*
%TO.C,J8*%
X184390000Y-36880000D02*
X185720000Y-36880000D01*
X185720000Y-36880000D02*
X185720000Y-38210000D01*
X185720000Y-39420000D02*
X185720000Y-39540000D01*
X183060000Y-39540000D02*
X185720000Y-39540000D01*
X183060000Y-39420000D02*
X183060000Y-39540000D01*
%TO.C,J6*%
X199390000Y-36880000D02*
X200720000Y-36880000D01*
X200720000Y-36880000D02*
X200720000Y-38210000D01*
X200720000Y-39420000D02*
X200720000Y-39540000D01*
X198060000Y-39540000D02*
X200720000Y-39540000D01*
X198060000Y-39420000D02*
X198060000Y-39540000D01*
%TO.C,J2*%
X182185000Y-55245000D02*
X182185000Y-47565000D01*
X187385000Y-57845000D02*
X187385000Y-47565000D01*
X187385000Y-57845000D02*
X184785000Y-57845000D01*
X184785000Y-55245000D02*
X182185000Y-55245000D01*
X182185000Y-57845000D02*
X182185000Y-56515000D01*
X187385000Y-47565000D02*
X182185000Y-47565000D01*
X184785000Y-57845000D02*
X184785000Y-55245000D01*
X183515000Y-57845000D02*
X182185000Y-57845000D01*
%TO.C,J1*%
X209962500Y-36317500D02*
X209962500Y-35867500D01*
X209412500Y-34117500D02*
X209862500Y-34117500D01*
X211812500Y-36317500D02*
X209962500Y-36317500D01*
X214362500Y-28517500D02*
X214112500Y-28517500D01*
X209412500Y-34117500D02*
X209412500Y-33667500D01*
X211812500Y-28517500D02*
X209962500Y-28517500D01*
X209962500Y-28517500D02*
X209962500Y-28967500D01*
X214362500Y-36317500D02*
X214112500Y-36317500D01*
%TO.C,5VIN1*%
X199390000Y-27880000D02*
X200720000Y-27880000D01*
X200720000Y-27880000D02*
X200720000Y-29210000D01*
X200720000Y-30420000D02*
X200720000Y-30540000D01*
X198060000Y-30540000D02*
X200720000Y-30540000D01*
X198060000Y-30420000D02*
X198060000Y-30540000D01*
%TO.C,3_3VOUT1*%
X184390000Y-27880000D02*
X185720000Y-27880000D01*
X185720000Y-27880000D02*
X185720000Y-29210000D01*
X185720000Y-30420000D02*
X185720000Y-30540000D01*
X183060000Y-30540000D02*
X185720000Y-30540000D01*
X183060000Y-30420000D02*
X183060000Y-30540000D01*
%TD*%
M02*
